<svg width="170" height="133" viewBox="0 0 170 133" fill="none" xmlns="http://www.w3.org/2000/svg">
<g id="Feature 1">
<rect id="Rectangle 22" width="170" height="133" fill="#F7F7F7"/>
<g id="text">
<path id="600" d="M41.8238 52.2646C41.8238 50.542 41.9469 48.8398 42.193 47.1582C42.4527 45.4629 42.8971 43.8701 43.526 42.3799C44.1549 40.876 45.0367 39.5498 46.1715 38.4014C47.3063 37.2393 48.7486 36.3301 50.4986 35.6738C52.2486 35.0039 54.3678 34.6689 56.8561 34.6689C57.4439 34.6689 58.1275 34.6963 58.9068 34.751C59.6998 34.792 60.3561 34.8672 60.8756 34.9766V40.042C60.3287 39.9189 59.7408 39.8232 59.1119 39.7549C58.4967 39.6729 57.8814 39.6318 57.2662 39.6318C54.7779 39.6318 52.8502 40.0283 51.483 40.8213C50.1295 41.6143 49.1725 42.7148 48.6119 44.123C48.065 45.5176 47.7438 47.1445 47.648 49.0039H47.9146C48.2975 48.334 48.776 47.7393 49.3502 47.2197C49.9381 46.7002 50.649 46.29 51.483 45.9893C52.317 45.6748 53.2945 45.5176 54.4156 45.5176C56.1656 45.5176 57.6832 45.8936 58.9684 46.6455C60.2535 47.3838 61.2447 48.457 61.942 49.8652C62.6393 51.2734 62.9879 52.9893 62.9879 55.0127C62.9879 57.1729 62.5709 59.0322 61.7369 60.5908C60.9029 62.1494 59.7203 63.3457 58.1891 64.1797C56.6715 65 54.8668 65.4102 52.775 65.4102C51.2438 65.4102 49.815 65.1504 48.4889 64.6309C47.1627 64.0977 46.0006 63.291 45.0025 62.2109C44.0045 61.1309 43.2252 59.7705 42.6646 58.1299C42.1041 56.4756 41.8238 54.5205 41.8238 52.2646ZM52.652 60.3447C53.8961 60.3447 54.9078 59.9209 55.6871 59.0732C56.4664 58.2256 56.8561 56.8994 56.8561 55.0947C56.8561 53.6318 56.5143 52.4834 55.8307 51.6494C55.1607 50.8018 54.1422 50.3779 52.775 50.3779C51.8453 50.3779 51.025 50.5898 50.3141 51.0137C49.6168 51.4238 49.0768 51.9502 48.6939 52.5928C48.3111 53.2217 48.1197 53.8711 48.1197 54.541C48.1197 55.2383 48.2154 55.9287 48.4068 56.6123C48.5982 57.2959 48.8854 57.918 49.2682 58.4785C49.651 59.0391 50.1227 59.4902 50.6832 59.832C51.2574 60.1738 51.9137 60.3447 52.652 60.3447ZM88.959 50.0088C88.959 52.4287 88.7676 54.5889 88.3848 56.4893C88.0156 58.3896 87.4141 60.0029 86.5801 61.3291C85.7598 62.6553 84.6797 63.667 83.3398 64.3643C82 65.0615 80.373 65.4102 78.459 65.4102C76.0527 65.4102 74.0772 64.8018 72.5322 63.585C70.9873 62.3545 69.8457 60.5908 69.1074 58.2939C68.3691 55.9834 68 53.2217 68 50.0088C68 46.7686 68.335 44 69.0049 41.7031C69.6885 39.3926 70.7959 37.6221 72.3272 36.3916C73.8584 35.1611 75.9023 34.5459 78.459 34.5459C80.8516 34.5459 82.8203 35.1611 84.3652 36.3916C85.9238 37.6084 87.0791 39.3721 87.8311 41.6826C88.583 43.9795 88.959 46.7549 88.959 50.0088ZM74.2959 50.0088C74.2959 52.292 74.4189 54.1992 74.665 55.7305C74.9248 57.248 75.3555 58.3896 75.957 59.1553C76.5586 59.9209 77.3926 60.3037 78.459 60.3037C79.5117 60.3037 80.3389 59.9277 80.9404 59.1758C81.5557 58.4102 81.9932 57.2686 82.2529 55.751C82.5127 54.2197 82.6426 52.3057 82.6426 50.0088C82.6426 47.7256 82.5127 45.8184 82.2529 44.2871C81.9932 42.7559 81.5557 41.6074 80.9404 40.8418C80.3389 40.0625 79.5117 39.6729 78.459 39.6729C77.3926 39.6729 76.5586 40.0625 75.957 40.8418C75.3555 41.6074 74.9248 42.7559 74.665 44.2871C74.4189 45.8184 74.2959 47.7256 74.2959 50.0088ZM115.094 50.0088C115.094 52.4287 114.903 54.5889 114.52 56.4893C114.151 58.3896 113.549 60.0029 112.715 61.3291C111.895 62.6553 110.815 63.667 109.475 64.3643C108.135 65.0615 106.508 65.4102 104.594 65.4102C102.188 65.4102 100.212 64.8018 98.6674 63.585C97.1225 62.3545 95.9809 60.5908 95.2426 58.2939C94.5043 55.9834 94.1352 53.2217 94.1352 50.0088C94.1352 46.7686 94.4701 44 95.14 41.7031C95.8236 39.3926 96.9311 37.6221 98.4623 36.3916C99.9936 35.1611 102.038 34.5459 104.594 34.5459C106.987 34.5459 108.955 35.1611 110.5 36.3916C112.059 37.6084 113.214 39.3721 113.966 41.6826C114.718 43.9795 115.094 46.7549 115.094 50.0088ZM100.431 50.0088C100.431 52.292 100.554 54.1992 100.8 55.7305C101.06 57.248 101.491 58.3896 102.092 59.1553C102.694 59.9209 103.528 60.3037 104.594 60.3037C105.647 60.3037 106.474 59.9277 107.076 59.1758C107.691 58.4102 108.128 57.2686 108.388 55.751C108.648 54.2197 108.778 52.3057 108.778 50.0088C108.778 47.7256 108.648 45.8184 108.388 44.2871C108.128 42.7559 107.691 41.6074 107.076 40.8418C106.474 40.0625 105.647 39.6729 104.594 39.6729C103.528 39.6729 102.694 40.0625 102.092 40.8418C101.491 41.6074 101.06 42.7559 100.8 44.2871C100.554 45.8184 100.431 47.7256 100.431 50.0088Z" fill="#303030"/>
<path id="Satisfied customers per day" d="M38.4971 92.8623C38.4971 93.3278 38.3825 93.7288 38.1533 94.0654C37.9277 94.402 37.6019 94.6598 37.1758 94.8389C36.7533 95.0179 36.2484 95.1074 35.6611 95.1074C35.3747 95.1074 35.1007 95.0913 34.8394 95.0591C34.578 95.0269 34.3309 94.9803 34.0981 94.9194C33.869 94.855 33.6595 94.778 33.4697 94.6885V93.4746C33.7884 93.6143 34.1447 93.7414 34.5386 93.856C34.9325 93.967 35.3335 94.0225 35.7417 94.0225C36.0747 94.0225 36.3504 93.9795 36.5688 93.8936C36.7909 93.804 36.9556 93.6787 37.063 93.5176C37.1704 93.3529 37.2241 93.1613 37.2241 92.9429C37.2241 92.7101 37.1615 92.5132 37.0361 92.3521C36.9108 92.1909 36.721 92.0441 36.4668 91.9116C36.2161 91.7756 35.901 91.6305 35.5215 91.4766C35.2637 91.3727 35.0166 91.2546 34.7803 91.1221C34.5475 90.9896 34.3398 90.8338 34.1572 90.6548C33.9746 90.4757 33.8296 90.2645 33.7222 90.021C33.6183 89.7739 33.5664 89.4839 33.5664 89.1509C33.5664 88.7069 33.672 88.3273 33.8833 88.0122C34.0981 87.6971 34.3989 87.4554 34.7856 87.2871C35.1759 87.1188 35.6307 87.0347 36.1499 87.0347C36.5617 87.0347 36.9484 87.0776 37.3101 87.1636C37.6753 87.2495 38.0334 87.3713 38.3843 87.5288L37.9761 88.5654C37.6538 88.4329 37.3405 88.3273 37.0361 88.2485C36.7354 88.1698 36.4274 88.1304 36.1123 88.1304C35.8402 88.1304 35.6092 88.1715 35.4194 88.2539C35.2297 88.3363 35.0846 88.4526 34.9844 88.603C34.8877 88.7498 34.8394 88.9253 34.8394 89.1294C34.8394 89.3586 34.8949 89.5519 35.0059 89.7095C35.1204 89.8634 35.2959 90.0049 35.5322 90.1338C35.7721 90.2627 36.0801 90.4059 36.4561 90.5635C36.8893 90.7425 37.2563 90.9305 37.5571 91.1274C37.8615 91.3244 38.0942 91.5607 38.2554 91.8364C38.4165 92.1086 38.4971 92.4505 38.4971 92.8623ZM42.2139 88.9414C42.9658 88.9414 43.5334 89.1079 43.9165 89.4409C44.3032 89.7739 44.4966 90.2931 44.4966 90.9985V95H43.5996L43.3579 94.1567H43.3149C43.1466 94.3716 42.973 94.5488 42.7939 94.6885C42.6149 94.8281 42.4072 94.932 42.1709 95C41.9382 95.0716 41.6535 95.1074 41.3169 95.1074C40.9624 95.1074 40.6455 95.043 40.3662 94.9141C40.0869 94.7816 39.8667 94.5811 39.7056 94.3125C39.5444 94.0439 39.4639 93.7038 39.4639 93.292C39.4639 92.6797 39.6912 92.2196 40.146 91.9116C40.6043 91.6037 41.2954 91.4336 42.2192 91.4014L43.2505 91.3638V91.0522C43.2505 90.6405 43.1538 90.3468 42.9604 90.1714C42.7707 89.9959 42.5021 89.9082 42.1548 89.9082C41.8576 89.9082 41.5693 89.9512 41.29 90.0371C41.0107 90.123 40.7386 90.2287 40.4736 90.354L40.0654 89.4624C40.3555 89.3084 40.6849 89.1831 41.0537 89.0864C41.4261 88.9897 41.8128 88.9414 42.2139 88.9414ZM43.2451 92.1587L42.4771 92.1855C41.8468 92.207 41.4046 92.3145 41.1504 92.5078C40.8962 92.7012 40.769 92.9661 40.769 93.3027C40.769 93.5964 40.8568 93.8112 41.0322 93.9473C41.2077 94.0798 41.4386 94.146 41.7251 94.146C42.1619 94.146 42.5236 94.0225 42.8101 93.7754C43.1001 93.5247 43.2451 93.1577 43.2451 92.6743V92.1587ZM48.4766 94.0869C48.6413 94.0869 48.8042 94.0726 48.9653 94.0439C49.1265 94.0117 49.2733 93.9741 49.4058 93.9312V94.8872C49.2661 94.9481 49.0853 95 48.8633 95.043C48.6413 95.0859 48.4103 95.1074 48.1704 95.1074C47.8338 95.1074 47.5312 95.0519 47.2627 94.9409C46.9941 94.8263 46.7811 94.6312 46.6235 94.3555C46.466 94.0798 46.3872 93.6984 46.3872 93.2114V90.0156H45.5762V89.4517L46.4463 89.0059L46.8599 87.7329H47.6548V89.0542H49.3574V90.0156H47.6548V93.1953C47.6548 93.4961 47.73 93.7199 47.8804 93.8667C48.0308 94.0135 48.2295 94.0869 48.4766 94.0869ZM51.8765 89.0542V95H50.6143V89.0542H51.8765ZM51.2534 86.7769C51.4468 86.7769 51.6133 86.8288 51.7529 86.9326C51.8962 87.0365 51.9678 87.2155 51.9678 87.4697C51.9678 87.7204 51.8962 87.8994 51.7529 88.0068C51.6133 88.1107 51.4468 88.1626 51.2534 88.1626C51.0529 88.1626 50.8828 88.1107 50.7432 88.0068C50.6071 87.8994 50.5391 87.7204 50.5391 87.4697C50.5391 87.2155 50.6071 87.0365 50.7432 86.9326C50.8828 86.8288 51.0529 86.7769 51.2534 86.7769ZM57.6826 93.3027C57.6826 93.693 57.5877 94.0225 57.3979 94.291C57.2082 94.5596 56.9307 94.7637 56.5654 94.9033C56.2038 95.0394 55.7598 95.1074 55.2334 95.1074C54.818 95.1074 54.46 95.077 54.1592 95.0161C53.862 94.9588 53.5809 94.8693 53.3159 94.7476V93.6572C53.5988 93.7897 53.9157 93.9043 54.2666 94.001C54.6211 94.0977 54.9559 94.146 55.271 94.146C55.6864 94.146 55.9854 94.0815 56.168 93.9526C56.3506 93.8201 56.4419 93.6447 56.4419 93.4263C56.4419 93.2974 56.4043 93.1828 56.3291 93.0825C56.2575 92.9787 56.1214 92.873 55.9209 92.7656C55.724 92.6546 55.4339 92.5221 55.0508 92.3682C54.6748 92.2178 54.3579 92.0674 54.1001 91.917C53.8423 91.7666 53.6471 91.5858 53.5146 91.3745C53.3822 91.1597 53.3159 90.8857 53.3159 90.5527C53.3159 90.0264 53.5236 89.6271 53.939 89.355C54.3579 89.0793 54.9111 88.9414 55.5986 88.9414C55.9639 88.9414 56.3076 88.979 56.6299 89.0542C56.9557 89.1258 57.2744 89.2314 57.5859 89.3711L57.1885 90.3218C56.9199 90.2036 56.6496 90.1069 56.3774 90.0317C56.1089 89.953 55.835 89.9136 55.5557 89.9136C55.2298 89.9136 54.981 89.9637 54.8091 90.064C54.6408 90.1642 54.5566 90.3075 54.5566 90.4937C54.5566 90.6333 54.5978 90.7515 54.6802 90.8481C54.7625 90.9448 54.904 91.0415 55.1045 91.1382C55.3086 91.2349 55.5915 91.3548 55.9531 91.498C56.3076 91.6341 56.6138 91.7773 56.8716 91.9277C57.133 92.0745 57.3335 92.2554 57.4731 92.4702C57.6128 92.6851 57.6826 92.9626 57.6826 93.3027ZM62.0171 90.0156H60.5723V95H59.3101V90.0156H58.3379V89.4087L59.3101 89.0381V88.6245C59.3101 88.1196 59.3888 87.7186 59.5464 87.4214C59.7075 87.1242 59.9367 86.9111 60.2339 86.7822C60.5347 86.6497 60.8927 86.5835 61.3081 86.5835C61.5802 86.5835 61.8291 86.6068 62.0547 86.6533C62.2803 86.6963 62.4701 86.7464 62.624 86.8037L62.2964 87.7598C62.1746 87.7204 62.0386 87.6846 61.8882 87.6523C61.7378 87.6165 61.5767 87.5986 61.4048 87.5986C61.1183 87.5986 60.9071 87.6882 60.771 87.8672C60.6385 88.0462 60.5723 88.3076 60.5723 88.6514V89.0542H62.0171V90.0156ZM64.2891 89.0542V95H63.0269V89.0542H64.2891ZM63.666 86.7769C63.8594 86.7769 64.0259 86.8288 64.1655 86.9326C64.3088 87.0365 64.3804 87.2155 64.3804 87.4697C64.3804 87.7204 64.3088 87.8994 64.1655 88.0068C64.0259 88.1107 63.8594 88.1626 63.666 88.1626C63.4655 88.1626 63.2954 88.1107 63.1558 88.0068C63.0197 87.8994 62.9517 87.7204 62.9517 87.4697C62.9517 87.2155 63.0197 87.0365 63.1558 86.9326C63.2954 86.8288 63.4655 86.7769 63.666 86.7769ZM68.4624 88.9414C68.9924 88.9414 69.4471 89.0506 69.8267 89.269C70.2062 89.4875 70.498 89.7972 70.7021 90.1982C70.9062 90.5993 71.0083 91.0791 71.0083 91.6377V92.3145H67.0391C67.0534 92.891 67.2074 93.335 67.501 93.6465C67.7982 93.958 68.2135 94.1138 68.7471 94.1138C69.1266 94.1138 69.4668 94.078 69.7676 94.0063C70.0719 93.9312 70.3853 93.8219 70.7075 93.6787V94.7046C70.4103 94.8442 70.1077 94.9463 69.7998 95.0107C69.4919 95.0752 69.123 95.1074 68.6934 95.1074C68.1097 95.1074 67.5959 94.9946 67.1519 94.769C66.7114 94.5399 66.3659 94.1997 66.1152 93.7485C65.8682 93.2974 65.7446 92.737 65.7446 92.0674C65.7446 91.4014 65.8574 90.8356 66.083 90.3701C66.3086 89.9046 66.6255 89.5501 67.0337 89.3066C67.4419 89.0632 67.9181 88.9414 68.4624 88.9414ZM68.4624 89.8921C68.0649 89.8921 67.7427 90.021 67.4956 90.2788C67.2521 90.5366 67.1089 90.9144 67.0659 91.4121H69.7729C69.7694 91.1149 69.7192 90.8517 69.6226 90.6226C69.5295 90.3934 69.3862 90.2144 69.1929 90.0854C69.0031 89.9565 68.7596 89.8921 68.4624 89.8921ZM74.4297 95.1074C73.7207 95.1074 73.1514 94.8496 72.7217 94.334C72.2956 93.8148 72.0825 93.0503 72.0825 92.0405C72.0825 91.02 72.2992 90.2484 72.7324 89.7256C73.1693 89.2028 73.744 88.9414 74.4565 88.9414C74.7573 88.9414 75.0205 88.9826 75.2461 89.0649C75.4717 89.1437 75.665 89.2511 75.8262 89.3872C75.9909 89.5233 76.1305 89.6755 76.2451 89.8438H76.3042C76.2863 89.7327 76.2648 89.5734 76.2397 89.3657C76.2183 89.1545 76.2075 88.9593 76.2075 88.7803V86.6426H77.4751V95H76.4868L76.2612 94.189H76.2075C76.1001 94.3608 75.964 94.5166 75.7993 94.6563C75.6382 94.7923 75.4448 94.9015 75.2192 94.9839C74.9972 95.0662 74.734 95.1074 74.4297 95.1074ZM74.7842 94.0815C75.3249 94.0815 75.7062 93.9258 75.9282 93.6143C76.1502 93.3027 76.2648 92.8354 76.272 92.2124V92.0459C76.272 91.3799 76.1646 90.8696 75.9497 90.5151C75.7349 90.1571 75.3428 89.978 74.7734 89.978C74.3187 89.978 73.9714 90.1624 73.7314 90.5313C73.4951 90.8965 73.377 91.4067 73.377 92.062C73.377 92.7173 73.4951 93.2186 73.7314 93.5659C73.9714 93.9097 74.3223 94.0815 74.7842 94.0815ZM84.5381 95.1074C83.9759 95.1074 83.4889 94.9982 83.0771 94.7798C82.6654 94.5614 82.3485 94.2266 82.1265 93.7754C81.9045 93.3242 81.7935 92.7513 81.7935 92.0566C81.7935 91.3333 81.9152 90.7425 82.1587 90.2842C82.4022 89.8258 82.7388 89.4875 83.1685 89.269C83.6017 89.0506 84.0977 88.9414 84.6562 88.9414C85.0107 88.9414 85.3312 88.9772 85.6177 89.0488C85.9077 89.1169 86.153 89.201 86.3535 89.3013L85.9775 90.311C85.7591 90.2215 85.5353 90.1463 85.3062 90.0854C85.077 90.0246 84.8568 89.9941 84.6455 89.9941C84.2982 89.9941 84.0081 90.0711 83.7754 90.2251C83.5462 90.3791 83.3743 90.6082 83.2598 90.9126C83.1488 91.217 83.0933 91.5947 83.0933 92.0459C83.0933 92.4827 83.1506 92.8516 83.2651 93.1523C83.3797 93.4495 83.5498 93.6751 83.7754 93.8291C84.001 93.9795 84.2785 94.0547 84.6079 94.0547C84.9338 94.0547 85.2256 94.0153 85.4834 93.9365C85.7412 93.8577 85.9847 93.7557 86.2139 93.6304V94.7261C85.9883 94.855 85.7466 94.9499 85.4888 95.0107C85.231 95.0752 84.9141 95.1074 84.5381 95.1074ZM92.7935 89.0542V95H91.7998L91.6279 94.1997H91.5581C91.4328 94.4038 91.2734 94.5739 91.0801 94.71C90.8867 94.8424 90.6719 94.9409 90.4355 95.0054C90.1992 95.0734 89.9504 95.1074 89.689 95.1074C89.2414 95.1074 88.8582 95.0322 88.5396 94.8818C88.2244 94.7279 87.9827 94.4915 87.8145 94.1729C87.6462 93.8542 87.562 93.4424 87.562 92.9375V89.0542H88.8296V92.7012C88.8296 93.1631 88.9227 93.5086 89.1089 93.7378C89.2987 93.967 89.5923 94.0815 89.9897 94.0815C90.3729 94.0815 90.6772 94.0028 90.9028 93.8452C91.1284 93.6877 91.2878 93.4549 91.3809 93.147C91.4775 92.839 91.5259 92.4613 91.5259 92.0137V89.0542H92.7935ZM98.5996 93.3027C98.5996 93.693 98.5047 94.0225 98.3149 94.291C98.1252 94.5596 97.8477 94.7637 97.4824 94.9033C97.1208 95.0394 96.6768 95.1074 96.1504 95.1074C95.735 95.1074 95.377 95.077 95.0762 95.0161C94.779 94.9588 94.4979 94.8693 94.2329 94.7476V93.6572C94.5158 93.7897 94.8327 93.9043 95.1836 94.001C95.5381 94.0977 95.8729 94.146 96.188 94.146C96.6034 94.146 96.9023 94.0815 97.085 93.9526C97.2676 93.8201 97.3589 93.6447 97.3589 93.4263C97.3589 93.2974 97.3213 93.1828 97.2461 93.0825C97.1745 92.9787 97.0384 92.873 96.8379 92.7656C96.641 92.6546 96.3509 92.5221 95.9678 92.3682C95.5918 92.2178 95.2749 92.0674 95.0171 91.917C94.7593 91.7666 94.5641 91.5858 94.4316 91.3745C94.2992 91.1597 94.2329 90.8857 94.2329 90.5527C94.2329 90.0264 94.4406 89.6271 94.856 89.355C95.2749 89.0793 95.8281 88.9414 96.5156 88.9414C96.8809 88.9414 97.2246 88.979 97.5469 89.0542C97.8727 89.1258 98.1914 89.2314 98.5029 89.3711L98.1055 90.3218C97.8369 90.2036 97.5666 90.1069 97.2944 90.0317C97.0259 89.953 96.752 89.9136 96.4727 89.9136C96.1468 89.9136 95.8979 89.9637 95.7261 90.064C95.5578 90.1642 95.4736 90.3075 95.4736 90.4937C95.4736 90.6333 95.5148 90.7515 95.5972 90.8481C95.6795 90.9448 95.821 91.0415 96.0215 91.1382C96.2256 91.2349 96.5085 91.3548 96.8701 91.498C97.2246 91.6341 97.5308 91.7773 97.7886 91.9277C98.05 92.0745 98.2505 92.2554 98.3901 92.4702C98.5298 92.6851 98.5996 92.9626 98.5996 93.3027ZM102.177 94.0869C102.341 94.0869 102.504 94.0726 102.666 94.0439C102.827 94.0117 102.973 93.9741 103.106 93.9312V94.8872C102.966 94.9481 102.785 95 102.563 95.043C102.341 95.0859 102.111 95.1074 101.871 95.1074C101.534 95.1074 101.231 95.0519 100.963 94.9409C100.694 94.8263 100.481 94.6312 100.324 94.3555C100.166 94.0798 100.087 93.6984 100.087 93.2114V90.0156H99.2764V89.4517L100.146 89.0059L100.56 87.7329H101.355V89.0542H103.058V90.0156H101.355V93.1953C101.355 93.4961 101.43 93.7199 101.581 93.8667C101.731 94.0135 101.93 94.0869 102.177 94.0869ZM109.578 92.0137C109.578 92.5078 109.514 92.9465 109.385 93.3296C109.256 93.7127 109.068 94.0368 108.821 94.3018C108.574 94.5632 108.277 94.7637 107.929 94.9033C107.582 95.0394 107.19 95.1074 106.753 95.1074C106.345 95.1074 105.971 95.0394 105.63 94.9033C105.29 94.7637 104.995 94.5632 104.744 94.3018C104.497 94.0368 104.306 93.7127 104.169 93.3296C104.033 92.9465 103.965 92.5078 103.965 92.0137C103.965 91.3584 104.078 90.8034 104.304 90.3486C104.533 89.8903 104.859 89.5412 105.281 89.3013C105.704 89.0614 106.207 88.9414 106.791 88.9414C107.338 88.9414 107.822 89.0614 108.241 89.3013C108.66 89.5412 108.987 89.8903 109.224 90.3486C109.46 90.807 109.578 91.362 109.578 92.0137ZM105.265 92.0137C105.265 92.4469 105.317 92.8175 105.421 93.1255C105.528 93.4334 105.693 93.6698 105.915 93.8345C106.137 93.9956 106.424 94.0762 106.774 94.0762C107.125 94.0762 107.412 93.9956 107.634 93.8345C107.856 93.6698 108.019 93.4334 108.123 93.1255C108.226 92.8175 108.278 92.4469 108.278 92.0137C108.278 91.5804 108.226 91.2134 108.123 90.9126C108.019 90.6082 107.856 90.3773 107.634 90.2197C107.412 90.0586 107.124 89.978 106.769 89.978C106.246 89.978 105.865 90.1535 105.625 90.5044C105.385 90.8553 105.265 91.3584 105.265 92.0137ZM117.748 88.9414C118.414 88.9414 118.915 89.1133 119.251 89.457C119.592 89.8008 119.762 90.3522 119.762 91.1113V95H118.5V91.3369C118.5 90.8857 118.412 90.5456 118.236 90.3164C118.061 90.0872 117.794 89.9727 117.436 89.9727C116.935 89.9727 116.573 90.1338 116.351 90.4561C116.133 90.7747 116.023 91.2384 116.023 91.8472V95H114.761V91.3369C114.761 91.0361 114.722 90.7855 114.643 90.585C114.568 90.3809 114.451 90.2287 114.294 90.1284C114.136 90.0246 113.938 89.9727 113.698 89.9727C113.35 89.9727 113.073 90.0514 112.865 90.209C112.661 90.3665 112.514 90.5993 112.425 90.9072C112.335 91.2116 112.291 91.5858 112.291 92.0298V95H111.028V89.0542H112.011L112.188 89.8545H112.258C112.38 89.6468 112.53 89.4767 112.709 89.3442C112.892 89.2082 113.094 89.1079 113.316 89.0435C113.538 88.9754 113.769 88.9414 114.009 88.9414C114.453 88.9414 114.827 89.0202 115.132 89.1777C115.436 89.3317 115.664 89.568 115.814 89.8867H115.911C116.097 89.5645 116.356 89.3263 116.689 89.1724C117.022 89.0184 117.375 88.9414 117.748 88.9414ZM123.892 88.9414C124.422 88.9414 124.877 89.0506 125.256 89.269C125.636 89.4875 125.928 89.7972 126.132 90.1982C126.336 90.5993 126.438 91.0791 126.438 91.6377V92.3145H122.469C122.483 92.891 122.637 93.335 122.931 93.6465C123.228 93.958 123.643 94.1138 124.177 94.1138C124.556 94.1138 124.896 94.078 125.197 94.0063C125.502 93.9312 125.815 93.8219 126.137 93.6787V94.7046C125.84 94.8442 125.537 94.9463 125.229 95.0107C124.922 95.0752 124.553 95.1074 124.123 95.1074C123.539 95.1074 123.026 94.9946 122.582 94.769C122.141 94.5399 121.796 94.1997 121.545 93.7485C121.298 93.2974 121.174 92.737 121.174 92.0674C121.174 91.4014 121.287 90.8356 121.513 90.3701C121.738 89.9046 122.055 89.5501 122.463 89.3066C122.872 89.0632 123.348 88.9414 123.892 88.9414ZM123.892 89.8921C123.495 89.8921 123.172 90.021 122.925 90.2788C122.682 90.5366 122.539 90.9144 122.496 91.4121H125.203C125.199 91.1149 125.149 90.8517 125.052 90.6226C124.959 90.3934 124.816 90.2144 124.623 90.0854C124.433 89.9565 124.189 89.8921 123.892 89.8921ZM130.875 88.9414C130.975 88.9414 131.084 88.9468 131.202 88.9575C131.32 88.9683 131.422 88.9826 131.508 89.0005L131.39 90.1821C131.315 90.1606 131.222 90.1445 131.111 90.1338C131.003 90.123 130.907 90.1177 130.821 90.1177C130.595 90.1177 130.38 90.1553 130.176 90.2305C129.972 90.3021 129.791 90.4131 129.634 90.5635C129.476 90.7103 129.353 90.8947 129.263 91.1167C129.174 91.3387 129.129 91.5965 129.129 91.8901V95H127.861V89.0542H128.85L129.021 90.1016H129.081C129.199 89.8903 129.346 89.6969 129.521 89.5215C129.696 89.346 129.897 89.2064 130.123 89.1025C130.352 88.9951 130.602 88.9414 130.875 88.9414ZM136.605 93.3027C136.605 93.693 136.511 94.0225 136.321 94.291C136.131 94.5596 135.854 94.7637 135.488 94.9033C135.127 95.0394 134.683 95.1074 134.156 95.1074C133.741 95.1074 133.383 95.077 133.082 95.0161C132.785 94.9588 132.504 94.8693 132.239 94.7476V93.6572C132.522 93.7897 132.839 93.9043 133.189 94.001C133.544 94.0977 133.879 94.146 134.194 94.146C134.609 94.146 134.908 94.0815 135.091 93.9526C135.273 93.8201 135.365 93.6447 135.365 93.4263C135.365 93.2974 135.327 93.1828 135.252 93.0825C135.18 92.9787 135.044 92.873 134.844 92.7656C134.647 92.6546 134.357 92.5221 133.974 92.3682C133.598 92.2178 133.281 92.0674 133.023 91.917C132.765 91.7666 132.57 91.5858 132.438 91.3745C132.305 91.1597 132.239 90.8857 132.239 90.5527C132.239 90.0264 132.446 89.6271 132.862 89.355C133.281 89.0793 133.834 88.9414 134.521 88.9414C134.887 88.9414 135.23 88.979 135.553 89.0542C135.879 89.1258 136.197 89.2314 136.509 89.3711L136.111 90.3218C135.843 90.2036 135.572 90.1069 135.3 90.0317C135.032 89.953 134.758 89.9136 134.479 89.9136C134.153 89.9136 133.904 89.9637 133.732 90.064C133.564 90.1642 133.479 90.3075 133.479 90.4937C133.479 90.6333 133.521 90.7515 133.603 90.8481C133.685 90.9448 133.827 91.0415 134.027 91.1382C134.231 91.2349 134.514 91.3548 134.876 91.498C135.23 91.6341 135.537 91.7773 135.794 91.9277C136.056 92.0745 136.256 92.2554 136.396 92.4702C136.536 92.6851 136.605 92.9626 136.605 93.3027ZM68.9941 103.941C69.6995 103.941 70.2653 104.199 70.6914 104.715C71.1211 105.23 71.3359 105.997 71.3359 107.014C71.3359 107.687 71.2357 108.254 71.0352 108.716C70.8382 109.175 70.5607 109.522 70.2026 109.758C69.8481 109.991 69.4346 110.107 68.9619 110.107C68.6611 110.107 68.3997 110.068 68.1777 109.989C67.9557 109.91 67.766 109.808 67.6084 109.683C67.4508 109.554 67.3184 109.415 67.2109 109.264H67.1357C67.1536 109.407 67.1698 109.567 67.1841 109.742C67.202 109.914 67.2109 110.072 67.2109 110.215V112.637H65.9434V104.054H66.9746L67.1519 104.876H67.2109C67.3219 104.708 67.4562 104.552 67.6138 104.409C67.7749 104.265 67.9683 104.153 68.1938 104.07C68.423 103.984 68.6898 103.941 68.9941 103.941ZM68.6558 104.973C68.3084 104.973 68.0291 105.042 67.8179 105.182C67.6102 105.318 67.458 105.524 67.3613 105.8C67.2682 106.076 67.2181 106.421 67.2109 106.836V107.014C67.2109 107.454 67.2557 107.828 67.3452 108.136C67.4383 108.441 67.5905 108.673 67.8018 108.834C68.0166 108.992 68.3066 109.071 68.6719 109.071C68.9798 109.071 69.234 108.987 69.4346 108.818C69.6387 108.65 69.7909 108.41 69.8911 108.099C69.9914 107.787 70.0415 107.42 70.0415 106.998C70.0415 106.357 69.9269 105.859 69.6978 105.504C69.4722 105.15 69.1248 104.973 68.6558 104.973ZM75.1655 103.941C75.6955 103.941 76.1502 104.051 76.5298 104.269C76.9093 104.487 77.2012 104.797 77.4053 105.198C77.6094 105.599 77.7114 106.079 77.7114 106.638V107.314H73.7422C73.7565 107.891 73.9105 108.335 74.2041 108.646C74.5013 108.958 74.9167 109.114 75.4502 109.114C75.8298 109.114 76.1699 109.078 76.4707 109.006C76.7751 108.931 77.0884 108.822 77.4106 108.679V109.705C77.1134 109.844 76.8109 109.946 76.5029 110.011C76.195 110.075 75.8262 110.107 75.3965 110.107C74.8128 110.107 74.299 109.995 73.855 109.769C73.4146 109.54 73.069 109.2 72.8184 108.749C72.5713 108.297 72.4478 107.737 72.4478 107.067C72.4478 106.401 72.5605 105.836 72.7861 105.37C73.0117 104.905 73.3286 104.55 73.7368 104.307C74.145 104.063 74.6213 103.941 75.1655 103.941ZM75.1655 104.892C74.7681 104.892 74.4458 105.021 74.1987 105.279C73.9552 105.537 73.812 105.914 73.769 106.412H76.4761C76.4725 106.115 76.4224 105.852 76.3257 105.623C76.2326 105.393 76.0894 105.214 75.896 105.085C75.7062 104.957 75.4627 104.892 75.1655 104.892ZM82.1479 103.941C82.2482 103.941 82.3574 103.947 82.4756 103.958C82.5938 103.968 82.6958 103.983 82.7817 104L82.6636 105.182C82.5884 105.161 82.4953 105.145 82.3843 105.134C82.2769 105.123 82.1802 105.118 82.0942 105.118C81.8687 105.118 81.6538 105.155 81.4497 105.23C81.2456 105.302 81.0648 105.413 80.9072 105.563C80.7497 105.71 80.6261 105.895 80.5366 106.117C80.4471 106.339 80.4023 106.597 80.4023 106.89V110L79.1348 110V104.054L80.123 104.054L80.2949 105.102H80.354C80.4722 104.89 80.619 104.697 80.7944 104.521C80.9699 104.346 81.1704 104.206 81.396 104.103C81.6252 103.995 81.8758 103.941 82.1479 103.941ZM88.7383 110.107C88.0293 110.107 87.46 109.85 87.0303 109.334C86.6042 108.815 86.3911 108.05 86.3911 107.041C86.3911 106.02 86.6077 105.248 87.041 104.726C87.4779 104.203 88.0526 103.941 88.7651 103.941C89.0659 103.941 89.3291 103.983 89.5547 104.065C89.7803 104.144 89.9736 104.251 90.1348 104.387C90.2995 104.523 90.4391 104.675 90.5537 104.844H90.6128C90.5949 104.733 90.5734 104.573 90.5483 104.366C90.5269 104.154 90.5161 103.959 90.5161 103.78V101.643H91.7837V110H90.7954L90.5698 109.189H90.5161C90.4087 109.361 90.2726 109.517 90.1079 109.656C89.9468 109.792 89.7534 109.902 89.5278 109.984C89.3058 110.066 89.0426 110.107 88.7383 110.107ZM89.0928 109.082C89.6335 109.082 90.0148 108.926 90.2368 108.614C90.4588 108.303 90.5734 107.835 90.5806 107.212V107.046C90.5806 106.38 90.4731 105.87 90.2583 105.515C90.0435 105.157 89.6514 104.978 89.082 104.978C88.6273 104.978 88.2799 105.162 88.04 105.531C87.8037 105.896 87.6855 106.407 87.6855 107.062C87.6855 107.717 87.8037 108.219 88.04 108.566C88.2799 108.91 88.6309 109.082 89.0928 109.082ZM95.9248 103.941C96.6768 103.941 97.2443 104.108 97.6274 104.441C98.0142 104.774 98.2075 105.293 98.2075 105.999V110H97.3105L97.0688 109.157H97.0259C96.8576 109.372 96.6839 109.549 96.5049 109.688C96.3258 109.828 96.1182 109.932 95.8818 110C95.6491 110.072 95.3644 110.107 95.0278 110.107C94.6733 110.107 94.3564 110.043 94.0771 109.914C93.7979 109.782 93.5776 109.581 93.4165 109.313C93.2554 109.044 93.1748 108.704 93.1748 108.292C93.1748 107.68 93.4022 107.22 93.8569 106.912C94.3153 106.604 95.0063 106.434 95.9302 106.401L96.9614 106.364V106.052C96.9614 105.64 96.8647 105.347 96.6714 105.171C96.4816 104.996 96.2131 104.908 95.8657 104.908C95.5685 104.908 95.2803 104.951 95.001 105.037C94.7217 105.123 94.4495 105.229 94.1846 105.354L93.7764 104.462C94.0664 104.308 94.3958 104.183 94.7646 104.086C95.137 103.99 95.5238 103.941 95.9248 103.941ZM96.9561 107.159L96.188 107.186C95.5578 107.207 95.1156 107.314 94.8613 107.508C94.6071 107.701 94.48 107.966 94.48 108.303C94.48 108.596 94.5677 108.811 94.7432 108.947C94.9186 109.08 95.1496 109.146 95.436 109.146C95.8729 109.146 96.2345 109.022 96.521 108.775C96.811 108.525 96.9561 108.158 96.9561 107.674V107.159ZM99.0776 104.054H100.453L101.672 107.449C101.726 107.603 101.774 107.755 101.817 107.905C101.863 108.052 101.903 108.197 101.935 108.34C101.971 108.484 102 108.627 102.021 108.77H102.053C102.089 108.584 102.139 108.376 102.204 108.147C102.272 107.914 102.347 107.681 102.429 107.449L103.6 104.054H104.959L102.408 110.816C102.261 111.203 102.08 111.533 101.865 111.805C101.654 112.08 101.403 112.288 101.113 112.428C100.823 112.571 100.492 112.643 100.12 112.643C99.9406 112.643 99.7848 112.632 99.6523 112.61C99.5199 112.592 99.4071 112.573 99.314 112.551V111.542C99.3892 111.559 99.484 111.576 99.5986 111.59C99.7132 111.604 99.8314 111.611 99.9531 111.611C100.179 111.611 100.374 111.567 100.539 111.477C100.703 111.388 100.843 111.26 100.958 111.096C101.072 110.935 101.167 110.75 101.242 110.542L101.452 109.984L99.0776 104.054Z" fill="#303030"/>
<path id="+" d="M125.18 37.6641H128.305V39.0547H125.18V42.2109H123.789V39.0547H120.672V37.6641H123.789V34.4766H125.18V37.6641Z" fill="#FF6C00"/>
</g>
</g>
</svg>
