<svg width="170" height="133" viewBox="0 0 170 133" fill="none" xmlns="http://www.w3.org/2000/svg">
<g id="Feature 3">
<rect id="Rectangle 24" width="170" height="133" fill="#F7F7F7"/>
<g id="text">
<path id="20" d="M75.0555 65H54.0965V60.5908L61.6229 52.9824C63.1404 51.4238 64.3572 50.125 65.2732 49.0859C66.2029 48.0332 66.8729 47.0762 67.283 46.2148C67.7068 45.3535 67.9188 44.4307 67.9188 43.4463C67.9188 42.2568 67.5838 41.3682 66.9139 40.7803C66.2576 40.1787 65.3758 39.8779 64.2684 39.8779C63.1063 39.8779 61.9783 40.1445 60.8846 40.6777C59.7908 41.2109 58.6492 41.9697 57.4598 42.9541L54.0145 38.873C54.8758 38.1348 55.785 37.4375 56.742 36.7812C57.7127 36.125 58.8338 35.5986 60.1053 35.2021C61.3904 34.792 62.9285 34.5869 64.7195 34.5869C66.6883 34.5869 68.3768 34.9424 69.785 35.6533C71.2068 36.3643 72.3006 37.335 73.0662 38.5654C73.8318 39.7822 74.2146 41.1631 74.2146 42.708C74.2146 44.3623 73.8865 45.873 73.2303 47.2402C72.574 48.6074 71.617 49.9609 70.3592 51.3008C69.115 52.6406 67.6111 54.124 65.8475 55.751L61.992 59.3809V59.668H75.0555V65ZM101.027 50.0088C101.027 52.4287 100.835 54.5889 100.452 56.4893C100.083 58.3896 99.4816 60.0029 98.6477 61.3291C97.8273 62.6553 96.7473 63.667 95.4074 64.3643C94.0676 65.0615 92.4406 65.4102 90.5266 65.4102C88.1203 65.4102 86.1447 64.8018 84.5998 63.585C83.0549 62.3545 81.9133 60.5908 81.175 58.2939C80.4367 55.9834 80.0676 53.2217 80.0676 50.0088C80.0676 46.7686 80.4025 44 81.0725 41.7031C81.7561 39.3926 82.8635 37.6221 84.3947 36.3916C85.926 35.1611 87.9699 34.5459 90.5266 34.5459C92.9191 34.5459 94.8879 35.1611 96.4328 36.3916C97.9914 37.6084 99.1467 39.3721 99.8986 41.6826C100.651 43.9795 101.027 46.7549 101.027 50.0088ZM86.3635 50.0088C86.3635 52.292 86.4865 54.1992 86.7326 55.7305C86.9924 57.248 87.423 58.3896 88.0246 59.1553C88.6262 59.9209 89.4602 60.3037 90.5266 60.3037C91.5793 60.3037 92.4064 59.9277 93.008 59.1758C93.6232 58.4102 94.0607 57.2686 94.3205 55.751C94.5803 54.2197 94.7102 52.3057 94.7102 50.0088C94.7102 47.7256 94.5803 45.8184 94.3205 44.2871C94.0607 42.7559 93.6232 41.6074 93.008 40.8418C92.4064 40.0625 91.5793 39.6729 90.5266 39.6729C89.4602 39.6729 88.6262 40.0625 88.0246 40.8418C87.423 41.6074 86.9924 42.7559 86.7326 44.2871C86.4865 45.8184 86.3635 47.7256 86.3635 50.0088Z" fill="#303030"/>
<path id="Kyiv&#226;&#128;&#153;s best barbers" d="M63.0376 95H61.5552L59.1113 91.4336L58.3379 92.062V95H57.0488V87.1475H58.3379V90.9019C58.4954 90.7085 58.6548 90.5151 58.8159 90.3218C58.9771 90.1284 59.1382 89.9351 59.2993 89.7417L61.5122 87.1475H62.9678L60.0352 90.585L63.0376 95ZM63.0483 89.0542H64.4233L65.6426 92.4487C65.6963 92.6027 65.7446 92.7549 65.7876 92.9053C65.8341 93.0521 65.8735 93.1971 65.9058 93.3403C65.9416 93.4836 65.9702 93.6268 65.9917 93.77H66.0239C66.0597 93.5838 66.1099 93.3761 66.1743 93.147C66.2424 92.9142 66.3175 92.6815 66.3999 92.4487L67.5708 89.0542H68.9297L66.3784 95.8164C66.2316 96.2031 66.0508 96.5326 65.8359 96.8047C65.6247 97.0804 65.374 97.2881 65.084 97.4277C64.7939 97.571 64.4627 97.6426 64.0903 97.6426C63.9113 97.6426 63.7555 97.6318 63.623 97.6104C63.4906 97.5924 63.3778 97.5728 63.2847 97.5513V96.5415C63.3599 96.5594 63.4548 96.5755 63.5693 96.5898C63.6839 96.6042 63.8021 96.6113 63.9238 96.6113C64.1494 96.6113 64.3446 96.5666 64.5093 96.4771C64.674 96.3875 64.8136 96.2604 64.9282 96.0957C65.0428 95.9346 65.1377 95.7502 65.2129 95.5425L65.4224 94.9839L63.0483 89.0542ZM71.0942 89.0542V95H69.832V89.0542L71.0942 89.0542ZM70.4712 86.7769C70.6646 86.7769 70.8311 86.8288 70.9707 86.9326C71.1139 87.0365 71.1855 87.2155 71.1855 87.4697C71.1855 87.7204 71.1139 87.8994 70.9707 88.0068C70.8311 88.1107 70.6646 88.1626 70.4712 88.1626C70.2707 88.1626 70.1006 88.1107 69.9609 88.0068C69.8249 87.8994 69.7568 87.7204 69.7568 87.4697C69.7568 87.2155 69.8249 87.0365 69.9609 86.9326C70.1006 86.8288 70.2707 86.7769 70.4712 86.7769ZM74.2632 95L72.002 89.0542H73.3394L74.564 92.5454C74.6427 92.7674 74.7144 93.0073 74.7788 93.2651C74.8433 93.5229 74.888 93.7396 74.9131 93.915H74.9561C74.9811 93.7324 75.0295 93.514 75.1011 93.2598C75.1727 93.002 75.2461 92.7638 75.3213 92.5454L76.5459 89.0542H77.8779L75.6167 95H74.2632ZM79.79 87.1475L79.8706 87.2656C79.8062 87.527 79.722 87.8063 79.6182 88.1035C79.5179 88.4007 79.4087 88.6979 79.2905 88.9951C79.1724 89.2923 79.0524 89.5734 78.9307 89.8384H78.0176C78.0677 89.6271 78.1196 89.4051 78.1733 89.1724C78.2271 88.936 78.279 88.6997 78.3291 88.4634C78.3792 88.2235 78.424 87.9925 78.4634 87.7705C78.5028 87.5449 78.5368 87.3372 78.5654 87.1475H79.79ZM84.9033 93.3027C84.9033 93.693 84.8084 94.0225 84.6187 94.291C84.4289 94.5596 84.1514 94.7637 83.7861 94.9033C83.4245 95.0394 82.9805 95.1074 82.4541 95.1074C82.0387 95.1074 81.6807 95.077 81.3799 95.0161C81.0827 94.9588 80.8016 94.8693 80.5366 94.7476V93.6572C80.8195 93.7897 81.1364 93.9043 81.4873 94.001C81.8418 94.0977 82.1766 94.146 82.4917 94.146C82.9071 94.146 83.2061 94.0815 83.3887 93.9526C83.5713 93.8201 83.6626 93.6447 83.6626 93.4263C83.6626 93.2974 83.625 93.1828 83.5498 93.0825C83.4782 92.9787 83.3421 92.873 83.1416 92.7656C82.9447 92.6546 82.6546 92.5221 82.2715 92.3682C81.8955 92.2178 81.5786 92.0674 81.3208 91.917C81.063 91.7666 80.8678 91.5858 80.7354 91.3745C80.6029 91.1597 80.5366 90.8857 80.5366 90.5527C80.5366 90.0264 80.7443 89.6271 81.1597 89.355C81.5786 89.0793 82.1318 88.9414 82.8193 88.9414C83.1846 88.9414 83.5283 88.979 83.8506 89.0542C84.1764 89.1258 84.4951 89.2314 84.8066 89.3711L84.4092 90.3218C84.1406 90.2036 83.8703 90.1069 83.5981 90.0317C83.3296 89.953 83.0557 89.9136 82.7764 89.9136C82.4505 89.9136 82.2017 89.9637 82.0298 90.064C81.8615 90.1642 81.7773 90.3075 81.7773 90.4937C81.7773 90.6333 81.8185 90.7515 81.9009 90.8481C81.9832 90.9448 82.1247 91.0415 82.3252 91.1382C82.5293 91.2349 82.8122 91.3548 83.1738 91.498C83.5283 91.6341 83.8345 91.7773 84.0923 91.9277C84.3537 92.0745 84.5542 92.2554 84.6938 92.4702C84.8335 92.6851 84.9033 92.9626 84.9033 93.3027ZM90.3872 86.6426V88.6567C90.3872 88.8895 90.38 89.1187 90.3657 89.3442C90.355 89.5662 90.3442 89.7399 90.3335 89.8652H90.3872C90.5483 89.6074 90.7721 89.3908 91.0586 89.2153C91.3486 89.0363 91.7192 88.9468 92.1704 88.9468C92.8758 88.9468 93.4434 89.2064 93.873 89.7256C94.3027 90.2412 94.5176 91.0057 94.5176 92.019C94.5176 92.6922 94.4191 93.258 94.2222 93.7163C94.0252 94.1746 93.7477 94.522 93.3896 94.7583C93.0352 94.991 92.618 95.1074 92.1382 95.1074C91.687 95.1074 91.3218 95.0251 91.0425 94.8604C90.7668 94.6921 90.5501 94.4969 90.3926 94.2749H90.3013L90.0703 95H89.125V86.6426H90.3872ZM91.8374 89.9727C91.4793 89.9727 91.1947 90.0443 90.9834 90.1875C90.7757 90.3307 90.6253 90.5456 90.5322 90.832C90.4391 91.1149 90.3908 91.4748 90.3872 91.9116V92.0244C90.3872 92.6868 90.491 93.1935 90.6987 93.5444C90.91 93.8953 91.2931 94.0708 91.8481 94.0708C92.2886 94.0708 92.627 93.8936 92.8633 93.5391C93.0996 93.181 93.2178 92.6689 93.2178 92.0029C93.2178 91.3298 93.0996 90.8231 92.8633 90.4829C92.6305 90.1427 92.2886 89.9727 91.8374 89.9727ZM98.3472 88.9414C98.8771 88.9414 99.3319 89.0506 99.7114 89.269C100.091 89.4875 100.383 89.7972 100.587 90.1982C100.791 90.5993 100.893 91.0791 100.893 91.6377V92.3145H96.9238C96.9382 92.891 97.0921 93.335 97.3857 93.6465C97.6829 93.958 98.0983 94.1138 98.6318 94.1138C99.0114 94.1138 99.3516 94.078 99.6523 94.0063C99.9567 93.9312 100.27 93.8219 100.592 93.6787V94.7046C100.295 94.8442 99.9925 94.9463 99.6846 95.0107C99.3766 95.0752 99.0078 95.1074 98.5781 95.1074C97.9945 95.1074 97.4806 94.9946 97.0366 94.769C96.5962 94.5399 96.2507 94.1997 96 93.7485C95.7529 93.2974 95.6294 92.737 95.6294 92.0674C95.6294 91.4014 95.7422 90.8356 95.9678 90.3701C96.1934 89.9046 96.5103 89.5501 96.9185 89.3066C97.3267 89.0632 97.8029 88.9414 98.3472 88.9414ZM98.3472 89.8921C97.9497 89.8921 97.6274 90.021 97.3804 90.2788C97.1369 90.5366 96.9937 90.9144 96.9507 91.4121H99.6577C99.6541 91.1149 99.604 90.8517 99.5073 90.6226C99.4142 90.3934 99.271 90.2144 99.0776 90.0854C98.8879 89.9565 98.6444 89.8921 98.3472 89.8921ZM106.312 93.3027C106.312 93.693 106.218 94.0225 106.028 94.291C105.838 94.5596 105.561 94.7637 105.195 94.9033C104.834 95.0394 104.39 95.1074 103.863 95.1074C103.448 95.1074 103.09 95.077 102.789 95.0161C102.492 94.9588 102.211 94.8693 101.946 94.7476V93.6572C102.229 93.7897 102.546 93.9043 102.896 94.001C103.251 94.0977 103.586 94.146 103.901 94.146C104.316 94.146 104.615 94.0815 104.798 93.9526C104.98 93.8201 105.072 93.6447 105.072 93.4263C105.072 93.2974 105.034 93.1828 104.959 93.0825C104.887 92.9787 104.751 92.873 104.551 92.7656C104.354 92.6546 104.064 92.5221 103.681 92.3682C103.305 92.2178 102.988 92.0674 102.73 91.917C102.472 91.7666 102.277 91.5858 102.145 91.3745C102.012 91.1597 101.946 90.8857 101.946 90.5527C101.946 90.0264 102.153 89.6271 102.569 89.355C102.988 89.0793 103.541 88.9414 104.229 88.9414C104.594 88.9414 104.938 88.979 105.26 89.0542C105.586 89.1258 105.904 89.2314 106.216 89.3711L105.818 90.3218C105.55 90.2036 105.279 90.1069 105.007 90.0317C104.739 89.953 104.465 89.9136 104.186 89.9136C103.86 89.9136 103.611 89.9637 103.439 90.064C103.271 90.1642 103.187 90.3075 103.187 90.4937C103.187 90.6333 103.228 90.7515 103.31 90.8481C103.392 90.9448 103.534 91.0415 103.734 91.1382C103.938 91.2349 104.221 91.3548 104.583 91.498C104.938 91.6341 105.244 91.7773 105.501 91.9277C105.763 92.0745 105.963 92.2554 106.103 92.4702C106.243 92.6851 106.312 92.9626 106.312 93.3027ZM109.89 94.0869C110.054 94.0869 110.217 94.0726 110.378 94.0439C110.54 94.0117 110.686 93.9741 110.819 93.9312V94.8872C110.679 94.9481 110.498 95 110.276 95.043C110.054 95.0859 109.823 95.1074 109.583 95.1074C109.247 95.1074 108.944 95.0519 108.676 94.9409C108.407 94.8263 108.194 94.6312 108.037 94.3555C107.879 94.0798 107.8 93.6984 107.8 93.2114V90.0156H106.989V89.4517L107.859 89.0059L108.273 87.7329H109.068V89.0542H110.771V90.0156H109.068V93.1953C109.068 93.4961 109.143 93.7199 109.293 93.8667C109.444 94.0135 109.643 94.0869 109.89 94.0869ZM66.5234 101.643V103.657C66.5234 103.889 66.5163 104.119 66.502 104.344C66.4912 104.566 66.4805 104.74 66.4697 104.865H66.5234C66.6846 104.607 66.9084 104.391 67.1948 104.215C67.4849 104.036 67.8555 103.947 68.3066 103.947C69.012 103.947 69.5796 104.206 70.0093 104.726C70.439 105.241 70.6538 106.006 70.6538 107.019C70.6538 107.692 70.5553 108.258 70.3584 108.716C70.1615 109.175 69.884 109.522 69.5259 109.758C69.1714 109.991 68.7542 110.107 68.2744 110.107C67.8232 110.107 67.458 110.025 67.1787 109.86C66.903 109.692 66.6864 109.497 66.5288 109.275H66.4375L66.2065 110H65.2612V101.643H66.5234ZM67.9736 104.973C67.6156 104.973 67.3309 105.044 67.1196 105.188C66.9119 105.331 66.7616 105.546 66.6685 105.832C66.5754 106.115 66.527 106.475 66.5234 106.912V107.024C66.5234 107.687 66.6273 108.194 66.835 108.544C67.0462 108.895 67.4294 109.071 67.9844 109.071C68.4248 109.071 68.7632 108.894 68.9995 108.539C69.2358 108.181 69.354 107.669 69.354 107.003C69.354 106.33 69.2358 105.823 68.9995 105.483C68.7668 105.143 68.4248 104.973 67.9736 104.973ZM74.4458 103.941C75.1978 103.941 75.7653 104.108 76.1484 104.441C76.5352 104.774 76.7285 105.293 76.7285 105.999V110H75.8315L75.5898 109.157H75.5469C75.3786 109.372 75.2049 109.549 75.0259 109.688C74.8468 109.828 74.6392 109.932 74.4028 110C74.1701 110.072 73.8854 110.107 73.5488 110.107C73.1943 110.107 72.8774 110.043 72.5981 109.914C72.3188 109.782 72.0986 109.581 71.9375 109.312C71.7764 109.044 71.6958 108.704 71.6958 108.292C71.6958 107.68 71.9232 107.22 72.3779 106.912C72.8363 106.604 73.5273 106.434 74.4512 106.401L75.4824 106.364V106.052C75.4824 105.64 75.3857 105.347 75.1924 105.171C75.0026 104.996 74.734 104.908 74.3867 104.908C74.0895 104.908 73.8013 104.951 73.522 105.037C73.2427 105.123 72.9705 105.229 72.7056 105.354L72.2974 104.462C72.5874 104.308 72.9168 104.183 73.2856 104.086C73.658 103.99 74.0448 103.941 74.4458 103.941ZM75.4771 107.159L74.709 107.186C74.0788 107.207 73.6366 107.314 73.3823 107.508C73.1281 107.701 73.001 107.966 73.001 108.303C73.001 108.596 73.0887 108.811 73.2642 108.947C73.4396 109.08 73.6706 109.146 73.957 109.146C74.3939 109.146 74.7555 109.022 75.042 108.775C75.332 108.525 75.4771 108.158 75.4771 107.674V107.159ZM81.5088 103.941C81.609 103.941 81.7183 103.947 81.8364 103.958C81.9546 103.968 82.0566 103.983 82.1426 104L82.0244 105.182C81.9492 105.161 81.8561 105.145 81.7451 105.134C81.6377 105.123 81.541 105.118 81.4551 105.118C81.2295 105.118 81.0146 105.155 80.8105 105.23C80.6064 105.302 80.4256 105.413 80.2681 105.563C80.1105 105.71 79.987 105.895 79.8975 106.117C79.8079 106.339 79.7632 106.597 79.7632 106.89V110L78.4956 110V104.054L79.4839 104.054L79.6558 105.102H79.7148C79.833 104.89 79.9798 104.697 80.1553 104.521C80.3307 104.346 80.5312 104.206 80.7568 104.103C80.986 103.995 81.2367 103.941 81.5088 103.941ZM84.5059 101.643V103.657C84.5059 103.889 84.4987 104.119 84.4844 104.344C84.4736 104.566 84.4629 104.74 84.4521 104.865H84.5059C84.667 104.607 84.8908 104.391 85.1772 104.215C85.4673 104.036 85.8379 103.947 86.2891 103.947C86.9945 103.947 87.562 104.206 87.9917 104.726C88.4214 105.241 88.6362 106.006 88.6362 107.019C88.6362 107.692 88.5378 108.258 88.3408 108.716C88.1439 109.175 87.8664 109.522 87.5083 109.758C87.1538 109.991 86.7367 110.107 86.2568 110.107C85.8057 110.107 85.4404 110.025 85.1611 109.86C84.8854 109.692 84.6688 109.497 84.5112 109.275H84.4199L84.189 110H83.2437V101.643H84.5059ZM85.9561 104.973C85.598 104.973 85.3133 105.044 85.1021 105.188C84.8944 105.331 84.744 105.546 84.6509 105.832C84.5578 106.115 84.5094 106.475 84.5059 106.912V107.024C84.5059 107.687 84.6097 108.194 84.8174 108.544C85.0286 108.895 85.4118 109.071 85.9668 109.071C86.4072 109.071 86.7456 108.894 86.9819 108.539C87.2183 108.181 87.3364 107.669 87.3364 107.003C87.3364 106.33 87.2183 105.823 86.9819 105.483C86.7492 105.143 86.4072 104.973 85.9561 104.973ZM92.4658 103.941C92.9958 103.941 93.4505 104.051 93.8301 104.269C94.2096 104.487 94.5015 104.797 94.7056 105.198C94.9097 105.599 95.0117 106.079 95.0117 106.638V107.314H91.0425C91.0568 107.891 91.2108 108.335 91.5044 108.646C91.8016 108.958 92.217 109.114 92.7505 109.114C93.13 109.114 93.4702 109.078 93.771 109.006C94.0754 108.931 94.3887 108.822 94.7109 108.679V109.705C94.4137 109.844 94.1112 109.946 93.8032 110.011C93.4953 110.075 93.1265 110.107 92.6968 110.107C92.1131 110.107 91.5993 109.995 91.1553 109.769C90.7148 109.54 90.3693 109.2 90.1187 108.749C89.8716 108.297 89.748 107.737 89.748 107.067C89.748 106.401 89.8608 105.836 90.0864 105.37C90.312 104.905 90.6289 104.55 91.0371 104.307C91.4453 104.063 91.9215 103.941 92.4658 103.941ZM92.4658 104.892C92.0684 104.892 91.7461 105.021 91.499 105.279C91.2555 105.537 91.1123 105.914 91.0693 106.412H93.7764C93.7728 106.115 93.7227 105.852 93.626 105.623C93.5329 105.393 93.3896 105.214 93.1963 105.085C93.0065 104.957 92.763 104.892 92.4658 104.892ZM99.4482 103.941C99.5485 103.941 99.6577 103.947 99.7759 103.958C99.894 103.968 99.9961 103.983 100.082 104L99.9639 105.182C99.8887 105.161 99.7956 105.145 99.6846 105.134C99.5771 105.123 99.4805 105.118 99.3945 105.118C99.1689 105.118 98.9541 105.155 98.75 105.23C98.5459 105.302 98.3651 105.413 98.2075 105.563C98.05 105.71 97.9264 105.895 97.8369 106.117C97.7474 106.339 97.7026 106.597 97.7026 106.89V110H96.4351V104.054H97.4233L97.5952 105.102H97.6543C97.7725 104.89 97.9193 104.697 98.0947 104.521C98.2702 104.346 98.4707 104.206 98.6963 104.103C98.9255 103.995 99.1761 103.941 99.4482 103.941ZM105.179 108.303C105.179 108.693 105.084 109.022 104.895 109.291C104.705 109.56 104.427 109.764 104.062 109.903C103.7 110.039 103.256 110.107 102.73 110.107C102.315 110.107 101.957 110.077 101.656 110.016C101.359 109.959 101.077 109.869 100.812 109.748V108.657C101.095 108.79 101.412 108.904 101.763 109.001C102.118 109.098 102.452 109.146 102.768 109.146C103.183 109.146 103.482 109.082 103.665 108.953C103.847 108.82 103.938 108.645 103.938 108.426C103.938 108.297 103.901 108.183 103.826 108.083C103.754 107.979 103.618 107.873 103.417 107.766C103.221 107.655 102.931 107.522 102.547 107.368C102.171 107.218 101.854 107.067 101.597 106.917C101.339 106.767 101.144 106.586 101.011 106.375C100.879 106.16 100.812 105.886 100.812 105.553C100.812 105.026 101.02 104.627 101.436 104.355C101.854 104.079 102.408 103.941 103.095 103.941C103.46 103.941 103.804 103.979 104.126 104.054C104.452 104.126 104.771 104.231 105.083 104.371L104.685 105.322C104.417 105.204 104.146 105.107 103.874 105.032C103.605 104.953 103.332 104.914 103.052 104.914C102.726 104.914 102.478 104.964 102.306 105.064C102.137 105.164 102.053 105.307 102.053 105.494C102.053 105.633 102.094 105.751 102.177 105.848C102.259 105.945 102.401 106.042 102.601 106.138C102.805 106.235 103.088 106.355 103.45 106.498C103.804 106.634 104.11 106.777 104.368 106.928C104.63 107.075 104.83 107.255 104.97 107.47C105.109 107.685 105.179 107.963 105.179 108.303Z" fill="#303030"/>
<path id="+" d="M112.18 37.6641H115.305V39.0547H112.18V42.2109H110.789V39.0547H107.672V37.6641H110.789V34.4766H112.18V37.6641Z" fill="#FF6C00"/>
</g>
</g>
</svg>
