<svg width="170" height="133" viewBox="0 0 170 133" fill="none" xmlns="http://www.w3.org/2000/svg">
<g id="Feature 2">
<rect id="Rectangle 23" width="170" height="133" fill="#F7F7F7"/>
<g id="text">
<path id="50" d="M65.0066 45.8457C66.8387 45.8457 68.4656 46.1943 69.8875 46.8916C71.323 47.5889 72.451 48.6143 73.2713 49.9678C74.0916 51.3213 74.5018 52.9893 74.5018 54.9717C74.5018 57.1318 74.0506 58.998 73.1482 60.5703C72.2596 62.1289 70.9266 63.3252 69.1492 64.1592C67.3855 64.9932 65.1844 65.4102 62.5457 65.4102C60.9734 65.4102 59.49 65.2734 58.0955 65C56.7146 64.7402 55.5047 64.3369 54.4656 63.79V58.3145C55.5047 58.8613 56.7488 59.3262 58.198 59.709C59.6609 60.0781 61.035 60.2627 62.3201 60.2627C63.5779 60.2627 64.6375 60.0986 65.4988 59.7705C66.3602 59.4287 67.0096 58.9092 67.4471 58.2119C67.8982 57.501 68.1238 56.5986 68.1238 55.5049C68.1238 54.042 67.6316 52.9209 66.6473 52.1416C65.6629 51.3623 64.1521 50.9727 62.115 50.9727C61.3357 50.9727 60.5223 51.0479 59.6746 51.1982C58.8406 51.3486 58.1434 51.499 57.5828 51.6494L55.0604 50.2959L56.1883 35.0176H72.451V40.3906H61.7459L61.1922 46.2764C61.657 46.1807 62.1629 46.085 62.7098 45.9893C63.2566 45.8936 64.0223 45.8457 65.0066 45.8457ZM101.027 50.0088C101.027 52.4287 100.835 54.5889 100.452 56.4893C100.083 58.3896 99.4816 60.0029 98.6477 61.3291C97.8273 62.6553 96.7473 63.667 95.4074 64.3643C94.0676 65.0615 92.4406 65.4102 90.5266 65.4102C88.1203 65.4102 86.1447 64.8018 84.5998 63.585C83.0549 62.3545 81.9133 60.5908 81.175 58.2939C80.4367 55.9834 80.0676 53.2217 80.0676 50.0088C80.0676 46.7686 80.4025 44 81.0725 41.7031C81.7561 39.3926 82.8635 37.6221 84.3947 36.3916C85.926 35.1611 87.9699 34.5459 90.5266 34.5459C92.9191 34.5459 94.8879 35.1611 96.4328 36.3916C97.9914 37.6084 99.1467 39.3721 99.8986 41.6826C100.651 43.9795 101.027 46.7549 101.027 50.0088ZM86.3635 50.0088C86.3635 52.292 86.4865 54.1992 86.7326 55.7305C86.9924 57.248 87.423 58.3896 88.0246 59.1553C88.6262 59.9209 89.4602 60.3037 90.5266 60.3037C91.5793 60.3037 92.4064 59.9277 93.008 59.1758C93.6232 58.4102 94.0607 57.2686 94.3205 55.751C94.5803 54.2197 94.7102 52.3057 94.7102 50.0088C94.7102 47.7256 94.5803 45.8184 94.3205 44.2871C94.0607 42.7559 93.6232 41.6074 93.008 40.8418C92.4064 40.0625 91.5793 39.6729 90.5266 39.6729C89.4602 39.6729 88.6262 40.0625 88.0246 40.8418C87.423 41.6074 86.9924 42.7559 86.7326 44.2871C86.4865 45.8184 86.3635 47.7256 86.3635 50.0088Z" fill="#303030"/>
<path id="Awards for excellent service" d="M36.5098 95L35.7417 92.8193H32.7393L31.9712 95H30.6123L33.5342 87.1152H34.9629L37.8794 95H36.5098ZM35.4087 91.7129L34.6621 89.5645C34.6335 89.4714 34.5923 89.3407 34.5386 89.1724C34.4849 89.0005 34.4312 88.8268 34.3774 88.6514C34.3237 88.4723 34.279 88.3219 34.2432 88.2002C34.2074 88.347 34.1626 88.5117 34.1089 88.6943C34.0588 88.8734 34.0086 89.0417 33.9585 89.1992C33.9119 89.3568 33.8761 89.4785 33.8511 89.5645L33.0991 91.7129H35.4087ZM43.6479 94.9946L42.896 92.2285C42.8602 92.0924 42.8172 91.9277 42.7671 91.7344C42.717 91.541 42.6668 91.3423 42.6167 91.1382C42.5666 90.9305 42.52 90.7389 42.4771 90.5635C42.4377 90.388 42.4072 90.252 42.3857 90.1553H42.3428C42.3249 90.252 42.2962 90.388 42.2568 90.5635C42.2174 90.7389 42.1727 90.9305 42.1226 91.1382C42.0724 91.3459 42.0223 91.5482 41.9722 91.7451C41.9256 91.9421 41.8826 92.1104 41.8433 92.25L41.0537 94.9946H39.668L38.0029 89.0488H39.2812L40.0547 92.0029C40.1048 92.2035 40.1532 92.4201 40.1997 92.6528C40.2498 92.8856 40.2928 93.1076 40.3286 93.3188C40.3644 93.5301 40.3913 93.7038 40.4092 93.8398H40.4521C40.4665 93.7432 40.4862 93.6214 40.5112 93.4746C40.5363 93.3242 40.5649 93.1685 40.5972 93.0073C40.6294 92.8426 40.6616 92.6886 40.6938 92.5454C40.7261 92.3986 40.7565 92.2804 40.7852 92.1909L41.6982 89.0488H43.0786L43.9541 92.1909C43.9935 92.327 44.0365 92.4989 44.083 92.7065C44.1296 92.9106 44.1707 93.1165 44.2065 93.3242C44.2459 93.5283 44.271 93.6984 44.2817 93.8345H44.3247C44.339 93.7127 44.3641 93.548 44.3999 93.3403C44.4393 93.1291 44.484 92.9053 44.5342 92.6689C44.5843 92.429 44.6362 92.207 44.6899 92.0029L45.4795 89.0488H46.7363L45.0605 94.9946H43.6479ZM50.0879 88.9414C50.8398 88.9414 51.4074 89.1079 51.7905 89.4409C52.1772 89.7739 52.3706 90.2931 52.3706 90.9985V95H51.4736L51.2319 94.1567H51.189C51.0207 94.3716 50.847 94.5488 50.668 94.6885C50.4889 94.8281 50.2812 94.932 50.0449 95C49.8122 95.0716 49.5275 95.1074 49.1909 95.1074C48.8364 95.1074 48.5195 95.043 48.2402 94.9141C47.9609 94.7816 47.7407 94.5811 47.5796 94.3125C47.4185 94.0439 47.3379 93.7038 47.3379 93.292C47.3379 92.6797 47.5653 92.2196 48.02 91.9116C48.4784 91.6037 49.1694 91.4336 50.0933 91.4014L51.1245 91.3638V91.0522C51.1245 90.6405 51.0278 90.3468 50.8345 90.1714C50.6447 89.9959 50.3761 89.9082 50.0288 89.9082C49.7316 89.9082 49.4434 89.9512 49.1641 90.0371C48.8848 90.123 48.6126 90.2287 48.3477 90.354L47.9395 89.4624C48.2295 89.3084 48.5589 89.1831 48.9277 89.0864C49.3001 88.9897 49.6868 88.9414 50.0879 88.9414ZM51.1191 92.1587L50.3511 92.1855C49.7209 92.207 49.2786 92.3145 49.0244 92.5078C48.7702 92.7012 48.6431 92.9661 48.6431 93.3027C48.6431 93.5964 48.7308 93.8112 48.9062 93.9473C49.0817 94.0798 49.3127 94.146 49.5991 94.146C50.036 94.146 50.3976 94.0225 50.6841 93.7754C50.9741 93.5247 51.1191 93.1577 51.1191 92.6743V92.1587ZM57.1509 88.9414C57.2511 88.9414 57.3604 88.9468 57.4785 88.9575C57.5967 88.9683 57.6987 88.9826 57.7847 89.0005L57.6665 90.1821C57.5913 90.1606 57.4982 90.1445 57.3872 90.1338C57.2798 90.123 57.1831 90.1177 57.0972 90.1177C56.8716 90.1177 56.6567 90.1553 56.4526 90.2305C56.2485 90.3021 56.0677 90.4131 55.9102 90.5635C55.7526 90.7103 55.6291 90.8947 55.5396 91.1167C55.45 91.3387 55.4053 91.5965 55.4053 91.8901V95H54.1377V89.0542H55.126L55.2979 90.1016H55.3569C55.4751 89.8903 55.6219 89.6969 55.7974 89.5215C55.9728 89.346 56.1733 89.2064 56.3989 89.1025C56.6281 88.9951 56.8787 88.9414 57.1509 88.9414ZM60.8838 95.1074C60.1748 95.1074 59.6055 94.8496 59.1758 94.334C58.7497 93.8148 58.5366 93.0503 58.5366 92.0405C58.5366 91.02 58.7533 90.2484 59.1865 89.7256C59.6234 89.2028 60.1981 88.9414 60.9106 88.9414C61.2114 88.9414 61.4746 88.9826 61.7002 89.0649C61.9258 89.1437 62.1191 89.2511 62.2803 89.3872C62.445 89.5233 62.5846 89.6755 62.6992 89.8438H62.7583C62.7404 89.7327 62.7189 89.5734 62.6938 89.3657C62.6724 89.1545 62.6616 88.9593 62.6616 88.7803V86.6426H63.9292V95H62.9409L62.7153 94.189H62.6616C62.5542 94.3608 62.4181 94.5166 62.2534 94.6562C62.0923 94.7923 61.8989 94.9015 61.6733 94.9839C61.4513 95.0662 61.1882 95.1074 60.8838 95.1074ZM61.2383 94.0815C61.779 94.0815 62.1603 93.9258 62.3823 93.6143C62.6043 93.3027 62.7189 92.8354 62.7261 92.2124V92.0459C62.7261 91.3799 62.6187 90.8696 62.4038 90.5151C62.189 90.1571 61.7969 89.978 61.2275 89.978C60.7728 89.978 60.4255 90.1624 60.1855 90.5312C59.9492 90.8965 59.8311 91.4067 59.8311 92.062C59.8311 92.7173 59.9492 93.2186 60.1855 93.5659C60.4255 93.9097 60.7764 94.0815 61.2383 94.0815ZM69.7354 93.3027C69.7354 93.693 69.6405 94.0225 69.4507 94.291C69.2609 94.5596 68.9834 94.7637 68.6182 94.9033C68.2565 95.0394 67.8125 95.1074 67.2861 95.1074C66.8708 95.1074 66.5127 95.077 66.2119 95.0161C65.9147 94.9588 65.6336 94.8693 65.3687 94.7476V93.6572C65.6515 93.7897 65.9684 93.9043 66.3193 94.001C66.6738 94.0977 67.0086 94.146 67.3237 94.146C67.7391 94.146 68.0381 94.0815 68.2207 93.9526C68.4033 93.8201 68.4946 93.6447 68.4946 93.4263C68.4946 93.2974 68.457 93.1828 68.3818 93.0825C68.3102 92.9787 68.1742 92.873 67.9736 92.7656C67.7767 92.6546 67.4867 92.5221 67.1035 92.3682C66.7275 92.2178 66.4106 92.0674 66.1528 91.917C65.895 91.7666 65.6999 91.5858 65.5674 91.3745C65.4349 91.1597 65.3687 90.8857 65.3687 90.5527C65.3687 90.0264 65.5763 89.6271 65.9917 89.355C66.4106 89.0793 66.9639 88.9414 67.6514 88.9414C68.0166 88.9414 68.3604 88.979 68.6826 89.0542C69.0085 89.1258 69.3271 89.2314 69.6387 89.3711L69.2412 90.3218C68.9727 90.2036 68.7023 90.1069 68.4302 90.0317C68.1616 89.953 67.8877 89.9136 67.6084 89.9136C67.2826 89.9136 67.0337 89.9637 66.8618 90.064C66.6935 90.1642 66.6094 90.3075 66.6094 90.4937C66.6094 90.6333 66.6506 90.7515 66.7329 90.8481C66.8153 90.9448 66.9567 91.0415 67.1572 91.1382C67.3613 91.2349 67.6442 91.3548 68.0059 91.498C68.3604 91.6341 68.6665 91.7773 68.9243 91.9277C69.1857 92.0745 69.3862 92.2554 69.5259 92.4702C69.6655 92.6851 69.7354 92.9626 69.7354 93.3027ZM76.9272 90.0156H75.4824V95H74.2202V90.0156H73.248V89.4087L74.2202 89.0381V88.6245C74.2202 88.1196 74.299 87.7186 74.4565 87.4214C74.6177 87.1242 74.8468 86.9111 75.144 86.7822C75.4448 86.6497 75.8029 86.5835 76.2183 86.5835C76.4904 86.5835 76.7393 86.6068 76.9648 86.6533C77.1904 86.6963 77.3802 86.7464 77.5342 86.8037L77.2065 87.7598C77.0848 87.7204 76.9487 87.6846 76.7983 87.6523C76.6479 87.6165 76.4868 87.5986 76.3149 87.5986C76.0285 87.5986 75.8172 87.6882 75.6812 87.8672C75.5487 88.0462 75.4824 88.3076 75.4824 88.6514V89.0542H76.9272V90.0156ZM83.2061 92.0137C83.2061 92.5078 83.1416 92.9465 83.0127 93.3296C82.8838 93.7127 82.6958 94.0368 82.4487 94.3018C82.2017 94.5632 81.9045 94.7637 81.5571 94.9033C81.2098 95.0394 80.8177 95.1074 80.3809 95.1074C79.9727 95.1074 79.5985 95.0394 79.2583 94.9033C78.9181 94.7637 78.6227 94.5632 78.3721 94.3018C78.125 94.0368 77.9334 93.7127 77.7974 93.3296C77.6613 92.9465 77.5933 92.5078 77.5933 92.0137C77.5933 91.3584 77.7061 90.8034 77.9316 90.3486C78.1608 89.8903 78.4867 89.5412 78.9092 89.3013C79.3317 89.0614 79.8348 88.9414 80.4185 88.9414C80.9663 88.9414 81.4497 89.0614 81.8687 89.3013C82.2876 89.5412 82.6152 89.8903 82.8516 90.3486C83.0879 90.807 83.2061 91.362 83.2061 92.0137ZM78.8931 92.0137C78.8931 92.4469 78.945 92.8175 79.0488 93.1255C79.1562 93.4334 79.321 93.6698 79.543 93.8345C79.765 93.9956 80.0514 94.0762 80.4023 94.0762C80.7533 94.0762 81.0397 93.9956 81.2617 93.8345C81.4837 93.6698 81.6466 93.4334 81.7505 93.1255C81.8543 92.8175 81.9062 92.4469 81.9062 92.0137C81.9062 91.5804 81.8543 91.2134 81.7505 90.9126C81.6466 90.6082 81.4837 90.3773 81.2617 90.2197C81.0397 90.0586 80.7515 89.978 80.397 89.978C79.8742 89.978 79.4928 90.1535 79.2529 90.5044C79.013 90.8553 78.8931 91.3584 78.8931 92.0137ZM87.6694 88.9414C87.7697 88.9414 87.8789 88.9468 87.9971 88.9575C88.1152 88.9683 88.2173 88.9826 88.3032 89.0005L88.1851 90.1821C88.1099 90.1606 88.0168 90.1445 87.9058 90.1338C87.7983 90.123 87.7017 90.1177 87.6157 90.1177C87.3901 90.1177 87.1753 90.1553 86.9712 90.2305C86.7671 90.3021 86.5863 90.4131 86.4287 90.5635C86.2712 90.7103 86.1476 90.8947 86.0581 91.1167C85.9686 91.3387 85.9238 91.5965 85.9238 91.8901V95H84.6562V89.0542H85.6445L85.8164 90.1016H85.8755C85.9937 89.8903 86.1405 89.6969 86.3159 89.5215C86.4914 89.346 86.6919 89.2064 86.9175 89.1025C87.1466 88.9951 87.3973 88.9414 87.6694 88.9414ZM94.6304 88.9414C95.1603 88.9414 95.6151 89.0506 95.9946 89.269C96.3742 89.4875 96.666 89.7972 96.8701 90.1982C97.0742 90.5993 97.1763 91.0791 97.1763 91.6377V92.3145H93.207C93.2214 92.891 93.3753 93.335 93.6689 93.6465C93.9661 93.958 94.3815 94.1138 94.915 94.1138C95.2946 94.1138 95.6348 94.078 95.9355 94.0063C96.2399 93.9312 96.5532 93.8219 96.8755 93.6787V94.7046C96.5783 94.8442 96.2757 94.9463 95.9678 95.0107C95.6598 95.0752 95.291 95.1074 94.8613 95.1074C94.2777 95.1074 93.7638 94.9946 93.3198 94.769C92.8794 94.5399 92.5339 94.1997 92.2832 93.7485C92.0361 93.2974 91.9126 92.737 91.9126 92.0674C91.9126 91.4014 92.0254 90.8356 92.251 90.3701C92.4766 89.9046 92.7935 89.5501 93.2017 89.3066C93.6099 89.0632 94.0861 88.9414 94.6304 88.9414ZM94.6304 89.8921C94.2329 89.8921 93.9106 90.021 93.6636 90.2788C93.4201 90.5366 93.2769 90.9144 93.2339 91.4121H95.9409C95.9373 91.1149 95.8872 90.8517 95.7905 90.6226C95.6974 90.3934 95.5542 90.2144 95.3608 90.0854C95.1711 89.9565 94.9276 89.8921 94.6304 89.8921ZM99.9155 91.96L97.9282 89.0542H99.3677L100.727 91.1436L102.091 89.0542H103.525L101.527 91.96L103.627 95H102.182L100.727 92.771L99.2656 95H97.8315L99.9155 91.96ZM107.054 95.1074C106.492 95.1074 106.005 94.9982 105.593 94.7798C105.181 94.5614 104.864 94.2266 104.642 93.7754C104.42 93.3242 104.309 92.7513 104.309 92.0566C104.309 91.3333 104.431 90.7425 104.674 90.2842C104.918 89.8258 105.254 89.4875 105.684 89.269C106.117 89.0506 106.613 88.9414 107.172 88.9414C107.526 88.9414 107.847 88.9772 108.133 89.0488C108.423 89.1169 108.669 89.201 108.869 89.3013L108.493 90.311C108.275 90.2215 108.051 90.1463 107.822 90.0854C107.593 90.0246 107.372 89.9941 107.161 89.9941C106.814 89.9941 106.524 90.0711 106.291 90.2251C106.062 90.3791 105.89 90.6082 105.775 90.9126C105.664 91.217 105.609 91.5947 105.609 92.0459C105.609 92.4827 105.666 92.8516 105.781 93.1523C105.895 93.4495 106.065 93.6751 106.291 93.8291C106.517 93.9795 106.794 94.0547 107.124 94.0547C107.449 94.0547 107.741 94.0153 107.999 93.9365C108.257 93.8577 108.5 93.7557 108.729 93.6304V94.7261C108.504 94.855 108.262 94.9499 108.004 95.0107C107.747 95.0752 107.43 95.1074 107.054 95.1074ZM112.495 88.9414C113.025 88.9414 113.479 89.0506 113.859 89.269C114.238 89.4875 114.53 89.7972 114.734 90.1982C114.938 90.5993 115.041 91.0791 115.041 91.6377V92.3145H111.071C111.086 92.891 111.24 93.335 111.533 93.6465C111.83 93.958 112.246 94.1138 112.779 94.1138C113.159 94.1138 113.499 94.078 113.8 94.0063C114.104 93.9312 114.417 93.8219 114.74 93.6787V94.7046C114.443 94.8442 114.14 94.9463 113.832 95.0107C113.524 95.0752 113.155 95.1074 112.726 95.1074C112.142 95.1074 111.628 94.9946 111.184 94.769C110.744 94.5399 110.398 94.1997 110.147 93.7485C109.9 93.2974 109.777 92.737 109.777 92.0674C109.777 91.4014 109.89 90.8356 110.115 90.3701C110.341 89.9046 110.658 89.5501 111.066 89.3066C111.474 89.0632 111.95 88.9414 112.495 88.9414ZM112.495 89.8921C112.097 89.8921 111.775 90.021 111.528 90.2788C111.284 90.5366 111.141 90.9144 111.098 91.4121H113.805C113.802 91.1149 113.751 90.8517 113.655 90.6226C113.562 90.3934 113.418 90.2144 113.225 90.0854C113.035 89.9565 112.792 89.8921 112.495 89.8921ZM117.731 95H116.464V86.6426H117.731V95ZM120.804 95H119.536V86.6426H120.804V95ZM124.977 88.9414C125.507 88.9414 125.962 89.0506 126.341 89.269C126.721 89.4875 127.013 89.7972 127.217 90.1982C127.421 90.5993 127.523 91.0791 127.523 91.6377V92.3145H123.554C123.568 92.891 123.722 93.335 124.016 93.6465C124.313 93.958 124.728 94.1138 125.262 94.1138C125.641 94.1138 125.981 94.078 126.282 94.0063C126.587 93.9312 126.9 93.8219 127.222 93.6787V94.7046C126.925 94.8442 126.622 94.9463 126.314 95.0107C126.007 95.0752 125.638 95.1074 125.208 95.1074C124.624 95.1074 124.111 94.9946 123.667 94.769C123.226 94.5399 122.881 94.1997 122.63 93.7485C122.383 93.2974 122.259 92.737 122.259 92.0674C122.259 91.4014 122.372 90.8356 122.598 90.3701C122.823 89.9046 123.14 89.5501 123.548 89.3066C123.957 89.0632 124.433 88.9414 124.977 88.9414ZM124.977 89.8921C124.58 89.8921 124.257 90.021 124.01 90.2788C123.767 90.5366 123.624 90.9144 123.581 91.4121H126.288C126.284 91.1149 126.234 90.8517 126.137 90.6226C126.044 90.3934 125.901 90.2144 125.708 90.0854C125.518 89.9565 125.274 89.8921 124.977 89.8921ZM132.045 88.9414C132.715 88.9414 133.236 89.1151 133.608 89.4624C133.984 89.8062 134.172 90.3594 134.172 91.1221V95H132.91V91.3584C132.91 90.8965 132.815 90.5509 132.625 90.3218C132.436 90.089 132.142 89.9727 131.745 89.9727C131.168 89.9727 130.767 90.1499 130.542 90.5044C130.319 90.8589 130.208 91.3727 130.208 92.0459V95H128.946V89.0542H129.929L130.106 89.8599H130.176C130.305 89.6522 130.465 89.4821 130.654 89.3496C130.848 89.2135 131.062 89.1115 131.299 89.0435C131.539 88.9754 131.788 88.9414 132.045 88.9414ZM138.152 94.0869C138.317 94.0869 138.48 94.0726 138.641 94.0439C138.802 94.0117 138.949 93.9741 139.082 93.9312V94.8872C138.942 94.9481 138.761 95 138.539 95.043C138.317 95.0859 138.086 95.1074 137.846 95.1074C137.51 95.1074 137.207 95.0519 136.938 94.9409C136.67 94.8263 136.457 94.6312 136.299 94.3555C136.142 94.0798 136.063 93.6984 136.063 93.2114V90.0156H135.252V89.4517L136.122 89.0059L136.536 87.7329H137.331V89.0542H139.033V90.0156H137.331V93.1953C137.331 93.4961 137.406 93.7199 137.556 93.8667C137.707 94.0135 137.905 94.0869 138.152 94.0869ZM71.2983 108.303C71.2983 108.693 71.2035 109.022 71.0137 109.291C70.8239 109.56 70.5464 109.764 70.1812 109.903C69.8195 110.039 69.3755 110.107 68.8491 110.107C68.4338 110.107 68.0757 110.077 67.7749 110.016C67.4777 109.959 67.1966 109.869 66.9316 109.748V108.657C67.2145 108.79 67.5314 108.904 67.8823 109.001C68.2368 109.098 68.5716 109.146 68.8867 109.146C69.3021 109.146 69.6011 109.082 69.7837 108.953C69.9663 108.82 70.0576 108.645 70.0576 108.426C70.0576 108.297 70.02 108.183 69.9448 108.083C69.8732 107.979 69.7371 107.873 69.5366 107.766C69.3397 107.655 69.0496 107.522 68.6665 107.368C68.2905 107.218 67.9736 107.067 67.7158 106.917C67.458 106.767 67.2629 106.586 67.1304 106.375C66.9979 106.16 66.9316 105.886 66.9316 105.553C66.9316 105.026 67.1393 104.627 67.5547 104.355C67.9736 104.079 68.5269 103.941 69.2144 103.941C69.5796 103.941 69.9233 103.979 70.2456 104.054C70.5715 104.126 70.8901 104.231 71.2017 104.371L70.8042 105.322C70.5356 105.204 70.2653 105.107 69.9932 105.032C69.7246 104.953 69.4507 104.914 69.1714 104.914C68.8455 104.914 68.5967 104.964 68.4248 105.064C68.2565 105.164 68.1724 105.307 68.1724 105.494C68.1724 105.633 68.2135 105.751 68.2959 105.848C68.3783 105.945 68.5197 106.042 68.7202 106.138C68.9243 106.235 69.2072 106.355 69.5688 106.498C69.9233 106.634 70.2295 106.777 70.4873 106.928C70.7487 107.075 70.9492 107.255 71.0889 107.47C71.2285 107.685 71.2983 107.963 71.2983 108.303ZM75.0312 103.941C75.5612 103.941 76.016 104.051 76.3955 104.269C76.7751 104.487 77.0669 104.797 77.271 105.198C77.4751 105.599 77.5771 106.079 77.5771 106.638V107.314H73.6079C73.6222 107.891 73.7762 108.335 74.0698 108.646C74.367 108.958 74.7824 109.114 75.3159 109.114C75.6955 109.114 76.0356 109.078 76.3364 109.006C76.6408 108.931 76.9541 108.822 77.2764 108.679V109.705C76.9792 109.844 76.6766 109.946 76.3687 110.011C76.0607 110.075 75.6919 110.107 75.2622 110.107C74.6785 110.107 74.1647 109.995 73.7207 109.769C73.2803 109.54 72.9347 109.2 72.6841 108.749C72.437 108.297 72.3135 107.737 72.3135 107.067C72.3135 106.401 72.4263 105.836 72.6519 105.37C72.8774 104.905 73.1943 104.55 73.6025 104.307C74.0107 104.063 74.487 103.941 75.0312 103.941ZM75.0312 104.892C74.6338 104.892 74.3115 105.021 74.0645 105.279C73.821 105.537 73.6777 105.914 73.6348 106.412H76.3418C76.3382 106.115 76.2881 105.852 76.1914 105.623C76.0983 105.393 75.9551 105.214 75.7617 105.085C75.5719 104.957 75.3285 104.892 75.0312 104.892ZM82.0137 103.941C82.1139 103.941 82.2231 103.947 82.3413 103.958C82.4595 103.968 82.5615 103.983 82.6475 104L82.5293 105.182C82.4541 105.161 82.361 105.145 82.25 105.134C82.1426 105.123 82.0459 105.118 81.96 105.118C81.7344 105.118 81.5195 105.155 81.3154 105.23C81.1113 105.302 80.9305 105.413 80.7729 105.563C80.6154 105.71 80.4919 105.895 80.4023 106.117C80.3128 106.339 80.2681 106.597 80.2681 106.89V110L79.0005 110V104.054L79.9888 104.054L80.1606 105.102H80.2197C80.3379 104.89 80.4847 104.697 80.6602 104.521C80.8356 104.346 81.0361 104.206 81.2617 104.103C81.4909 103.995 81.7415 103.941 82.0137 103.941ZM85.1074 110L82.8462 104.054H84.1836L85.4082 107.545C85.487 107.767 85.5586 108.007 85.623 108.265C85.6875 108.523 85.7323 108.74 85.7573 108.915H85.8003C85.8254 108.732 85.8737 108.514 85.9453 108.26C86.0169 108.002 86.0903 107.764 86.1655 107.545L87.3901 104.054H88.7222L86.4609 110H85.1074ZM90.8867 104.054V110H89.6245V104.054H90.8867ZM90.2637 101.777C90.457 101.777 90.6235 101.829 90.7632 101.933C90.9064 102.036 90.978 102.215 90.978 102.47C90.978 102.72 90.9064 102.899 90.7632 103.007C90.6235 103.111 90.457 103.163 90.2637 103.163C90.0632 103.163 89.8931 103.111 89.7534 103.007C89.6174 102.899 89.5493 102.72 89.5493 102.47C89.5493 102.215 89.6174 102.036 89.7534 101.933C89.8931 101.829 90.0632 101.777 90.2637 101.777ZM95.0923 110.107C94.5301 110.107 94.0431 109.998 93.6313 109.78C93.2196 109.561 92.9027 109.227 92.6807 108.775C92.4587 108.324 92.3477 107.751 92.3477 107.057C92.3477 106.333 92.4694 105.743 92.7129 105.284C92.9564 104.826 93.293 104.487 93.7227 104.269C94.1559 104.051 94.6519 103.941 95.2104 103.941C95.5649 103.941 95.8854 103.977 96.1719 104.049C96.4619 104.117 96.7072 104.201 96.9077 104.301L96.5317 105.311C96.3133 105.222 96.0895 105.146 95.8604 105.085C95.6312 105.025 95.411 104.994 95.1997 104.994C94.8524 104.994 94.5623 105.071 94.3296 105.225C94.1004 105.379 93.9285 105.608 93.814 105.913C93.703 106.217 93.6475 106.595 93.6475 107.046C93.6475 107.483 93.7048 107.852 93.8193 108.152C93.9339 108.45 94.104 108.675 94.3296 108.829C94.5552 108.979 94.8327 109.055 95.1621 109.055C95.488 109.055 95.7798 109.015 96.0376 108.937C96.2954 108.858 96.5389 108.756 96.7681 108.63V109.726C96.5425 109.855 96.3008 109.95 96.043 110.011C95.7852 110.075 95.4683 110.107 95.0923 110.107ZM100.533 103.941C101.063 103.941 101.518 104.051 101.897 104.269C102.277 104.487 102.569 104.797 102.773 105.198C102.977 105.599 103.079 106.079 103.079 106.638V107.314H99.1099C99.1242 107.891 99.2782 108.335 99.5718 108.646C99.869 108.958 100.284 109.114 100.818 109.114C101.197 109.114 101.538 109.078 101.838 109.006C102.143 108.931 102.456 108.822 102.778 108.679V109.705C102.481 109.844 102.179 109.946 101.871 110.011C101.563 110.075 101.194 110.107 100.764 110.107C100.181 110.107 99.6667 109.995 99.2227 109.769C98.7822 109.54 98.4367 109.2 98.186 108.749C97.939 108.297 97.8154 107.737 97.8154 107.067C97.8154 106.401 97.9282 105.836 98.1538 105.37C98.3794 104.905 98.6963 104.55 99.1045 104.307C99.5127 104.063 99.9889 103.941 100.533 103.941ZM100.533 104.892C100.136 104.892 99.8135 105.021 99.5664 105.279C99.3229 105.537 99.1797 105.914 99.1367 106.412H101.844C101.84 106.115 101.79 105.852 101.693 105.623C101.6 105.393 101.457 105.214 101.264 105.085C101.074 104.957 100.83 104.892 100.533 104.892Z" fill="#303030"/>
<path id="+" d="M112.18 37.6641H115.305V39.0547H112.18V42.2109H110.789V39.0547H107.672V37.6641H110.789V34.4766H112.18V37.6641Z" fill="#FF6C00"/>
</g>
</g>
</svg>
