<svg width="170" height="133" viewBox="0 0 170 133" fill="none" xmlns="http://www.w3.org/2000/svg">
<g id="Feature 4">
<rect id="Bg" width="170" height="133" fill="#F7F7F7"/>
<g id="text">
<path id="100" d="M56.6969 65H50.36V47.6504C50.36 47.1719 50.3668 46.584 50.3805 45.8867C50.3941 45.1758 50.4146 44.4512 50.442 43.7129C50.4693 42.9609 50.4967 42.2842 50.524 41.6826C50.3736 41.8604 50.066 42.168 49.6012 42.6055C49.15 43.0293 48.7262 43.4121 48.3297 43.7539L44.8844 46.5225L41.8287 42.708L51.4879 35.0176H56.6969V65ZM87.959 50.0088C87.959 52.4287 87.7676 54.5889 87.3848 56.4893C87.0156 58.3896 86.4141 60.0029 85.5801 61.3291C84.7598 62.6553 83.6797 63.667 82.3398 64.3643C81 65.0615 79.373 65.4102 77.459 65.4102C75.0527 65.4102 73.0772 64.8018 71.5322 63.585C69.9873 62.3545 68.8457 60.5908 68.1074 58.2939C67.3691 55.9834 67 53.2217 67 50.0088C67 46.7686 67.335 44 68.0049 41.7031C68.6885 39.3926 69.7959 37.6221 71.3272 36.3916C72.8584 35.1611 74.9023 34.5459 77.459 34.5459C79.8516 34.5459 81.8203 35.1611 83.3652 36.3916C84.9238 37.6084 86.0791 39.3721 86.8311 41.6826C87.583 43.9795 87.959 46.7549 87.959 50.0088ZM73.2959 50.0088C73.2959 52.292 73.4189 54.1992 73.665 55.7305C73.9248 57.248 74.3555 58.3896 74.957 59.1553C75.5586 59.9209 76.3926 60.3037 77.459 60.3037C78.5117 60.3037 79.3389 59.9277 79.9404 59.1758C80.5557 58.4102 80.9932 57.2686 81.2529 55.751C81.5127 54.2197 81.6426 52.3057 81.6426 50.0088C81.6426 47.7256 81.5127 45.8184 81.2529 44.2871C80.9932 42.7559 80.5557 41.6074 79.9404 40.8418C79.3389 40.0625 78.5117 39.6729 77.459 39.6729C76.3926 39.6729 75.5586 40.0625 74.957 40.8418C74.3555 41.6074 73.9248 42.7559 73.665 44.2871C73.4189 45.8184 73.2959 47.7256 73.2959 50.0088ZM114.094 50.0088C114.094 52.4287 113.903 54.5889 113.52 56.4893C113.151 58.3896 112.549 60.0029 111.715 61.3291C110.895 62.6553 109.815 63.667 108.475 64.3643C107.135 65.0615 105.508 65.4102 103.594 65.4102C101.188 65.4102 99.2123 64.8018 97.6674 63.585C96.1225 62.3545 94.9809 60.5908 94.2426 58.2939C93.5043 55.9834 93.1352 53.2217 93.1352 50.0088C93.1352 46.7686 93.4701 44 94.14 41.7031C94.8236 39.3926 95.9311 37.6221 97.4623 36.3916C98.9936 35.1611 101.038 34.5459 103.594 34.5459C105.987 34.5459 107.955 35.1611 109.5 36.3916C111.059 37.6084 112.214 39.3721 112.966 41.6826C113.718 43.9795 114.094 46.7549 114.094 50.0088ZM99.4311 50.0088C99.4311 52.292 99.5541 54.1992 99.8002 55.7305C100.06 57.248 100.491 58.3896 101.092 59.1553C101.694 59.9209 102.528 60.3037 103.594 60.3037C104.647 60.3037 105.474 59.9277 106.076 59.1758C106.691 58.4102 107.128 57.2686 107.388 55.751C107.648 54.2197 107.778 52.3057 107.778 50.0088C107.778 47.7256 107.648 45.8184 107.388 44.2871C107.128 42.7559 106.691 41.6074 106.076 40.8418C105.474 40.0625 104.647 39.6729 103.594 39.6729C102.528 39.6729 101.694 40.0625 101.092 40.8418C100.491 41.6074 100.06 42.7559 99.8002 44.2871C99.5541 45.8184 99.4311 47.7256 99.4311 50.0088Z" fill="#303030"/>
<path id="+" d="M126.18 37.6641H129.305V39.0547H126.18V42.2109H124.789V39.0547H121.672V37.6641H124.789V34.4766H126.18V37.6641Z" fill="#FF6C00"/>
<path id="Gifts for regular customers" d="M47.0532 90.7354H49.9858V94.6777C49.5741 94.8138 49.1479 94.9194 48.7075 94.9946C48.2671 95.0698 47.7729 95.1074 47.2251 95.1074C46.4266 95.1074 45.7498 94.9499 45.1948 94.6348C44.6434 94.3161 44.2244 93.856 43.938 93.2544C43.6515 92.6493 43.5083 91.9206 43.5083 91.0684C43.5083 90.2484 43.6676 89.5376 43.9863 88.936C44.305 88.3309 44.7687 87.8636 45.3774 87.5342C45.9862 87.2012 46.7238 87.0347 47.5903 87.0347C48.0164 87.0347 48.4282 87.0776 48.8257 87.1636C49.2267 87.2459 49.5938 87.3605 49.9268 87.5073L49.4756 88.5708C49.2106 88.4455 48.9134 88.3398 48.584 88.2539C48.2546 88.168 47.9126 88.125 47.5581 88.125C46.9959 88.125 46.5107 88.2467 46.1025 88.4902C45.6979 88.7337 45.3864 89.0775 45.168 89.5215C44.9495 89.9619 44.8403 90.4829 44.8403 91.0845C44.8403 91.6681 44.9281 92.1802 45.1035 92.6206C45.279 93.061 45.5529 93.4048 45.9253 93.6519C46.3013 93.8953 46.7865 94.0171 47.3809 94.0171C47.6781 94.0171 47.9305 94.001 48.1382 93.9688C48.3459 93.9365 48.5374 93.9007 48.7129 93.8613V91.8364H47.0532V90.7354ZM52.999 89.0542V95H51.7368V89.0542H52.999ZM52.376 86.7769C52.5693 86.7769 52.7358 86.8288 52.8755 86.9326C53.0187 87.0365 53.0903 87.2155 53.0903 87.4697C53.0903 87.7204 53.0187 87.8994 52.8755 88.0068C52.7358 88.1107 52.5693 88.1626 52.376 88.1626C52.1755 88.1626 52.0054 88.1107 51.8657 88.0068C51.7297 87.8994 51.6616 87.7204 51.6616 87.4697C51.6616 87.2155 51.7297 87.0365 51.8657 86.9326C52.0054 86.8288 52.1755 86.7769 52.376 86.7769ZM57.7793 90.0156H56.3345V95H55.0723V90.0156H54.1001V89.4087L55.0723 89.0381V88.6245C55.0723 88.1196 55.151 87.7186 55.3086 87.4214C55.4697 87.1242 55.6989 86.9111 55.9961 86.7822C56.2969 86.6497 56.6549 86.5835 57.0703 86.5835C57.3424 86.5835 57.5913 86.6068 57.8169 86.6533C58.0425 86.6963 58.2323 86.7464 58.3862 86.8037L58.0586 87.7598C57.9368 87.7204 57.8008 87.6846 57.6504 87.6523C57.5 87.6165 57.3389 87.5986 57.167 87.5986C56.8805 87.5986 56.6693 87.6882 56.5332 87.8672C56.4007 88.0462 56.3345 88.3076 56.3345 88.6514V89.0542H57.7793V90.0156ZM61.0073 94.0869C61.172 94.0869 61.335 94.0726 61.4961 94.0439C61.6572 94.0117 61.804 93.9741 61.9365 93.9312V94.8872C61.7969 94.9481 61.616 95 61.394 95.043C61.172 95.0859 60.9411 95.1074 60.7012 95.1074C60.3646 95.1074 60.062 95.0519 59.7935 94.9409C59.5249 94.8263 59.3118 94.6312 59.1543 94.3555C58.9967 94.0798 58.918 93.6984 58.918 93.2114V90.0156H58.1069V89.4517L58.9771 89.0059L59.3906 87.7329H60.1855V89.0542H61.8882V90.0156H60.1855V93.1953C60.1855 93.4961 60.2607 93.7199 60.4111 93.8667C60.5615 94.0135 60.7603 94.0869 61.0073 94.0869ZM67.1411 93.3027C67.1411 93.693 67.0462 94.0225 66.8564 94.291C66.6667 94.5596 66.3892 94.7637 66.0239 94.9033C65.6623 95.0394 65.2183 95.1074 64.6919 95.1074C64.2765 95.1074 63.9185 95.077 63.6177 95.0161C63.3205 94.9588 63.0394 94.8693 62.7744 94.7476V93.6572C63.0573 93.7897 63.3742 93.9043 63.7251 94.001C64.0796 94.0977 64.4144 94.146 64.7295 94.146C65.1449 94.146 65.4438 94.0815 65.6265 93.9526C65.8091 93.8201 65.9004 93.6447 65.9004 93.4263C65.9004 93.2974 65.8628 93.1828 65.7876 93.0825C65.716 92.9787 65.5799 92.873 65.3794 92.7656C65.1825 92.6546 64.8924 92.5221 64.5093 92.3682C64.1333 92.2178 63.8164 92.0674 63.5586 91.917C63.3008 91.7666 63.1056 91.5858 62.9731 91.3745C62.8407 91.1597 62.7744 90.8857 62.7744 90.5527C62.7744 90.0264 62.9821 89.6271 63.3975 89.355C63.8164 89.0793 64.3696 88.9414 65.0571 88.9414C65.4224 88.9414 65.7661 88.979 66.0884 89.0542C66.4142 89.1258 66.7329 89.2314 67.0444 89.3711L66.647 90.3218C66.3784 90.2036 66.1081 90.1069 65.8359 90.0317C65.5674 89.953 65.2935 89.9136 65.0142 89.9136C64.6883 89.9136 64.4395 89.9637 64.2676 90.064C64.0993 90.1642 64.0151 90.3075 64.0151 90.4937C64.0151 90.6333 64.0563 90.7515 64.1387 90.8481C64.221 90.9448 64.3625 91.0415 64.563 91.1382C64.7671 91.2349 65.05 91.3548 65.4116 91.498C65.7661 91.6341 66.0723 91.7773 66.3301 91.9277C66.5915 92.0745 66.792 92.2554 66.9316 92.4702C67.0713 92.6851 67.1411 92.9626 67.1411 93.3027ZM74.333 90.0156H72.8882V95H71.626V90.0156H70.6538V89.4087L71.626 89.0381V88.6245C71.626 88.1196 71.7048 87.7186 71.8623 87.4214C72.0234 87.1242 72.2526 86.9111 72.5498 86.7822C72.8506 86.6497 73.2087 86.5835 73.624 86.5835C73.8962 86.5835 74.145 86.6068 74.3706 86.6533C74.5962 86.6963 74.786 86.7464 74.9399 86.8037L74.6123 87.7598C74.4906 87.7204 74.3545 87.6846 74.2041 87.6523C74.0537 87.6165 73.8926 87.5986 73.7207 87.5986C73.4342 87.5986 73.223 87.6882 73.0869 87.8672C72.9544 88.0462 72.8882 88.3076 72.8882 88.6514V89.0542H74.333V90.0156ZM80.6118 92.0137C80.6118 92.5078 80.5474 92.9465 80.4185 93.3296C80.2896 93.7127 80.1016 94.0368 79.8545 94.3018C79.6074 94.5632 79.3102 94.7637 78.9629 94.9033C78.6156 95.0394 78.2235 95.1074 77.7866 95.1074C77.3784 95.1074 77.0042 95.0394 76.6641 94.9033C76.3239 94.7637 76.0285 94.5632 75.7778 94.3018C75.5308 94.0368 75.3392 93.7127 75.2031 93.3296C75.0671 92.9465 74.999 92.5078 74.999 92.0137C74.999 91.3584 75.1118 90.8034 75.3374 90.3486C75.5666 89.8903 75.8924 89.5412 76.3149 89.3013C76.7375 89.0614 77.2406 88.9414 77.8242 88.9414C78.3721 88.9414 78.8555 89.0614 79.2744 89.3013C79.6934 89.5412 80.021 89.8903 80.2573 90.3486C80.4937 90.807 80.6118 91.362 80.6118 92.0137ZM76.2988 92.0137C76.2988 92.4469 76.3507 92.8175 76.4546 93.1255C76.562 93.4334 76.7267 93.6698 76.9487 93.8345C77.1707 93.9956 77.4572 94.0762 77.8081 94.0762C78.159 94.0762 78.4455 93.9956 78.6675 93.8345C78.8895 93.6698 79.0524 93.4334 79.1562 93.1255C79.2601 92.8175 79.312 92.4469 79.312 92.0137C79.312 91.5804 79.2601 91.2134 79.1562 90.9126C79.0524 90.6082 78.8895 90.3773 78.6675 90.2197C78.4455 90.0586 78.1572 89.978 77.8027 89.978C77.2799 89.978 76.8986 90.1535 76.6587 90.5044C76.4188 90.8553 76.2988 91.3584 76.2988 92.0137ZM85.0752 88.9414C85.1755 88.9414 85.2847 88.9468 85.4028 88.9575C85.521 88.9683 85.623 88.9826 85.709 89.0005L85.5908 90.1821C85.5156 90.1606 85.4225 90.1445 85.3115 90.1338C85.2041 90.123 85.1074 90.1177 85.0215 90.1177C84.7959 90.1177 84.5811 90.1553 84.377 90.2305C84.1729 90.3021 83.992 90.4131 83.8345 90.5635C83.6769 90.7103 83.5534 90.8947 83.4639 91.1167C83.3743 91.3387 83.3296 91.5965 83.3296 91.8901V95H82.062V89.0542H83.0503L83.2222 90.1016H83.2812C83.3994 89.8903 83.5462 89.6969 83.7217 89.5215C83.8971 89.346 84.0977 89.2064 84.3232 89.1025C84.5524 88.9951 84.8031 88.9414 85.0752 88.9414ZM92.6807 88.9414C92.7809 88.9414 92.8901 88.9468 93.0083 88.9575C93.1265 88.9683 93.2285 88.9826 93.3145 89.0005L93.1963 90.1821C93.1211 90.1606 93.028 90.1445 92.917 90.1338C92.8096 90.123 92.7129 90.1177 92.627 90.1177C92.4014 90.1177 92.1865 90.1553 91.9824 90.2305C91.7783 90.3021 91.5975 90.4131 91.4399 90.5635C91.2824 90.7103 91.1589 90.8947 91.0693 91.1167C90.9798 91.3387 90.9351 91.5965 90.9351 91.8901V95H89.6675V89.0542H90.6558L90.8276 90.1016H90.8867C91.0049 89.8903 91.1517 89.6969 91.3271 89.5215C91.5026 89.346 91.7031 89.2064 91.9287 89.1025C92.1579 88.9951 92.4085 88.9414 92.6807 88.9414ZM96.7842 88.9414C97.3141 88.9414 97.7689 89.0506 98.1484 89.269C98.528 89.4875 98.8198 89.7972 99.0239 90.1982C99.228 90.5993 99.3301 91.0791 99.3301 91.6377V92.3145H95.3608C95.3752 92.891 95.5291 93.335 95.8228 93.6465C96.12 93.958 96.5353 94.1138 97.0688 94.1138C97.4484 94.1138 97.7886 94.078 98.0894 94.0063C98.3937 93.9312 98.707 93.8219 99.0293 93.6787V94.7046C98.7321 94.8442 98.4295 94.9463 98.1216 95.0107C97.8136 95.0752 97.4448 95.1074 97.0151 95.1074C96.4315 95.1074 95.9176 94.9946 95.4736 94.769C95.0332 94.5399 94.6877 94.1997 94.437 93.7485C94.1899 93.2974 94.0664 92.737 94.0664 92.0674C94.0664 91.4014 94.1792 90.8356 94.4048 90.3701C94.6304 89.9046 94.9473 89.5501 95.3555 89.3066C95.7637 89.0632 96.2399 88.9414 96.7842 88.9414ZM96.7842 89.8921C96.3867 89.8921 96.0645 90.021 95.8174 90.2788C95.5739 90.5366 95.4307 90.9144 95.3877 91.4121H98.0947C98.0911 91.1149 98.041 90.8517 97.9443 90.6226C97.8512 90.3934 97.708 90.2144 97.5146 90.0854C97.3249 89.9565 97.0814 89.8921 96.7842 89.8921ZM102.451 97.6426C101.645 97.6426 101.027 97.4976 100.598 97.2075C100.168 96.9175 99.9531 96.5111 99.9531 95.9883C99.9531 95.623 100.068 95.3133 100.297 95.0591C100.526 94.8084 100.854 94.6348 101.28 94.5381C101.119 94.4665 100.979 94.3555 100.861 94.2051C100.746 94.0511 100.689 93.881 100.689 93.6948C100.689 93.4728 100.752 93.283 100.877 93.1255C101.002 92.9679 101.19 92.8158 101.441 92.6689C101.129 92.5365 100.879 92.3216 100.689 92.0244C100.503 91.7236 100.41 91.3709 100.41 90.9663C100.41 90.5366 100.501 90.1714 100.684 89.8706C100.866 89.5662 101.133 89.3353 101.484 89.1777C101.835 89.0166 102.259 88.936 102.757 88.936C102.864 88.936 102.981 88.9432 103.106 88.9575C103.235 88.9683 103.353 88.9826 103.46 89.0005C103.571 89.0148 103.656 89.0309 103.713 89.0488H105.77V89.7524L104.76 89.9404C104.857 90.0765 104.934 90.2323 104.991 90.4077C105.049 90.5796 105.077 90.7676 105.077 90.9717C105.077 91.5876 104.864 92.0728 104.438 92.4272C104.015 92.7782 103.432 92.9536 102.687 92.9536C102.508 92.9465 102.334 92.9321 102.166 92.9106C102.037 92.9894 101.939 93.0771 101.871 93.1738C101.803 93.2669 101.769 93.3726 101.769 93.4907C101.769 93.5874 101.803 93.6662 101.871 93.7271C101.939 93.7843 102.039 93.8273 102.171 93.856C102.307 93.8846 102.472 93.8989 102.666 93.8989H103.691C104.343 93.8989 104.841 94.0368 105.185 94.3125C105.528 94.5882 105.7 94.9928 105.7 95.5264C105.7 96.2031 105.421 96.7241 104.862 97.0894C104.304 97.4582 103.5 97.6426 102.451 97.6426ZM102.499 96.7563C102.939 96.7563 103.31 96.7134 103.611 96.6274C103.912 96.5415 104.139 96.418 104.293 96.2568C104.447 96.0993 104.524 95.9113 104.524 95.6929C104.524 95.4995 104.476 95.3509 104.379 95.2471C104.282 95.1432 104.137 95.0716 103.944 95.0322C103.75 94.9928 103.511 94.9731 103.224 94.9731H102.29C102.057 94.9731 101.851 95.009 101.672 95.0806C101.493 95.1558 101.353 95.2632 101.253 95.4028C101.156 95.5425 101.108 95.7108 101.108 95.9077C101.108 96.1799 101.228 96.3893 101.468 96.5361C101.711 96.6829 102.055 96.7563 102.499 96.7563ZM102.746 92.1265C103.115 92.1265 103.389 92.0262 103.568 91.8257C103.747 91.6216 103.836 91.3351 103.836 90.9663C103.836 90.5653 103.743 90.2645 103.557 90.064C103.375 89.8634 103.102 89.7632 102.741 89.7632C102.386 89.7632 102.116 89.8652 101.93 90.0693C101.747 90.2734 101.656 90.576 101.656 90.9771C101.656 91.3387 101.747 91.6216 101.93 91.8257C102.116 92.0262 102.388 92.1265 102.746 92.1265ZM112.038 89.0542V95H111.044L110.873 94.1997H110.803C110.677 94.4038 110.518 94.5739 110.325 94.71C110.131 94.8424 109.917 94.9409 109.68 95.0054C109.444 95.0734 109.195 95.1074 108.934 95.1074C108.486 95.1074 108.103 95.0322 107.784 94.8818C107.469 94.7279 107.227 94.4915 107.059 94.1729C106.891 93.8542 106.807 93.4424 106.807 92.9375V89.0542H108.074V92.7012C108.074 93.1631 108.167 93.5086 108.354 93.7378C108.543 93.967 108.837 94.0815 109.234 94.0815C109.618 94.0815 109.922 94.0028 110.147 93.8452C110.373 93.6877 110.532 93.4549 110.625 93.147C110.722 92.839 110.771 92.4613 110.771 92.0137V89.0542H112.038ZM115.116 95H113.848V86.6426H115.116V95ZM119.251 88.9414C120.003 88.9414 120.571 89.1079 120.954 89.4409C121.341 89.7739 121.534 90.2931 121.534 90.9985V95H120.637L120.396 94.1567H120.353C120.184 94.3716 120.011 94.5488 119.832 94.6885C119.653 94.8281 119.445 94.932 119.208 95C118.976 95.0716 118.691 95.1074 118.354 95.1074C118 95.1074 117.683 95.043 117.404 94.9141C117.125 94.7816 116.904 94.5811 116.743 94.3125C116.582 94.0439 116.501 93.7038 116.501 93.292C116.501 92.6797 116.729 92.2196 117.184 91.9116C117.642 91.6037 118.333 91.4336 119.257 91.4014L120.288 91.3638V91.0522C120.288 90.6405 120.191 90.3468 119.998 90.1714C119.808 89.9959 119.54 89.9082 119.192 89.9082C118.895 89.9082 118.607 89.9512 118.328 90.0371C118.048 90.123 117.776 90.2287 117.511 90.354L117.103 89.4624C117.393 89.3084 117.722 89.1831 118.091 89.0864C118.464 88.9897 118.85 88.9414 119.251 88.9414ZM120.283 92.1587L119.515 92.1855C118.884 92.207 118.442 92.3145 118.188 92.5078C117.934 92.7012 117.807 92.9661 117.807 93.3027C117.807 93.5964 117.894 93.8112 118.07 93.9473C118.245 94.0798 118.476 94.146 118.763 94.146C119.2 94.146 119.561 94.0225 119.848 93.7754C120.138 93.5247 120.283 93.1577 120.283 92.6743V92.1587ZM126.314 88.9414C126.415 88.9414 126.524 88.9468 126.642 88.9575C126.76 88.9683 126.862 88.9826 126.948 89.0005L126.83 90.1821C126.755 90.1606 126.662 90.1445 126.551 90.1338C126.443 90.123 126.347 90.1177 126.261 90.1177C126.035 90.1177 125.82 90.1553 125.616 90.2305C125.412 90.3021 125.231 90.4131 125.074 90.5635C124.916 90.7103 124.793 90.8947 124.703 91.1167C124.614 91.3387 124.569 91.5965 124.569 91.8901V95H123.301V89.0542H124.29L124.461 90.1016H124.521C124.639 89.8903 124.785 89.6969 124.961 89.5215C125.136 89.346 125.337 89.2064 125.562 89.1025C125.792 88.9951 126.042 88.9414 126.314 88.9414ZM60.3843 110.107C59.8221 110.107 59.3351 109.998 58.9233 109.78C58.5116 109.561 58.1947 109.227 57.9727 108.775C57.7507 108.324 57.6396 107.751 57.6396 107.057C57.6396 106.333 57.7614 105.743 58.0049 105.284C58.2484 104.826 58.585 104.487 59.0146 104.269C59.4479 104.051 59.9438 103.941 60.5024 103.941C60.8569 103.941 61.1774 103.977 61.4639 104.049C61.7539 104.117 61.9992 104.201 62.1997 104.301L61.8237 105.311C61.6053 105.222 61.3815 105.146 61.1523 105.085C60.9232 105.025 60.703 104.994 60.4917 104.994C60.1444 104.994 59.8543 105.071 59.6216 105.225C59.3924 105.379 59.2205 105.608 59.106 105.913C58.995 106.217 58.9395 106.595 58.9395 107.046C58.9395 107.483 58.9967 107.852 59.1113 108.152C59.2259 108.45 59.396 108.675 59.6216 108.829C59.8472 108.979 60.1247 109.055 60.4541 109.055C60.7799 109.055 61.0718 109.015 61.3296 108.937C61.5874 108.858 61.8309 108.756 62.0601 108.63V109.726C61.8345 109.855 61.5928 109.95 61.335 110.011C61.0771 110.075 60.7603 110.107 60.3843 110.107ZM68.6396 104.054V110H67.646L67.4741 109.2H67.4043C67.279 109.404 67.1196 109.574 66.9263 109.71C66.7329 109.842 66.5181 109.941 66.2817 110.005C66.0454 110.073 65.7965 110.107 65.5352 110.107C65.0876 110.107 64.7044 110.032 64.3857 109.882C64.0706 109.728 63.8289 109.492 63.6606 109.173C63.4924 108.854 63.4082 108.442 63.4082 107.938L63.4082 104.054H64.6758V107.701C64.6758 108.163 64.7689 108.509 64.9551 108.738C65.1449 108.967 65.4385 109.082 65.8359 109.082C66.2191 109.082 66.5234 109.003 66.749 108.845C66.9746 108.688 67.134 108.455 67.2271 108.147C67.3237 107.839 67.3721 107.461 67.3721 107.014V104.054H68.6396ZM74.4458 108.303C74.4458 108.693 74.3509 109.022 74.1611 109.291C73.9714 109.56 73.6938 109.764 73.3286 109.903C72.967 110.039 72.5229 110.107 71.9966 110.107C71.5812 110.107 71.2231 110.077 70.9224 110.016C70.6252 109.959 70.3441 109.869 70.0791 109.748V108.657C70.362 108.79 70.6789 108.904 71.0298 109.001C71.3843 109.098 71.7191 109.146 72.0342 109.146C72.4495 109.146 72.7485 109.082 72.9312 108.953C73.1138 108.82 73.2051 108.645 73.2051 108.426C73.2051 108.297 73.1675 108.183 73.0923 108.083C73.0207 107.979 72.8846 107.873 72.6841 107.766C72.4871 107.655 72.1971 107.522 71.814 107.368C71.438 107.218 71.1211 107.067 70.8633 106.917C70.6055 106.767 70.4103 106.586 70.2778 106.375C70.1453 106.16 70.0791 105.886 70.0791 105.553C70.0791 105.026 70.2868 104.627 70.7021 104.355C71.1211 104.079 71.6743 103.941 72.3618 103.941C72.7271 103.941 73.0708 103.979 73.3931 104.054C73.7189 104.126 74.0376 104.231 74.3491 104.371L73.9517 105.322C73.6831 105.204 73.4128 105.107 73.1406 105.032C72.8721 104.953 72.5981 104.914 72.3188 104.914C71.993 104.914 71.7441 104.964 71.5723 105.064C71.404 105.164 71.3198 105.307 71.3198 105.494C71.3198 105.633 71.361 105.751 71.4434 105.848C71.5257 105.945 71.6672 106.042 71.8677 106.138C72.0718 106.235 72.3547 106.355 72.7163 106.498C73.0708 106.634 73.377 106.777 73.6348 106.928C73.8962 107.075 74.0967 107.255 74.2363 107.47C74.376 107.685 74.4458 107.963 74.4458 108.303ZM78.0229 109.087C78.1877 109.087 78.3506 109.073 78.5117 109.044C78.6729 109.012 78.8197 108.974 78.9521 108.931V109.887C78.8125 109.948 78.6317 110 78.4097 110.043C78.1877 110.086 77.9567 110.107 77.7168 110.107C77.3802 110.107 77.0776 110.052 76.8091 109.941C76.5405 109.826 76.3275 109.631 76.1699 109.355C76.0124 109.08 75.9336 108.698 75.9336 108.211V105.016L75.1226 105.016V104.452L75.9927 104.006L76.4062 102.733H77.2012V104.054H78.9038V105.016H77.2012V108.195C77.2012 108.496 77.2764 108.72 77.4268 108.867C77.5771 109.014 77.7759 109.087 78.0229 109.087ZM85.4243 107.014C85.4243 107.508 85.3599 107.946 85.231 108.33C85.1021 108.713 84.9141 109.037 84.667 109.302C84.4199 109.563 84.1227 109.764 83.7754 109.903C83.4281 110.039 83.036 110.107 82.5991 110.107C82.1909 110.107 81.8167 110.039 81.4766 109.903C81.1364 109.764 80.841 109.563 80.5903 109.302C80.3433 109.037 80.1517 108.713 80.0156 108.33C79.8796 107.946 79.8115 107.508 79.8115 107.014C79.8115 106.358 79.9243 105.803 80.1499 105.349C80.3791 104.89 80.7049 104.541 81.1274 104.301C81.55 104.061 82.0531 103.941 82.6367 103.941C83.1846 103.941 83.668 104.061 84.0869 104.301C84.5059 104.541 84.8335 104.89 85.0698 105.349C85.3062 105.807 85.4243 106.362 85.4243 107.014ZM81.1113 107.014C81.1113 107.447 81.1632 107.818 81.2671 108.125C81.3745 108.433 81.5392 108.67 81.7612 108.834C81.9832 108.996 82.2697 109.076 82.6206 109.076C82.9715 109.076 83.258 108.996 83.48 108.834C83.702 108.67 83.8649 108.433 83.9688 108.125C84.0726 107.818 84.1245 107.447 84.1245 107.014C84.1245 106.58 84.0726 106.213 83.9688 105.913C83.8649 105.608 83.702 105.377 83.48 105.22C83.258 105.059 82.9697 104.978 82.6152 104.978C82.0924 104.978 81.7111 105.153 81.4712 105.504C81.2313 105.855 81.1113 106.358 81.1113 107.014ZM93.5938 103.941C94.2598 103.941 94.7611 104.113 95.0977 104.457C95.4378 104.801 95.6079 105.352 95.6079 106.111V110H94.3457V106.337C94.3457 105.886 94.258 105.546 94.0825 105.316C93.9071 105.087 93.6403 104.973 93.2822 104.973C92.7809 104.973 92.4193 105.134 92.1973 105.456C91.9788 105.775 91.8696 106.238 91.8696 106.847V110H90.6074V106.337C90.6074 106.036 90.568 105.785 90.4893 105.585C90.4141 105.381 90.2977 105.229 90.1401 105.128C89.9826 105.025 89.7839 104.973 89.5439 104.973C89.1966 104.973 88.9191 105.051 88.7114 105.209C88.5073 105.367 88.3605 105.599 88.271 105.907C88.1815 106.212 88.1367 106.586 88.1367 107.03V110H86.8745V104.054H87.8574L88.0347 104.854H88.1045C88.2262 104.647 88.3766 104.477 88.5557 104.344C88.7383 104.208 88.9406 104.108 89.1626 104.043C89.3846 103.975 89.6156 103.941 89.8555 103.941C90.2995 103.941 90.6737 104.02 90.978 104.178C91.2824 104.332 91.5098 104.568 91.6602 104.887H91.7568C91.943 104.564 92.2026 104.326 92.5356 104.172C92.8687 104.018 93.2214 103.941 93.5938 103.941ZM99.7383 103.941C100.268 103.941 100.723 104.051 101.103 104.269C101.482 104.487 101.774 104.797 101.978 105.198C102.182 105.599 102.284 106.079 102.284 106.638V107.314H98.3149C98.3293 107.891 98.4832 108.335 98.7769 108.646C99.0741 108.958 99.4894 109.114 100.023 109.114C100.403 109.114 100.743 109.078 101.043 109.006C101.348 108.931 101.661 108.822 101.983 108.679V109.705C101.686 109.844 101.384 109.946 101.076 110.011C100.768 110.075 100.399 110.107 99.9692 110.107C99.3856 110.107 98.8717 109.995 98.4277 109.769C97.9873 109.54 97.6418 109.2 97.3911 108.749C97.144 108.297 97.0205 107.737 97.0205 107.067C97.0205 106.401 97.1333 105.836 97.3589 105.37C97.5845 104.905 97.9014 104.55 98.3096 104.307C98.7178 104.063 99.194 103.941 99.7383 103.941ZM99.7383 104.892C99.3408 104.892 99.0186 105.021 98.7715 105.279C98.528 105.537 98.3848 105.914 98.3418 106.412H101.049C101.045 106.115 100.995 105.852 100.898 105.623C100.805 105.393 100.662 105.214 100.469 105.085C100.279 104.957 100.035 104.892 99.7383 104.892ZM106.721 103.941C106.821 103.941 106.93 103.947 107.048 103.958C107.167 103.968 107.269 103.983 107.354 104L107.236 105.182C107.161 105.161 107.068 105.145 106.957 105.134C106.85 105.123 106.753 105.118 106.667 105.118C106.441 105.118 106.227 105.155 106.022 105.23C105.818 105.302 105.638 105.413 105.48 105.563C105.322 105.71 105.199 105.895 105.109 106.117C105.02 106.339 104.975 106.597 104.975 106.89V110H103.708V104.054H104.696L104.868 105.102H104.927C105.045 104.89 105.192 104.697 105.367 104.521C105.543 104.346 105.743 104.206 105.969 104.103C106.198 103.995 106.449 103.941 106.721 103.941ZM112.452 108.303C112.452 108.693 112.357 109.022 112.167 109.291C111.977 109.56 111.7 109.764 111.334 109.903C110.973 110.039 110.529 110.107 110.002 110.107C109.587 110.107 109.229 110.077 108.928 110.016C108.631 109.959 108.35 109.869 108.085 109.748V108.657C108.368 108.79 108.685 108.904 109.036 109.001C109.39 109.098 109.725 109.146 110.04 109.146C110.455 109.146 110.754 109.082 110.937 108.953C111.12 108.82 111.211 108.645 111.211 108.426C111.211 108.297 111.173 108.183 111.098 108.083C111.027 107.979 110.89 107.873 110.69 107.766C110.493 107.655 110.203 107.522 109.82 107.368C109.444 107.218 109.127 107.067 108.869 106.917C108.611 106.767 108.416 106.586 108.284 106.375C108.151 106.16 108.085 105.886 108.085 105.553C108.085 105.026 108.293 104.627 108.708 104.355C109.127 104.079 109.68 103.941 110.368 103.941C110.733 103.941 111.077 103.979 111.399 104.054C111.725 104.126 112.043 104.231 112.355 104.371L111.958 105.322C111.689 105.204 111.419 105.107 111.146 105.032C110.878 104.953 110.604 104.914 110.325 104.914C109.999 104.914 109.75 104.964 109.578 105.064C109.41 105.164 109.326 105.307 109.326 105.494C109.326 105.633 109.367 105.751 109.449 105.848C109.532 105.945 109.673 106.042 109.874 106.138C110.078 106.235 110.361 106.355 110.722 106.498C111.077 106.634 111.383 106.777 111.641 106.928C111.902 107.075 112.103 107.255 112.242 107.47C112.382 107.685 112.452 107.963 112.452 108.303Z" fill="#303030"/>
</g>
</g>
</svg>
