<svg aria-hidden="true" style="position:absolute;width:0;height:0;overflow:hidden" xmlns="http://www.w3.org/2000/svg">
  <defs>
    <symbol id="icon-map-pin" viewBox="0 0 32 32">
      <path fill="none" stroke="#9da4bd" style="stroke:var(--color1, #9da4bd)" stroke-linejoin="round" stroke-linecap="round" stroke-width="1.333" d="M26.667 13.818C26.667 21.454 16 28 16 28S5.333 21.455 5.333 13.818C5.333 8.396 10.109 4 16 4s10.667 4.396 10.667 9.818v0z"/>
      <path fill="none" stroke="#9da4bd" style="stroke:var(--color1, #9da4bd)" stroke-linejoin="round" stroke-linecap="round" stroke-width="1.333" d="M16 18.667a4 4 0 1 0 0-8 4 4 0 0 0 0 8z"/>
    </symbol>
    <symbol id="icon-linegor" viewBox="0 0 1920 32">
      <path fill="#9da4bd" style="fill:var(--color1, #9da4bd)" opacity=".6" d="M1920 0v32H0V0h1920z"/>
    </symbol>
    <symbol id="icon-Logo" viewBox="0 0 39 32">
      <path d="m22.371 9.64-.749-.571a.57.57 0 0 0-.8.08l-10.36 11.897.16.177 2.566-2.366a.393.393 0 0 1-.099-.673.397.397 0 0 1 .626.187l3.383-3.137a.295.295 0 0 1 .366 0l.171.126a.285.285 0 0 0 .383-.045l4.423-4.96a.47.47 0 0 0 .067-.564.473.473 0 0 0-.136-.149z"/>
      <path d="M27.24 12.989a23.103 23.103 0 0 1-7.497 3.514 40.623 40.623 0 0 1-8.154 1.211c.055.406.155.804.297 1.189 1.554 1.406 13.257-.994 15.543-3.771.486-.577-.189-2.143-.189-2.143zm-13.897 5.868a.387.387 0 0 1-.381-.464.39.39 0 0 1 .305-.305c.075-.015.153-.007.225.022s.132.079.174.143a.395.395 0 0 1-.046.493.375.375 0 0 1-.277.112zM2.286 12.166l.091-.394 1.486.337c.123.226.198.475.223.731.028.271.011.546-.051.811a2.143 2.143 0 0 1-.491.994c-.236.267-.54.464-.88.571-.35.108-.723.122-1.08.04a1.998 1.998 0 0 1-.954-.503 1.894 1.894 0 0 1-.543-.897 2.153 2.153 0 0 1 0-1.143c.061-.28.172-.547.326-.789.146-.22.342-.402.571-.531l.206.314a1.634 1.634 0 0 0-.754 1.108c-.071.296-.065.604.017.897.077.278.229.529.44.726.217.21.488.354.783.417.286.08.588.08.874 0 .274-.09.52-.25.714-.463.2-.23.337-.507.4-.806a1.75 1.75 0 0 0-.069-1.091l-1.309-.331zM5.52 8.572l-1.331 1.777.571 1.023-.263.354-2.114-3.857.246-.337 4.303.926-.269.354-1.143-.24zm-.377-.092-2.286-.514L4 10.017 5.143 8.48zM5.143 4.886l.343-.257 2.177 2.914L9.457 6.2l.217.291-2.131 1.594-2.4-3.2zM8.743 2.503l.383-.171 1.509 3.303 2.04-.926.149.331-2.423 1.103-1.657-3.64zM16.274 3.817l.086.36-2.754.646-.914-3.897 2.674-.623.08.354-2.286.531.326 1.383 2.011-.474.086.354-2.017.469.343 1.446 2.366-.549zM20.2 3.96l-.954-1.257a2.847 2.847 0 0 1-.32 0l-1.074.034.04 1.269h-.423l-.131-4L18.858 0a1.8 1.8 0 0 1 1.211.326 1.257 1.257 0 0 1 .469.994c.017.282-.057.563-.211.8a1.329 1.329 0 0 1-.663.486l1 1.337-.463.017zm-.4-1.88a.915.915 0 0 0 .291-.748.929.929 0 0 0-.337-.732 1.385 1.385 0 0 0-.897-.234l-1.086.04.069 2 1.063-.034c.324.012.642-.091.897-.291zM23.223 2.897l-.206 1.366L22.6 4.2l.211-1.343L21.628 0l.446.069 1.011 2.434L24.799.486l.4.086-1.977 2.326zM28.874 2.657l.497.646-.217.171-.497-.663-.314.749-.24-.103.32-.749-.823.109v-.274l.811-.091-.503-.646.223-.171.44.651.309-.754.246.103-.291.766.823-.114v.28l-.783.091zM30.783 7.263a1.588 1.588 0 0 1-.246-.691l.337-.149c.025.226.099.445.217.64.128.219.294.412.491.571.204.195.464.321.743.36a.623.623 0 0 0 .537-.223.509.509 0 0 0 .131-.389 1.064 1.064 0 0 0-.137-.394 6.03 6.03 0 0 0-.349-.509 5.034 5.034 0 0 1-.411-.629 1.152 1.152 0 0 1-.149-.537c0-.212.079-.416.223-.571.125-.151.289-.264.474-.326.207-.06.427-.06.634 0 .267.087.514.227.726.411.176.146.332.315.463.503.121.174.212.367.269.571l-.326.171a2.056 2.056 0 0 0-.251-.537 2.014 2.014 0 0 0-.383-.394 1.272 1.272 0 0 0-.737-.349.61.61 0 0 0-.537.234.493.493 0 0 0-.131.389c.013.144.06.283.137.406.08.131.194.303.349.509.153.195.291.401.411.617.095.164.148.348.154.537a.838.838 0 0 1-.223.571 1.02 1.02 0 0 1-.48.326 1.104 1.104 0 0 1-.634 0 2.123 2.123 0 0 1-.731-.411 2.591 2.591 0 0 1-.571-.709zM36.531 8.097l-.806-1.143.297-.211 1.857 2.651-.297.211-.806-1.143-2.983 2.086-.24-.349 2.977-2.103zM35.252 12.794c.102-.345.3-.655.571-.891.265-.238.589-.401.937-.474a2.06 2.06 0 0 1 1.074.04c.336.111.638.308.874.571.246.283.414.626.486.994a2.17 2.17 0 0 1 0 1.103 1.962 1.962 0 0 1-.571.891 2.122 2.122 0 0 1-2.04.445 1.92 1.92 0 0 1-.874-.571 2.155 2.155 0 0 1-.486-.989 2.203 2.203 0 0 1 .029-1.12zM36 14.611c.191.217.438.377.714.463a1.765 1.765 0 0 0 1.657-.366c.211-.194.367-.441.451-.714a1.845 1.845 0 0 0-.371-1.68 1.635 1.635 0 0 0-.737-.463 1.705 1.705 0 0 0-.88 0c-.291.056-.56.192-.777.394a1.591 1.591 0 0 0-.451.72c-.078.29-.078.596 0 .886.063.284.199.546.394.76zM34.817 19.429l1.48-.571c0-.103.034-.206.063-.314l.28-1.034-1.211-.314.109-.406 3.863 1.034-.389 1.446a1.805 1.805 0 0 1-.663 1.063 1.245 1.245 0 0 1-1.086.16 1.238 1.238 0 0 1-.977-1.206l-1.577.571.109-.429zm1.915.16a1.024 1.024 0 0 0 1.435.383c.252-.203.424-.488.486-.806l.274-1.029-1.937-.52-.274 1.029c-.105.306-.099.64.017.943zM32.766 23.109l-.291-.223 1.714-2.257 3.189 2.417-1.657 2.189-.291-.223 1.4-1.846-1.143-.863-1.251 1.651-.286-.217 1.28-1.651-1.183-.897-1.48 1.92zM31.429 27.663l-.817.046v-.274l.817-.006-.44-.68.223-.143.434.686.354-.766.246.131-.389.72.817-.046v.28h-.829l.44.68-.223.143-.434-.686-.377.743-.24-.137.417-.691zM24 27.206l.691.383a1.78 1.78 0 0 1 1.143-.903c.227-.071.466-.096.703-.074.206.016.403.087.571.206a.908.908 0 0 1 .32.457c.069.226.057.468-.034.686a2.857 2.857 0 0 1-.571.794c.188.101.363.226.52.371a.983.983 0 0 1 .234.394.761.761 0 0 1-.149.669c-.152.22-.38.376-.64.44a.996.996 0 0 1-.709 0 .714.714 0 0 1-.412-.485.773.773 0 0 1 .04-.571c.131-.26.303-.497.509-.703l-1.377-.766a2.732 2.732 0 0 0-.034.817h-.349a2.738 2.738 0 0 1 .114-.994l-.72-.4.149-.32zm.994.571 1.514.84c.198-.189.363-.412.486-.657a.723.723 0 0 0 0-.514.618.618 0 0 0-.4-.429 1.143 1.143 0 0 0-.731 0 1.377 1.377 0 0 0-.891.743l.023.017zm2.149 2.286a.524.524 0 0 0 .046-.422.7.7 0 0 0-.183-.297 2.452 2.452 0 0 0-.474-.314 2.962 2.962 0 0 0-.451.571.576.576 0 0 0-.046.423.482.482 0 0 0 .251.302.637.637 0 0 0 .451 0 .68.68 0 0 0 .383-.269l.023.006zM17.034 31.611l.08-4h.406l-.063 3.2 1.623-2.663h.2l1.52 2.709.057-3.183h.406l-.074 4h-.349l-1.68-2.989-1.777 2.931-.349-.006zM15.046 27.429a1.953 1.953 0 0 1 .52 1.977 2.027 2.027 0 0 1-.543.931 1.92 1.92 0 0 1-.92.503 2.217 2.217 0 0 1-1.109-.034 2.155 2.155 0 0 1-.96-.52 1.92 1.92 0 0 1-.531-.903 2.111 2.111 0 0 1 .572-2.012c.25-.249.561-.427.903-.514a2.205 2.205 0 0 1 1.103.034c.363.092.696.277.966.537zm-1.949-.2c-.28.065-.535.208-.737.411a1.65 1.65 0 0 0-.434.76c-.08.286-.08.588 0 .874.067.278.212.532.417.731.215.21.481.362.771.44.291.074.595.074.886 0a1.63 1.63 0 0 0 .743-.411c.209-.21.359-.473.434-.76.08-.288.08-.592 0-.88a1.598 1.598 0 0 0-.423-.731 1.71 1.71 0 0 0-.777-.434 1.643 1.643 0 0 0-.88 0zM8.771 24.571l.154 1.571c.098.042.193.09.286.143l.931.537.629-1.109.371.211-2 3.446-1.303-.749a1.813 1.813 0 0 1-.857-.914 1.255 1.255 0 0 1 .126-1.086c.133-.25.343-.451.6-.571.261-.108.549-.13.823-.063l-.166-1.68.406.263zm-.651 1.806a1.036 1.036 0 0 0-.642.486 1.021 1.021 0 0 0-.095.8c.134.296.366.536.657.68l.92.531 1-1.714-.92-.531a1.413 1.413 0 0 0-.92-.28v.029zM5.389 21.891l.257-.257 1.971 2.029-2.857 2.789-1.903-1.966.263-.257 1.617 1.663.977-.989-1.417-1.474.274-.263 1.446 1.486 1.063-1.034-1.691-1.726zM1.143 19.646l.137-.789.269.04-.154.811.76-.28.091.251-.771.263.634.537-.183.206-.611-.571-.143.811-.274-.051.16-.811-.766.274-.086-.223.766-.269-.634-.531.189-.206.617.537z"/>
    </symbol>
    <symbol id="icon-linevert" viewBox="0 0 1 32">
      <path d="M0 0h.533v32H0V0z"/>
    </symbol>
    <symbol id="icon-Feature-4" viewBox="0 0 41 32">
      <path fill="#f7f7f7" style="fill:var(--color2, #f7f7f7)" d="M0 0h40.902v32H0V0z"/>
      <path fill="#303030" style="fill:var(--color3, #303030)" d="M13.641 15.639h-1.525v-4.174a24.9 24.9 0 0 1 .02-.947c.007-.181.013-.344.02-.489a3.14 3.14 0 0 1-.222.222c-.109.102-.211.194-.306.276l-.829.666-.735-.918 2.324-1.85h1.253v7.214zm7.522-3.607c0 .582-.046 1.102-.138 1.559a3.398 3.398 0 0 1-.434 1.164c-.197.319-.457.563-.78.73s-.714.252-1.174.252c-.579 0-1.054-.146-1.426-.439-.372-.296-.646-.72-.824-1.273-.178-.556-.266-1.22-.266-1.993 0-.78.081-1.446.242-1.998.164-.556.431-.982.799-1.278s.86-.444 1.475-.444c.576 0 1.049.148 1.421.444.375.293.653.717.834 1.273.181.553.271 1.22.271 2.003zm-3.528 0c0 .549.03 1.008.089 1.377.063.365.166.64.311.824s.345.276.602.276c.253 0 .452-.09.597-.271.148-.184.253-.459.316-.824.063-.368.094-.829.094-1.382 0-.549-.031-1.008-.094-1.377s-.168-.645-.316-.829a.712.712 0 0 0-.597-.281.719.719 0 0 0-.602.281c-.145.184-.248.461-.311.829a8.917 8.917 0 0 0-.089 1.377zm9.816 0c0 .582-.046 1.102-.138 1.559a3.398 3.398 0 0 1-.434 1.164c-.197.319-.457.563-.78.73s-.714.252-1.174.252c-.579 0-1.054-.146-1.426-.439-.372-.296-.646-.72-.824-1.273-.178-.556-.266-1.22-.266-1.993 0-.78.081-1.446.242-1.998.164-.556.431-.982.799-1.278s.86-.444 1.475-.444c.576 0 1.049.148 1.421.444.375.293.653.717.834 1.273.181.553.271 1.22.271 2.003zm-3.528 0c0 .549.03 1.008.089 1.377.063.365.166.64.311.824s.346.276.602.276c.253 0 .452-.09.597-.271.148-.184.253-.459.316-.824.063-.368.094-.829.094-1.382 0-.549-.031-1.008-.094-1.377s-.168-.645-.316-.829a.712.712 0 0 0-.597-.281.72.72 0 0 0-.602.281c-.145.184-.248.461-.311.829a8.917 8.917 0 0 0-.089 1.377z"/>
      <path fill="#ff6c00" style="fill:var(--color4, #ff6c00)" d="M30.359 9.062h.752v.335h-.752v.759h-.335v-.759h-.75v-.335h.75v-.767h.335v.767z"/>
      <path fill="#303030" style="fill:var(--color3, #303030)" d="M11.321 21.831h.706v.949a2.069 2.069 0 0 1-.665.103c-.192 0-.355-.038-.489-.114s-.233-.187-.302-.332a1.222 1.222 0 0 1-.103-.526c0-.197.038-.368.115-.513s.188-.258.335-.337c.146-.08.324-.12.532-.12.103 0 .202.01.297.031s.185.047.265.083l-.109.256c-.064-.03-.135-.056-.215-.076s-.162-.031-.247-.031c-.135 0-.252.029-.35.088s-.172.141-.225.248a.83.83 0 0 0-.079.376c0 .14.021.264.063.37s.108.189.198.248c.09.059.207.088.35.088.072 0 .132-.004.182-.012s.096-.016.138-.026v-.487h-.399v-.265zm1.431-.404v1.431h-.304v-1.431h.304zm-.15-.548c.046 0 .087.012.12.037s.052.068.052.129c0 .06-.017.103-.052.129s-.074.038-.12.038c-.048 0-.089-.012-.123-.038s-.049-.069-.049-.129c0-.061.016-.104.049-.129s.075-.037.123-.037zm1.3.779h-.348v1.199h-.304v-1.199h-.234v-.146l.234-.089v-.099c0-.121.019-.218.057-.289s.094-.123.165-.154a.635.635 0 0 1 .258-.048.917.917 0 0 1 .317.053l-.079.23c-.029-.009-.062-.018-.098-.026s-.075-.013-.116-.013c-.069 0-.12.022-.152.065s-.048.106-.048.189v.097h.348v.231zm.776.979a.664.664 0 0 0 .224-.037v.23a.83.83 0 0 1-.298.053c-.081 0-.154-.013-.218-.04s-.116-.075-.154-.141-.057-.158-.057-.275v-.769h-.195v-.136l.209-.107.1-.306h.191v.318h.41v.231h-.41v.765c0 .072.018.126.054.162s.084.053.143.053zm1.476-.188c0 .094-.023.173-.069.238s-.112.114-.2.147a.909.909 0 0 1-.32.049c-.1 0-.186-.007-.258-.022s-.139-.035-.203-.065v-.262c.068.032.144.059.229.083s.166.035.242.035c.1 0 .172-.016.216-.047s.066-.074.066-.127c0-.031-.009-.059-.027-.083s-.05-.05-.098-.076a1.781 1.781 0 0 0-.209-.096c-.09-.036-.167-.072-.229-.109s-.109-.08-.141-.131a.372.372 0 0 1-.048-.198c0-.127.05-.223.15-.288s.234-.099.399-.099c.088 0 .171.009.248.027s.155.043.23.076l-.096.229c-.065-.028-.13-.052-.195-.07s-.13-.028-.198-.028c-.078 0-.138.012-.18.036s-.061.059-.061.103c0 .034.01.062.03.085s.054.047.102.07c.049.023.117.052.204.087.085.033.159.067.221.103s.111.079.145.131.05.118.05.2zm1.731-.791h-.348v1.199h-.304v-1.199h-.234v-.146l.234-.089v-.099c0-.121.019-.218.057-.289s.094-.123.165-.154a.635.635 0 0 1 .258-.048.91.91 0 0 1 .317.053l-.079.23c-.029-.009-.062-.018-.098-.026s-.075-.013-.116-.013c-.069 0-.12.022-.152.065s-.048.106-.048.189v.097h.348v.231zm1.51.481c0 .119-.015.224-.047.317s-.076.17-.136.234c-.059.063-.131.111-.215.145s-.178.049-.283.049c-.098 0-.188-.016-.27-.049a.602.602 0 0 1-.351-.379.964.964 0 0 1-.049-.317c0-.158.027-.291.081-.401s.134-.194.235-.252.223-.087.363-.087c.132 0 .248.029.349.087s.18.142.236.252c.057.11.085.244.085.401zm-1.037 0c0 .104.012.193.038.267s.065.131.119.171c.053.039.122.058.207.058s.153-.019.207-.058c.053-.04.093-.096.118-.171s.038-.163.038-.267c0-.104-.012-.193-.038-.265s-.064-.129-.118-.167a.344.344 0 0 0-.208-.058c-.126 0-.218.042-.275.127s-.087.205-.087.363zm2.111-.74a.759.759 0 0 1 .153.014l-.028.284a.455.455 0 0 0-.137-.016c-.054 0-.106.009-.155.027s-.093.044-.131.08c-.038.035-.068.08-.089.133s-.032.115-.032.186v.748h-.305v-1.431h.238l.041.252h.014c.028-.051.064-.097.106-.14a.473.473 0 0 1 .326-.14zm1.83 0a.759.759 0 0 1 .153.014l-.028.284a.455.455 0 0 0-.137-.016c-.054 0-.106.009-.155.027s-.093.044-.131.08c-.038.035-.068.08-.089.133s-.032.115-.032.186v.748h-.305v-1.431h.238l.041.252h.014c.028-.051.064-.097.106-.14a.473.473 0 0 1 .326-.14zm.987 0c.128 0 .237.026.328.079s.162.127.211.224a.755.755 0 0 1 .074.346v.163h-.955c.003.139.041.246.111.32s.171.112.3.112a1.086 1.086 0 0 0 .472-.105v.247a1.002 1.002 0 0 1-.484.097c-.14 0-.264-.027-.371-.081s-.189-.137-.249-.246c-.059-.109-.089-.243-.089-.404s.027-.296.081-.408.131-.197.229-.256a.655.655 0 0 1 .344-.088zm0 .229c-.096 0-.173.031-.233.093s-.093.153-.103.273h.651c-.001-.072-.013-.135-.036-.19s-.057-.098-.103-.129a.307.307 0 0 0-.176-.047zm1.364 1.865c-.194 0-.343-.035-.446-.105s-.155-.168-.155-.293c0-.088.028-.162.083-.224s.134-.102.236-.125c-.039-.017-.072-.044-.101-.08s-.041-.078-.041-.123c0-.053.015-.099.045-.137s.075-.075.136-.11c-.075-.032-.135-.084-.181-.155s-.067-.157-.067-.255c0-.103.022-.191.066-.264s.108-.129.192-.167a.723.723 0 0 1 .39-.053 1.67 1.67 0 0 1 .146.022h.495v.169l-.243.045a.435.435 0 0 1 .077.248c0 .148-.051.265-.154.35s-.242.127-.421.127a1.623 1.623 0 0 1-.125-.01c-.031.019-.055.04-.071.063s-.025.048-.025.076c0 .023.008.042.025.057s.04.024.072.031a.58.58 0 0 0 .119.01h.247c.157 0 .277.033.359.099s.124.164.124.292c0 .163-.067.288-.202.376s-.328.133-.58.133zm.011-.213c.106 0 .195-.01.268-.031s.127-.05.164-.089a.188.188 0 0 0 .056-.136c0-.047-.012-.082-.035-.107s-.058-.042-.105-.052a.929.929 0 0 0-.173-.014h-.225c-.056 0-.106.009-.149.026s-.077.044-.101.078a.21.21 0 0 0-.035.121c0 .066.029.116.087.151s.141.053.248.053zm.06-1.114c.089 0 .155-.024.198-.072s.064-.118.064-.207c0-.096-.022-.169-.067-.217s-.109-.072-.196-.072c-.085 0-.15.025-.195.074s-.066.122-.066.218c0 .087.022.155.066.204s.11.072.196.072zm2.235-.739v1.431h-.239l-.041-.193h-.017c-.03.049-.069.09-.115.123s-.098.056-.155.071a.663.663 0 0 1-.18.025c-.108 0-.2-.018-.277-.054s-.134-.094-.174-.171-.061-.176-.061-.297v-.934h.305v.877c0 .111.022.194.067.249s.116.083.212.083c.092 0 .166-.019.22-.057s.093-.094.115-.168a.93.93 0 0 0 .035-.273v-.712h.305zm.741 1.43h-.305v-2.011h.305v2.011zm.995-1.458c.181 0 .318.04.41.12s.14.205.14.375v.963h-.216l-.058-.203h-.01c-.041.052-.082.094-.125.128s-.093.059-.15.075a.71.71 0 0 1-.205.026c-.085 0-.161-.015-.229-.047s-.12-.08-.159-.145-.058-.146-.058-.246c0-.147.055-.258.164-.332s.276-.115.499-.123l.248-.009v-.075c0-.099-.023-.17-.07-.212s-.11-.063-.194-.063c-.071 0-.141.01-.208.031s-.133.046-.197.076l-.098-.215a1.117 1.117 0 0 1 .517-.125zm.248.775-.185.006c-.152.005-.258.031-.319.078s-.092.11-.092.191c0 .071.021.122.063.155s.098.048.167.048c.105 0 .192-.03.261-.089s.105-.149.105-.265v-.124zm1.451-.775a.746.746 0 0 1 .153.014l-.028.284a.616.616 0 0 0-.137-.016c-.054 0-.106.009-.155.027a.363.363 0 0 0-.219.213.503.503 0 0 0-.032.186v.748h-.305v-1.431h.238l.041.252h.014c.028-.051.064-.097.106-.14a.473.473 0 0 1 .326-.14zm-15.862 5.093c-.135 0-.252-.026-.352-.079s-.175-.133-.229-.242a.938.938 0 0 1-.08-.413c0-.174.029-.316.088-.427s.14-.192.243-.244a.792.792 0 0 1 .358-.079.966.966 0 0 1 .408.087l-.09.243c-.053-.021-.106-.04-.162-.054s-.108-.022-.159-.022c-.084 0-.153.019-.209.056s-.097.092-.124.166a.795.795 0 0 0-.04.273c0 .105.014.194.041.266s.069.126.123.163c.054.036.121.054.2.054a.754.754 0 0 0 .387-.102v.264c-.054.031-.112.054-.174.069s-.138.023-.229.023zm1.986-1.456v1.431h-.239l-.041-.192h-.017c-.03.049-.069.09-.115.123s-.098.056-.155.071a.663.663 0 0 1-.18.025c-.108 0-.2-.018-.277-.054s-.134-.094-.174-.171-.061-.176-.061-.297v-.934h.305v.877c0 .111.022.194.067.25s.116.083.212.083c.092 0 .165-.019.22-.057s.093-.094.115-.168a.93.93 0 0 0 .035-.273v-.712h.305zm1.397 1.022c0 .094-.023.173-.069.238s-.112.114-.2.147a.909.909 0 0 1-.32.049c-.1 0-.186-.007-.258-.022s-.139-.035-.203-.064v-.262c.068.032.144.059.229.083s.166.035.242.035c.1 0 .172-.015.216-.046s.066-.074.066-.127c0-.031-.009-.058-.027-.083s-.05-.051-.098-.076a1.781 1.781 0 0 0-.209-.096c-.09-.036-.167-.072-.229-.108s-.109-.08-.141-.13a.372.372 0 0 1-.048-.198c0-.127.05-.223.15-.288s.234-.1.399-.1c.088 0 .171.009.248.027s.155.043.23.076l-.096.229c-.065-.028-.13-.052-.195-.07s-.131-.028-.198-.028c-.078 0-.138.012-.18.036s-.061.058-.061.103c0 .033.01.062.03.085s.054.047.102.07c.049.023.117.052.204.087.085.033.159.067.221.103s.111.079.145.13.05.119.05.2zm.86.189a.664.664 0 0 0 .224-.037v.23a.83.83 0 0 1-.298.053c-.081 0-.154-.013-.218-.04s-.116-.075-.154-.141a.555.555 0 0 1-.057-.275v-.769h-.195v-.136l.209-.107.099-.306h.191v.318h.41v.231h-.41v.765c0 .072.018.126.054.162s.084.053.143.053zm1.781-.499c0 .119-.015.224-.047.317s-.076.17-.136.234c-.059.063-.131.111-.215.145s-.178.049-.283.049c-.098 0-.188-.016-.27-.049a.602.602 0 0 1-.351-.379.964.964 0 0 1-.049-.317c0-.158.027-.291.081-.401.055-.11.134-.194.235-.252s.223-.087.363-.087c.132 0 .248.029.349.087s.18.142.236.252c.057.11.085.244.085.401zm-1.038 0c0 .104.012.193.038.267s.065.131.119.171c.053.039.122.058.207.058s.153-.019.207-.058c.053-.039.093-.096.118-.171s.037-.163.037-.267a.818.818 0 0 0-.037-.265c-.025-.073-.064-.129-.118-.167s-.123-.058-.208-.058c-.126 0-.218.042-.275.127s-.087.205-.087.363zm3.004-.74c.16 0 .281.041.362.124s.123.215.123.398v.936H22.7v-.881c0-.108-.021-.19-.063-.246s-.106-.083-.193-.083c-.121 0-.208.039-.261.116s-.079.188-.079.335v.759H21.8v-.881c0-.072-.009-.133-.028-.181s-.046-.086-.084-.11a.256.256 0 0 0-.143-.037c-.084 0-.15.019-.2.057s-.084.094-.106.168a.951.951 0 0 0-.032.27v.715h-.304v-1.431h.236l.043.192h.017c.029-.05.065-.091.109-.123s.093-.057.146-.072a.577.577 0 0 1 .167-.025c.107 0 .197.019.27.057s.128.094.164.171h.023c.045-.078.107-.135.187-.172s.165-.056.255-.056zm1.478 0c.127 0 .237.026.328.079s.161.127.211.224.074.212.074.346v.163h-.955c.003.139.041.246.111.32s.171.113.3.113a1.07 1.07 0 0 0 .471-.105v.247a1.039 1.039 0 0 1-.484.097c-.14 0-.264-.027-.371-.081s-.189-.137-.249-.245c-.059-.109-.089-.244-.089-.405s.027-.296.081-.408c.054-.112.131-.197.229-.256s.213-.088.344-.088zm0 .229c-.096 0-.173.031-.233.093s-.093.153-.103.273h.651c-.001-.071-.013-.135-.036-.19s-.057-.098-.103-.129a.307.307 0 0 0-.176-.046zm1.68-.229a.759.759 0 0 1 .153.014l-.028.284a.616.616 0 0 0-.137-.016c-.054 0-.106.009-.155.027a.372.372 0 0 0-.219.213.507.507 0 0 0-.032.186v.748h-.305v-1.431h.238l.041.252h.014c.028-.051.064-.097.106-.14a.473.473 0 0 1 .326-.14zm1.379 1.05c0 .094-.023.173-.069.238s-.112.114-.2.147a.909.909 0 0 1-.32.049c-.1 0-.186-.007-.258-.022s-.139-.035-.203-.064v-.262c.068.032.144.059.229.083s.166.035.242.035c.1 0 .172-.015.216-.046s.066-.074.066-.127c0-.031-.009-.058-.027-.083s-.05-.051-.098-.076a1.781 1.781 0 0 0-.209-.096c-.09-.036-.167-.072-.229-.108s-.109-.08-.141-.13a.372.372 0 0 1-.048-.198c0-.127.05-.223.15-.288s.234-.1.399-.1c.088 0 .171.009.248.027s.155.043.23.076l-.096.229a1.522 1.522 0 0 0-.195-.07.692.692 0 0 0-.198-.028c-.078 0-.138.012-.18.036s-.061.058-.061.103c0 .033.01.062.03.085s.054.047.102.07c.049.023.117.052.204.087.085.033.159.067.221.103s.111.079.145.13a.36.36 0 0 1 .051.2z"/>
    </symbol>
    <symbol id="icon-Feature-3" viewBox="0 0 41 32">
      <path fill="#f7f7f7" style="fill:var(--color2, #f7f7f7)" d="M0 0h40.902v32H0V0z"/>
      <path fill="#303030" style="fill:var(--color3, #303030)" d="M18.058 15.639h-5.043v-1.061l1.811-1.831c.365-.375.658-.688.878-.938.224-.253.385-.484.484-.691.102-.207.153-.429.153-.666 0-.286-.081-.5-.242-.641-.158-.145-.37-.217-.636-.217-.28 0-.551.064-.814.192s-.538.311-.824.548l-.829-.982c.207-.178.426-.345.656-.503.234-.158.503-.285.809-.38a3.661 3.661 0 0 1 1.11-.148c.474 0 .88.086 1.219.257.342.171.605.405.789.701.184.293.276.625.276.997 0 .398-.079.761-.237 1.09s-.388.655-.691.977c-.299.322-.661.679-1.086 1.071l-.928.873v.069h3.143v1.283zm6.249-3.607c0 .582-.046 1.102-.138 1.559-.089.457-.233.845-.434 1.164-.197.319-.457.563-.78.73s-.714.252-1.174.252c-.579 0-1.054-.146-1.426-.439-.372-.296-.646-.72-.824-1.273-.178-.556-.266-1.22-.266-1.993 0-.78.081-1.446.242-1.998.164-.556.431-.982.799-1.278s.86-.444 1.475-.444c.576 0 1.049.148 1.421.444.375.293.653.717.834 1.273.181.553.271 1.22.271 2.003zm-3.528 0c0 .549.03 1.008.089 1.377.063.365.166.64.311.824s.345.276.602.276c.253 0 .452-.09.597-.271.148-.184.253-.459.316-.824.063-.368.094-.829.094-1.382 0-.549-.031-1.008-.094-1.377s-.168-.645-.316-.829a.712.712 0 0 0-.597-.281.719.719 0 0 0-.602.281c-.145.184-.248.461-.311.829a8.917 8.917 0 0 0-.089 1.377zM15.167 22.857h-.357l-.588-.858-.186.151v.707h-.31v-1.889h.31v.903l.115-.14.116-.14.532-.624h.35l-.706.827.722 1.062zm.003-1.43h.331l.293.817c.013.037.025.074.035.11s.021.07.028.105c.009.034.015.069.021.103h.008a2.26 2.26 0 0 1 .09-.318l.282-.817h.327l-.614 1.627c-.035.093-.079.172-.131.238a.516.516 0 0 1-.42.202c-.043 0-.081-.003-.112-.008s-.059-.009-.081-.014v-.243l.068.012a.589.589 0 0 0 .085.005c.054 0 .101-.011.141-.032s.073-.052.101-.092a.575.575 0 0 0 .069-.133l.05-.134-.571-1.427zm1.935 0v1.431h-.304v-1.431h.304zm-.15-.548c.047 0 .087.012.12.037s.052.068.052.129c0 .06-.017.103-.052.129s-.074.038-.12.038c-.048 0-.089-.012-.123-.038s-.049-.069-.049-.129c0-.061.016-.104.049-.129s.075-.037.123-.037zm.913 1.978-.544-1.431h.322l.295.84a1.99 1.99 0 0 1 .084.329h.01c.006-.044.018-.096.035-.158s.035-.119.053-.172l.295-.84h.32l-.544 1.431h-.326zm1.33-1.889.019.028a4.659 4.659 0 0 1-.227.62h-.22l.037-.16.038-.171c.012-.058.023-.113.032-.167l.025-.15h.295zm1.23 1.481c0 .094-.023.173-.068.238s-.112.114-.2.147a.909.909 0 0 1-.32.049c-.1 0-.186-.007-.258-.022s-.139-.035-.203-.065v-.262c.068.032.144.059.229.083s.166.035.242.035c.1 0 .172-.016.216-.047s.066-.074.066-.127c0-.031-.009-.059-.027-.083s-.05-.05-.098-.076a1.781 1.781 0 0 0-.209-.096c-.09-.036-.167-.072-.229-.109s-.109-.08-.141-.131a.372.372 0 0 1-.048-.198c0-.127.05-.223.15-.288s.234-.099.399-.099c.088 0 .171.009.248.027s.155.043.23.076l-.096.229c-.065-.028-.13-.052-.195-.07s-.131-.028-.198-.028c-.078 0-.138.012-.18.036s-.061.059-.061.103c0 .034.01.062.03.085s.054.047.102.07c.049.023.117.052.204.087.085.033.159.067.221.103s.111.079.145.131.05.118.05.2zm1.319-1.603v.485c0 .056-.002.111-.005.165s-.005.095-.008.125h.013c.039-.062.093-.114.162-.156s.159-.065.267-.065c.17 0 .306.062.41.187s.155.308.155.552c0 .162-.024.298-.071.408s-.114.194-.2.251a.536.536 0 0 1-.301.084c-.109 0-.196-.02-.264-.059s-.118-.087-.156-.141h-.022l-.056.174h-.227v-2.011h.304zm.349.802c-.086 0-.155.017-.205.052s-.086.086-.109.155a.888.888 0 0 0-.035.26v.027c0 .159.025.281.075.366s.143.127.277.127c.106 0 .187-.043.244-.128s.085-.209.085-.37c0-.162-.028-.284-.085-.366s-.138-.123-.247-.123zm1.566-.249c.128 0 .237.026.328.079s.162.127.211.224a.755.755 0 0 1 .074.346v.163h-.955c.003.139.041.246.111.32s.171.112.3.112a1.086 1.086 0 0 0 .472-.105v.247c-.071.034-.144.058-.218.074s-.163.023-.266.023c-.14 0-.264-.027-.371-.081s-.189-.137-.249-.246c-.059-.109-.089-.243-.089-.404s.027-.296.081-.408.131-.197.229-.256a.655.655 0 0 1 .344-.088zm0 .229c-.096 0-.173.031-.233.093s-.093.153-.103.273h.651c-.001-.072-.013-.135-.036-.19s-.057-.098-.103-.129a.307.307 0 0 0-.176-.047zm1.917.821c0 .094-.023.173-.068.238s-.112.114-.2.147a.909.909 0 0 1-.32.049c-.1 0-.186-.007-.258-.022s-.139-.035-.203-.065v-.262c.068.032.144.059.229.083a.93.93 0 0 0 .242.035c.1 0 .172-.016.216-.047s.066-.074.066-.127c0-.031-.009-.059-.027-.083s-.05-.05-.098-.076a1.781 1.781 0 0 0-.209-.096c-.09-.036-.167-.072-.229-.109s-.109-.08-.141-.131a.372.372 0 0 1-.048-.198c0-.127.05-.223.15-.288s.234-.099.399-.099c.088 0 .171.009.248.027s.155.043.23.076l-.096.229c-.064-.028-.13-.052-.195-.07s-.13-.028-.198-.028c-.078 0-.138.012-.18.036s-.061.059-.061.103c0 .034.01.062.03.085s.054.047.102.07c.049.023.117.052.204.087.085.033.159.067.221.103.063.035.111.079.145.131s.05.118.05.2zm.861.188a.652.652 0 0 0 .223-.037v.23a.83.83 0 0 1-.298.053c-.081 0-.154-.013-.218-.04s-.116-.075-.154-.141a.555.555 0 0 1-.057-.275v-.769h-.195v-.136l.209-.107.1-.306h.191v.318h.41v.231h-.41v.765c0 .072.018.126.054.162s.084.053.144.053zm-10.434 1.818v.485c0 .056-.002.111-.005.165s-.005.095-.008.125h.013c.039-.062.093-.114.162-.156s.159-.064.267-.064c.17 0 .306.062.41.187.103.124.155.308.155.552 0 .162-.024.298-.071.408s-.114.194-.2.251a.536.536 0 0 1-.301.084c-.109 0-.196-.02-.264-.059s-.118-.087-.156-.141h-.022l-.056.174h-.227v-2.011h.304zm.349.802c-.086 0-.155.017-.205.052s-.086.086-.109.155a.888.888 0 0 0-.035.26v.027c0 .16.025.282.075.366s.143.127.277.127c.106 0 .187-.043.244-.128s.085-.209.085-.37c0-.162-.028-.284-.085-.366s-.138-.123-.247-.123zm1.557-.249c.181 0 .317.04.41.12s.14.205.14.375v.963h-.216l-.058-.203h-.01c-.041.052-.082.094-.125.128s-.093.059-.15.075a.715.715 0 0 1-.205.026c-.085 0-.162-.015-.229-.046s-.12-.08-.159-.145a.465.465 0 0 1-.058-.245c0-.147.055-.258.164-.332s.277-.115.499-.123l.248-.009v-.075c0-.099-.023-.17-.07-.212s-.11-.063-.194-.063c-.072 0-.141.01-.208.031s-.133.046-.196.076l-.098-.215a1.117 1.117 0 0 1 .517-.125zm.248.775-.185.006c-.152.005-.258.031-.319.077s-.092.11-.092.191c0 .07.021.122.063.155s.098.048.167.048c.105 0 .192-.03.261-.089s.105-.148.105-.265v-.124zm1.451-.775a.759.759 0 0 1 .153.014l-.028.284a.455.455 0 0 0-.137-.016c-.054 0-.106.009-.155.027s-.093.044-.131.08c-.038.035-.068.08-.089.133s-.032.116-.032.186v.748h-.305v-1.431h.238l.041.252h.014c.028-.051.064-.097.106-.14a.473.473 0 0 1 .326-.14zm.721-.553v.485c0 .056-.002.111-.005.165s-.005.095-.008.125h.013c.039-.062.093-.114.162-.156s.159-.064.268-.064c.17 0 .306.062.41.187.103.124.155.308.155.552 0 .162-.024.298-.071.408s-.114.194-.2.251a.536.536 0 0 1-.301.084c-.109 0-.196-.02-.264-.059s-.118-.087-.156-.141h-.022l-.056.174h-.227v-2.011h.304zm.349.802c-.086 0-.155.017-.205.052s-.086.086-.109.155a.888.888 0 0 0-.035.26v.027c0 .16.025.282.075.366s.143.127.277.127c.106 0 .187-.043.244-.128s.085-.209.085-.37c0-.162-.028-.284-.085-.366s-.138-.123-.247-.123zm1.566-.249c.128 0 .237.026.328.079s.162.127.211.224a.755.755 0 0 1 .074.346v.163h-.955c.003.139.041.246.111.32s.171.113.3.113a1.086 1.086 0 0 0 .472-.105v.247c-.072.033-.144.058-.218.074s-.163.023-.266.023c-.14 0-.264-.027-.371-.081s-.189-.137-.249-.245c-.059-.109-.089-.244-.089-.405s.027-.296.081-.408c.054-.112.131-.197.229-.256s.213-.088.344-.088zm0 .229c-.096 0-.173.031-.233.093s-.093.153-.103.273h.651c-.001-.071-.013-.135-.036-.19s-.057-.098-.103-.129a.307.307 0 0 0-.176-.046zm1.68-.229a.759.759 0 0 1 .153.014l-.028.284a.455.455 0 0 0-.137-.016c-.054 0-.106.009-.155.027s-.093.044-.131.08c-.038.035-.068.08-.089.133s-.032.116-.032.186v.748h-.305v-1.431h.238l.041.252h.014c.028-.051.064-.097.106-.14a.473.473 0 0 1 .326-.14zm1.379 1.05c0 .094-.023.173-.068.238s-.113.114-.2.147a.909.909 0 0 1-.32.049c-.1 0-.186-.007-.258-.022s-.139-.035-.203-.064v-.262c.068.032.144.059.229.083s.166.035.242.035c.1 0 .172-.015.216-.046s.066-.074.066-.127c0-.031-.009-.058-.027-.083s-.05-.051-.098-.076a1.781 1.781 0 0 0-.209-.096c-.09-.036-.167-.072-.229-.108s-.109-.08-.141-.13a.372.372 0 0 1-.048-.198c0-.127.05-.223.15-.288s.234-.1.399-.1c.088 0 .171.009.248.027s.155.043.23.076l-.096.229c-.064-.028-.13-.052-.195-.07s-.13-.028-.198-.028c-.078 0-.138.012-.18.036s-.061.058-.061.103c0 .033.01.062.03.085s.054.047.102.07c.049.023.117.052.204.087.085.033.159.067.221.103s.111.079.145.13c.033.052.05.119.05.2z"/>
      <path fill="#ff6c00" style="fill:var(--color4, #ff6c00)" d="M26.991 9.062h.752v.335h-.752v.759h-.335v-.759h-.75v-.335h.75v-.767h.335v.767z"/>
    </symbol>
    <symbol id="icon-Feature-2" viewBox="0 0 41 32">
      <path fill="#f7f7f7" style="fill:var(--color2, #f7f7f7)" d="M0 0h40.902v32H0V0z"/>
      <path fill="#303030" style="fill:var(--color3, #303030)" d="M15.641 11.031c.441 0 .832.084 1.174.252.345.168.617.414.814.74s.296.727.296 1.204c0 .52-.109.969-.326 1.347a2.1 2.1 0 0 1-.962.864c-.424.201-.954.301-1.589.301-.378 0-.735-.033-1.071-.099a3.131 3.131 0 0 1-.873-.291v-1.317a4.3 4.3 0 0 0 .898.336c.352.089.683.133.992.133.303 0 .558-.039.765-.118a.946.946 0 0 0 .469-.375c.109-.171.163-.388.163-.651 0-.352-.118-.622-.355-.809s-.6-.281-1.09-.281c-.188 0-.383.018-.587.054a5.855 5.855 0 0 0-.503.109l-.607-.326.271-3.676h3.913v1.293h-2.576l-.133 1.416c.112-.023.234-.046.365-.069s.316-.035.553-.035zm8.666 1.001c0 .582-.046 1.102-.138 1.559-.089.457-.233.845-.434 1.164-.197.319-.457.563-.78.73s-.714.252-1.174.252c-.579 0-1.054-.146-1.426-.439-.372-.296-.646-.72-.824-1.273-.178-.556-.266-1.22-.266-1.993 0-.78.081-1.446.242-1.998.164-.556.431-.982.799-1.278s.86-.444 1.475-.444c.576 0 1.049.148 1.421.444.375.293.653.717.834 1.273.181.553.271 1.22.271 2.003zm-3.528 0c0 .549.03 1.008.089 1.377.063.365.166.64.311.824s.345.276.602.276c.253 0 .452-.09.597-.271.148-.184.253-.459.316-.824.063-.368.094-.829.094-1.382 0-.549-.031-1.008-.094-1.377s-.168-.645-.316-.829a.712.712 0 0 0-.597-.281.719.719 0 0 0-.602.281c-.145.184-.248.461-.311.829a8.917 8.917 0 0 0-.089 1.377zM8.784 22.857l-.185-.525h-.722l-.185.525h-.327l.703-1.897h.344l.702 1.897h-.33zm-.265-.791-.18-.517-.03-.094-.039-.125-.032-.109c-.009.035-.019.075-.032.119l-.036.121-.026.088-.181.517h.556zm1.983.79-.181-.666-.031-.119-.036-.143-.034-.138c-.011-.042-.017-.075-.022-.098h-.01l-.021.098-.032.138-.036.146-.031.121-.19.66h-.333l-.401-1.431h.308l.186.711c.012.048.024.1.035.156l.031.16c.009.051.015.093.019.125h.01a2.43 2.43 0 0 1 .035-.2l.023-.111c.008-.034.015-.064.022-.085l.22-.756h.332l.211.756a2.47 2.47 0 0 1 .061.273c.009.049.016.09.018.123h.01a5.722 5.722 0 0 1 .05-.281c.012-.058.025-.111.037-.16l.19-.711h.302l-.403 1.431h-.34zm1.549-1.457c.181 0 .317.04.41.12s.14.205.14.375v.963h-.216l-.058-.203h-.01c-.04.052-.082.094-.125.128s-.093.059-.15.075a.71.71 0 0 1-.205.026c-.085 0-.162-.015-.229-.047s-.12-.08-.159-.145-.058-.146-.058-.246c0-.147.055-.258.164-.332s.277-.115.499-.123l.248-.009v-.075c0-.099-.023-.17-.07-.212s-.11-.063-.194-.063c-.072 0-.141.01-.208.031s-.133.046-.196.076l-.098-.215a1.117 1.117 0 0 1 .517-.125zm.248.775-.185.006c-.152.005-.258.031-.319.078s-.092.11-.092.191c0 .071.021.122.063.155s.098.048.167.048c.105 0 .192-.03.261-.089s.105-.149.105-.265v-.124zm1.452-.775a.759.759 0 0 1 .153.014l-.028.284a.616.616 0 0 0-.137-.016c-.054 0-.106.009-.155.027a.363.363 0 0 0-.219.213.503.503 0 0 0-.032.186v.748h-.305v-1.431h.238l.041.252h.014c.028-.051.064-.097.106-.14a.473.473 0 0 1 .326-.14zm.898 1.484c-.171 0-.308-.062-.411-.186s-.154-.309-.154-.552c0-.246.052-.431.156-.557s.243-.189.415-.189c.072 0 .136.01.19.03s.101.045.14.078c.04.033.073.069.101.11h.014l-.016-.115a1.008 1.008 0 0 1-.008-.141v-.514h.305v2.011h-.238l-.054-.195h-.013a.452.452 0 0 1-.238.191.541.541 0 0 1-.19.03zm.085-.247c.13 0 .222-.037.275-.112s.081-.187.083-.337v-.04c0-.16-.026-.283-.078-.368s-.146-.129-.283-.129c-.109 0-.193.044-.251.133s-.085.211-.085.368.028.278.085.362a.289.289 0 0 0 .253.124zm2.044-.187c0 .094-.023.173-.069.238s-.112.114-.2.147a.909.909 0 0 1-.32.049c-.1 0-.186-.007-.258-.022s-.139-.035-.203-.065v-.262c.068.032.144.059.229.083s.166.035.242.035c.1 0 .172-.016.216-.047s.066-.074.066-.127c0-.031-.009-.059-.027-.083s-.05-.05-.098-.076a1.781 1.781 0 0 0-.209-.096c-.09-.036-.167-.072-.229-.109s-.109-.08-.141-.131a.372.372 0 0 1-.048-.198c0-.127.05-.223.15-.288s.234-.099.399-.099c.088 0 .171.009.248.027s.155.043.23.076l-.096.229c-.065-.028-.13-.052-.195-.07s-.131-.028-.198-.028c-.078 0-.138.012-.18.036s-.061.059-.061.103c0 .034.01.062.03.085s.054.047.102.07c.049.023.117.052.204.087.085.033.159.067.221.103s.111.079.145.131.05.118.05.2zm1.731-.791h-.348v1.199h-.304v-1.199h-.234v-.146l.234-.089v-.099c0-.121.019-.218.057-.289s.094-.123.165-.154a.635.635 0 0 1 .258-.048.917.917 0 0 1 .317.053l-.079.23c-.029-.009-.062-.018-.098-.026s-.075-.013-.116-.013c-.069 0-.12.022-.152.065s-.048.106-.048.189v.097h.348v.231zm1.511.481c0 .119-.016.224-.047.317s-.076.17-.136.234c-.059.063-.131.111-.215.145s-.178.049-.283.049c-.098 0-.188-.016-.27-.049a.602.602 0 0 1-.351-.379.964.964 0 0 1-.049-.317c0-.158.027-.291.081-.401s.134-.194.235-.252.223-.087.363-.087c.132 0 .248.029.349.087s.18.142.236.252c.057.11.085.244.085.401zm-1.038 0c0 .104.012.193.037.267s.066.131.119.171c.053.039.122.058.207.058s.153-.019.207-.058c.053-.04.093-.096.118-.171s.037-.163.037-.267c0-.104-.012-.193-.037-.265s-.064-.129-.118-.167a.344.344 0 0 0-.208-.058c-.126 0-.218.042-.275.127s-.087.205-.087.363zm2.111-.74a.759.759 0 0 1 .153.014l-.028.284a.455.455 0 0 0-.137-.016c-.054 0-.106.009-.155.027s-.093.044-.131.08c-.038.035-.068.08-.089.133s-.032.115-.032.186v.748h-.305v-1.431h.238l.041.252h.014c.028-.051.064-.097.106-.14a.473.473 0 0 1 .326-.14zm1.675 0c.128 0 .237.026.328.079s.162.127.211.224a.755.755 0 0 1 .074.346v.163h-.955c.003.139.041.246.111.32s.171.112.3.112a1.086 1.086 0 0 0 .472-.105v.247a1.002 1.002 0 0 1-.484.097c-.14 0-.264-.027-.371-.081s-.189-.137-.249-.246c-.059-.109-.089-.243-.089-.404s.027-.296.081-.408.131-.197.229-.256a.655.655 0 0 1 .344-.088zm0 .229c-.096 0-.173.031-.233.093s-.093.153-.103.273h.651c-.001-.072-.013-.135-.036-.19s-.057-.098-.103-.129a.307.307 0 0 0-.176-.047zm1.272.498-.478-.699h.346l.327.503.328-.503h.345l-.481.699.505.731h-.348l-.35-.536-.352.536h-.345l.501-.731zm1.717.757c-.135 0-.252-.026-.352-.079s-.175-.133-.229-.242a.943.943 0 0 1-.08-.414c0-.174.029-.316.088-.426s.14-.192.243-.244a.78.78 0 0 1 .358-.079.966.966 0 0 1 .408.087l-.09.243c-.052-.022-.106-.04-.161-.054s-.108-.022-.159-.022c-.084 0-.153.019-.209.056s-.096.092-.124.165a.795.795 0 0 0-.04.273c0 .105.014.194.041.266s.068.126.123.163a.353.353 0 0 0 .2.054.728.728 0 0 0 .387-.102v.264c-.054.031-.112.054-.174.068s-.138.023-.229.023zm1.309-1.484c.128 0 .237.026.328.079s.161.127.211.224.074.212.074.346v.163h-.955c.004.139.041.246.111.32s.172.112.3.112a1.086 1.086 0 0 0 .472-.105v.247c-.071.034-.144.058-.218.074s-.163.023-.266.023c-.14 0-.264-.027-.371-.081s-.189-.137-.25-.246c-.059-.109-.089-.243-.089-.404s.027-.296.081-.408c.054-.112.131-.197.229-.256s.213-.088.344-.088zm0 .229c-.096 0-.173.031-.233.093s-.093.153-.103.273h.651c-.001-.072-.013-.135-.036-.19s-.057-.098-.103-.129a.307.307 0 0 0-.176-.047zm1.26 1.229h-.305v-2.011h.305v2.011zm.74 0h-.305v-2.011h.305v2.011zm1.004-1.458c.128 0 .237.026.328.079s.162.127.211.224.074.212.074.346v.163h-.955c.003.139.04.246.111.32s.171.112.3.112a1.07 1.07 0 0 0 .471-.105v.247c-.071.034-.144.058-.218.074s-.163.023-.266.023c-.14 0-.264-.027-.371-.081s-.189-.137-.25-.246c-.059-.109-.089-.243-.089-.404s.027-.296.082-.408c.054-.112.13-.197.229-.256s.213-.088.344-.088zm0 .229c-.096 0-.173.031-.233.093s-.093.153-.103.273h.651c-.001-.072-.013-.135-.036-.19s-.057-.098-.103-.129a.307.307 0 0 0-.176-.047zm1.7-.229c.161 0 .287.042.376.125s.136.216.136.399v.933h-.304v-.876c0-.111-.023-.194-.069-.249s-.116-.084-.212-.084c-.139 0-.235.043-.289.128s-.08.209-.08.371v.711h-.304v-1.431h.236l.043.194h.017a.424.424 0 0 1 .115-.123c.047-.033.098-.057.155-.074s.118-.025.18-.025zm1.47 1.238a.664.664 0 0 0 .224-.037v.23a.83.83 0 0 1-.298.053c-.081 0-.154-.013-.218-.04s-.116-.075-.154-.141a.555.555 0 0 1-.057-.275v-.769h-.195v-.136l.209-.107.1-.306h.191v.318h.41v.231h-.41v.765c0 .072.018.126.054.162s.084.053.143.053zm-16.086 3.421c0 .094-.023.173-.068.238s-.112.114-.2.147a.909.909 0 0 1-.32.049c-.1 0-.186-.007-.258-.022s-.139-.035-.203-.064v-.262c.068.032.144.059.229.083s.166.035.242.035c.1 0 .172-.015.216-.046s.066-.074.066-.127c0-.031-.009-.058-.027-.083s-.05-.051-.098-.076a1.781 1.781 0 0 0-.209-.096c-.09-.036-.167-.072-.229-.108s-.109-.08-.141-.13a.372.372 0 0 1-.048-.198c0-.127.05-.223.15-.288s.234-.1.399-.1c.088 0 .171.009.248.027s.155.043.23.076l-.096.229c-.065-.028-.13-.052-.195-.07s-.131-.028-.198-.028c-.078 0-.138.012-.18.036s-.061.058-.061.103c0 .033.01.062.03.085s.054.047.102.07c.049.023.117.052.204.087.085.033.159.067.221.103s.111.079.145.13.05.119.05.2zm.899-1.05c.128 0 .237.026.328.079s.162.127.211.224a.755.755 0 0 1 .074.346v.163h-.955c.003.139.041.246.111.32s.171.113.3.113a1.086 1.086 0 0 0 .472-.105v.247c-.072.033-.144.058-.218.074s-.163.023-.266.023c-.14 0-.264-.027-.371-.081s-.189-.137-.249-.245c-.059-.109-.089-.244-.089-.405s.027-.296.081-.408c.054-.112.131-.197.229-.256s.213-.088.344-.088zm0 .229c-.096 0-.173.031-.233.093s-.093.153-.103.273h.651c-.001-.071-.013-.135-.036-.19s-.057-.098-.103-.129a.307.307 0 0 0-.176-.046zm1.68-.229a.759.759 0 0 1 .153.014l-.028.284a.455.455 0 0 0-.137-.016c-.054 0-.106.009-.155.027s-.093.044-.131.08c-.038.035-.068.08-.089.133s-.032.116-.032.186v.748h-.305v-1.431h.238l.041.252h.014c.028-.051.064-.097.106-.14a.473.473 0 0 1 .326-.14zm.744 1.458-.544-1.431h.322l.295.84a1.99 1.99 0 0 1 .084.329h.01c.006-.044.018-.096.035-.158s.035-.119.053-.172l.295-.84h.32l-.544 1.431h-.326zm1.39-1.43v1.431h-.304v-1.431h.304zm-.149-.548c.047 0 .087.012.12.038s.052.068.052.129c0 .06-.017.103-.052.129s-.074.038-.12.038c-.048 0-.089-.012-.123-.038s-.049-.069-.049-.129c0-.061.016-.104.049-.129s.075-.038.123-.038zm1.161 2.004c-.135 0-.252-.026-.352-.079s-.175-.133-.229-.242a.938.938 0 0 1-.08-.413c0-.174.029-.316.088-.427s.14-.192.243-.244a.792.792 0 0 1 .358-.079.966.966 0 0 1 .408.087l-.09.243c-.053-.021-.106-.04-.162-.054s-.108-.022-.159-.022c-.084 0-.153.019-.209.056s-.096.092-.124.166a.795.795 0 0 0-.04.273c0 .105.014.194.041.266s.069.126.123.163c.054.036.121.054.2.054a.754.754 0 0 0 .387-.102v.264c-.054.031-.112.054-.174.069s-.138.023-.229.023zm1.309-1.484c.128 0 .237.026.328.079s.162.127.211.224.074.212.074.346v.163h-.955c.003.139.041.246.111.32s.171.113.3.113a1.07 1.07 0 0 0 .471-.105v.247a1.039 1.039 0 0 1-.484.097c-.14 0-.264-.027-.371-.081s-.189-.137-.249-.245c-.059-.109-.089-.244-.089-.405s.027-.296.081-.408c.054-.112.131-.197.229-.256s.213-.088.344-.088zm0 .229c-.096 0-.173.031-.233.093s-.093.153-.103.273h.651c-.001-.071-.013-.135-.036-.19s-.057-.098-.103-.129a.307.307 0 0 0-.176-.046z"/>
      <path fill="#ff6c00" style="fill:var(--color4, #ff6c00)" d="M26.991 9.062h.752v.335h-.752v.759h-.335v-.759h-.75v-.335h.75v-.767h.335v.767z"/>
    </symbol>
    <symbol id="icon-Feature-1" viewBox="0 0 41 32">
      <path fill="#f7f7f7" style="fill:var(--color2, #f7f7f7)" d="M0 0h40.902v32H0V0z"/>
      <path fill="#303030" style="fill:var(--color3, #303030)" d="M10.063 12.575c0-.414.03-.824.089-1.229.062-.408.169-.791.321-1.15.151-.362.363-.681.636-.957.273-.28.62-.498 1.041-.656.421-.161.931-.242 1.53-.242.141 0 .306.007.493.02.191.01.349.028.474.054v1.219a3.646 3.646 0 0 0-.424-.069 3.312 3.312 0 0 0-.444-.03c-.599 0-1.063.095-1.391.286a1.58 1.58 0 0 0-.691.794 3.73 3.73 0 0 0-.232 1.174h.064a1.74 1.74 0 0 1 .345-.429c.141-.125.313-.224.513-.296.201-.076.436-.114.706-.114.421 0 .786.09 1.095.271.309.178.548.436.715.775s.252.752.252 1.239c0 .52-.1.967-.301 1.342s-.485.663-.854.864c-.365.197-.799.296-1.303.296-.368 0-.712-.063-1.031-.188-.319-.128-.599-.322-.839-.582s-.428-.587-.563-.982c-.135-.398-.202-.868-.202-1.411zm2.605 1.944c.299 0 .543-.102.73-.306s.281-.523.281-.957c0-.352-.082-.628-.247-.829-.161-.204-.406-.306-.735-.306a1.132 1.132 0 0 0-.982.533.891.891 0 0 0-.138.469c0 .168.023.334.069.498s.115.314.207.449c.092.135.206.243.34.326a.91.91 0 0 0 .474.123zm8.736-2.487c0 .582-.046 1.102-.138 1.559a3.398 3.398 0 0 1-.434 1.164c-.197.319-.457.563-.78.73s-.714.252-1.174.252c-.579 0-1.054-.146-1.426-.439-.372-.296-.646-.72-.824-1.273-.178-.556-.266-1.22-.266-1.993 0-.78.081-1.446.242-1.998.164-.556.431-.982.799-1.278s.86-.444 1.475-.444c.576 0 1.049.148 1.421.444.375.293.653.717.834 1.273.181.553.271 1.22.271 2.003zm-3.528 0c0 .549.03 1.008.089 1.377.063.365.166.64.311.824s.345.276.602.276c.253 0 .452-.09.597-.271.148-.184.253-.459.316-.824.063-.368.094-.829.094-1.382 0-.549-.031-1.008-.094-1.377s-.168-.645-.316-.829a.712.712 0 0 0-.597-.281.719.719 0 0 0-.602.281c-.145.184-.248.461-.311.829a8.917 8.917 0 0 0-.089 1.377zm9.816 0c0 .582-.046 1.102-.138 1.559a3.398 3.398 0 0 1-.434 1.164c-.197.319-.457.563-.78.73s-.714.252-1.174.252c-.579 0-1.054-.146-1.426-.439-.372-.296-.646-.72-.824-1.273-.178-.556-.266-1.22-.266-1.993 0-.78.081-1.446.242-1.998.164-.556.431-.982.799-1.278s.86-.444 1.475-.444c.576 0 1.049.148 1.421.444.375.293.653.717.834 1.273.181.553.271 1.22.271 2.003zm-3.528 0c0 .549.03 1.008.089 1.377.063.365.166.64.311.824s.346.276.602.276c.253 0 .452-.09.597-.271.148-.184.253-.459.316-.824.063-.368.094-.829.094-1.382 0-.549-.031-1.008-.094-1.377s-.168-.645-.316-.829a.712.712 0 0 0-.597-.281.72.72 0 0 0-.602.281c-.145.184-.248.461-.311.829a8.917 8.917 0 0 0-.089 1.377zM9.262 22.343c0 .112-.028.208-.083.289s-.133.143-.235.186a.932.932 0 0 1-.364.065 1.572 1.572 0 0 1-.376-.046.862.862 0 0 1-.151-.056v-.292c.077.034.162.064.257.092s.191.04.289.04c.08 0 .146-.01.199-.031s.093-.052.119-.09a.248.248 0 0 0 .039-.138c0-.056-.015-.103-.045-.142s-.076-.074-.137-.106a2.206 2.206 0 0 0-.227-.105c-.062-.025-.121-.053-.178-.085s-.106-.069-.15-.112-.079-.094-.105-.152a.535.535 0 0 1-.037-.209c0-.107.025-.198.076-.274s.124-.134.217-.174a.813.813 0 0 1 .328-.061c.099 0 .192.01.279.031s.174.05.258.088l-.098.249c-.078-.032-.153-.057-.226-.076s-.146-.028-.222-.028c-.065 0-.121.01-.167.03s-.081.048-.105.084a.228.228 0 0 0-.035.127c0 .055.013.102.04.14s.07.071.127.102c.058.031.132.065.222.103.104.043.193.088.265.136s.129.104.168.171a.478.478 0 0 1 .058.247zm.895-.944c.181 0 .317.04.41.12s.14.205.14.375v.963h-.216l-.058-.203h-.01c-.04.052-.082.094-.125.128s-.093.059-.15.075a.71.71 0 0 1-.205.026c-.085 0-.162-.015-.229-.047s-.12-.08-.159-.145-.058-.146-.058-.246c0-.147.055-.258.164-.332s.277-.115.499-.123l.248-.009v-.075c0-.099-.023-.17-.07-.212s-.11-.063-.194-.063c-.072 0-.141.01-.208.031s-.133.046-.196.076l-.098-.215a1.117 1.117 0 0 1 .517-.125zm.248.775-.185.006c-.152.005-.258.031-.319.078s-.092.11-.092.191c0 .071.021.122.063.155s.098.048.167.048c.105 0 .192-.03.261-.089s.105-.149.105-.265v-.124zm1.259.463a.664.664 0 0 0 .224-.037v.23a.83.83 0 0 1-.298.053c-.081 0-.154-.013-.218-.04s-.116-.075-.154-.141-.057-.158-.057-.275v-.769h-.195v-.136l.209-.107.1-.306h.191v.318h.41v.231h-.41v.765c0 .072.018.126.054.162s.084.053.143.053zm.818-1.21v1.431h-.304v-1.431h.304zm-.15-.548c.047 0 .087.012.12.037s.052.068.052.129c0 .06-.017.103-.052.129s-.074.038-.12.038c-.048 0-.089-.012-.123-.038s-.049-.069-.049-.129c0-.061.016-.104.049-.129s.075-.037.123-.037zm1.547 1.57c0 .094-.023.173-.069.238s-.112.114-.2.147a.909.909 0 0 1-.32.049c-.1 0-.186-.007-.258-.022s-.139-.035-.203-.065v-.262c.068.032.144.059.229.083s.166.035.242.035c.1 0 .172-.016.216-.047s.066-.074.066-.127c0-.031-.009-.059-.027-.083s-.05-.05-.098-.076a1.781 1.781 0 0 0-.209-.096c-.09-.036-.167-.072-.229-.109s-.109-.08-.141-.131a.372.372 0 0 1-.048-.198c0-.127.05-.223.15-.288s.234-.099.399-.099c.088 0 .171.009.248.027s.155.043.23.076l-.096.229c-.065-.028-.13-.052-.195-.07s-.13-.028-.198-.028c-.078 0-.138.012-.18.036s-.061.059-.061.103c0 .034.01.062.03.085s.054.047.102.07c.049.023.117.052.204.087.085.033.159.067.221.103s.111.079.145.131.05.118.05.2zm1.042-.791h-.348v1.199h-.304v-1.199h-.234v-.146l.234-.089v-.099c0-.121.019-.218.057-.289s.094-.123.165-.154a.635.635 0 0 1 .258-.048.917.917 0 0 1 .317.053l-.079.23c-.029-.009-.062-.018-.098-.026s-.075-.013-.116-.013c-.069 0-.12.022-.152.065s-.048.106-.048.189v.097h.348v.231zm.547-.231v1.431h-.304v-1.431h.304zm-.15-.548c.047 0 .087.012.12.037s.052.068.052.129c0 .06-.017.103-.052.129s-.074.038-.12.038c-.048 0-.089-.012-.123-.038s-.049-.069-.049-.129c0-.061.016-.104.049-.129s.075-.037.123-.037zm1.154.52c.128 0 .237.026.328.079s.162.127.211.224a.755.755 0 0 1 .074.346v.163h-.955c.003.139.041.246.111.32s.171.112.3.112a1.086 1.086 0 0 0 .472-.105v.247a1.002 1.002 0 0 1-.484.097c-.14 0-.264-.027-.371-.081s-.189-.137-.249-.246c-.059-.109-.089-.243-.089-.404s.027-.296.081-.408.131-.197.229-.256a.655.655 0 0 1 .344-.088zm0 .229c-.096 0-.173.031-.233.093s-.093.153-.103.273h.651c-.001-.072-.013-.135-.036-.19s-.057-.098-.103-.129a.307.307 0 0 0-.176-.047zm1.436 1.255c-.171 0-.308-.062-.411-.186s-.154-.309-.154-.552c0-.246.052-.431.156-.557s.243-.189.415-.189c.072 0 .136.01.19.03s.101.045.14.078c.04.033.073.069.101.11h.014l-.016-.115a1.008 1.008 0 0 1-.008-.141v-.514h.305v2.011h-.238l-.054-.195h-.013a.452.452 0 0 1-.238.191.541.541 0 0 1-.19.03zm.085-.247c.13 0 .222-.037.275-.112s.081-.187.083-.337v-.04c0-.16-.026-.283-.078-.368s-.146-.129-.283-.129c-.109 0-.193.044-.251.133s-.085.211-.085.368.028.278.085.362a.289.289 0 0 0 .253.124zm2.347.247c-.135 0-.252-.026-.352-.079s-.175-.133-.229-.242a.943.943 0 0 1-.08-.414c0-.174.029-.316.088-.426s.14-.192.243-.244a.78.78 0 0 1 .358-.079.966.966 0 0 1 .408.087l-.09.243c-.053-.022-.106-.04-.162-.054s-.108-.022-.159-.022c-.084 0-.153.019-.209.056s-.096.092-.124.165a.795.795 0 0 0-.04.273c0 .105.014.194.041.266s.069.126.123.163c.054.036.121.054.2.054s.149-.009.211-.028.121-.044.176-.074v.264c-.054.031-.112.054-.174.068s-.138.023-.229.023zm1.986-1.456v1.431h-.239l-.041-.193h-.017c-.03.049-.069.09-.115.123s-.098.056-.155.071a.663.663 0 0 1-.18.025c-.108 0-.2-.018-.277-.054s-.134-.094-.174-.171-.061-.176-.061-.297v-.934h.305v.877c0 .111.022.194.067.249s.116.083.212.083c.092 0 .165-.019.22-.057s.093-.094.115-.168a.93.93 0 0 0 .035-.273v-.712h.305zm1.397 1.022c0 .094-.023.173-.069.238s-.112.114-.2.147a.909.909 0 0 1-.32.049c-.1 0-.186-.007-.258-.022s-.139-.035-.203-.065v-.262c.068.032.144.059.229.083s.166.035.242.035c.1 0 .172-.016.216-.047s.066-.074.066-.127c0-.031-.009-.059-.027-.083s-.05-.05-.098-.076a1.781 1.781 0 0 0-.209-.096c-.09-.036-.167-.072-.229-.109s-.109-.08-.141-.131a.372.372 0 0 1-.048-.198c0-.127.05-.223.15-.288s.234-.099.399-.099c.088 0 .171.009.248.027s.155.043.23.076l-.096.229c-.065-.028-.13-.052-.195-.07s-.131-.028-.198-.028c-.078 0-.138.012-.18.036s-.061.059-.061.103c0 .034.01.062.03.085s.054.047.102.07c.049.023.117.052.204.087.085.033.159.067.221.103s.111.079.145.131.05.118.05.2zm.861.188a.672.672 0 0 0 .224-.037v.23a.827.827 0 0 1-.297.053c-.081 0-.154-.013-.218-.04s-.116-.075-.154-.141a.555.555 0 0 1-.057-.275v-.769h-.195v-.136l.209-.107.1-.306h.191v.318h.41v.231h-.41v.765c0 .072.018.126.054.162s.084.053.143.053zm1.781-.498c0 .119-.015.224-.046.317s-.076.17-.136.234c-.059.063-.131.111-.215.145s-.178.049-.283.049c-.098 0-.188-.016-.27-.049a.602.602 0 0 1-.351-.379.938.938 0 0 1-.049-.317c0-.158.027-.291.082-.401s.134-.194.235-.252a.722.722 0 0 1 .363-.087c.132 0 .248.029.349.087s.18.142.236.252c.057.11.085.244.085.401zm-1.038 0c0 .104.012.193.038.267s.065.131.119.171c.053.039.122.058.207.058s.154-.019.207-.058c.053-.04.093-.096.118-.171s.037-.163.037-.267-.012-.193-.037-.265c-.025-.073-.064-.129-.118-.167s-.123-.058-.208-.058c-.126 0-.218.042-.275.127s-.087.205-.087.363zm3.003-.74c.16 0 .281.041.362.124.082.083.123.215.123.398v.936h-.304v-.881c0-.109-.021-.19-.064-.246s-.106-.083-.192-.083c-.121 0-.208.039-.261.116a.596.596 0 0 0-.079.335v.759h-.304v-.881a.499.499 0 0 0-.028-.181c-.018-.049-.046-.086-.084-.11s-.086-.037-.143-.037c-.084 0-.15.019-.2.057s-.084.094-.106.168a.951.951 0 0 0-.032.27v.715h-.304v-1.431h.236l.043.193h.017c.029-.05.065-.091.108-.123s.093-.057.146-.072a.577.577 0 0 1 .167-.025c.107 0 .197.019.27.057s.128.094.164.171h.023c.045-.078.107-.135.187-.172s.165-.056.255-.056zm1.479 0c.128 0 .237.026.328.079s.162.127.211.224.074.212.074.346v.163h-.955c.003.139.04.246.111.32s.171.112.3.112a1.07 1.07 0 0 0 .471-.105v.247c-.071.034-.144.058-.218.074s-.163.023-.266.023c-.14 0-.264-.027-.371-.081s-.189-.137-.25-.246c-.059-.109-.089-.243-.089-.404s.027-.296.082-.408c.054-.112.13-.197.229-.256s.213-.088.344-.088zm0 .229c-.096 0-.173.031-.233.093s-.093.153-.103.273h.651c-.001-.072-.013-.135-.036-.19s-.057-.098-.103-.129a.307.307 0 0 0-.176-.047zm1.68-.229a.759.759 0 0 1 .153.014l-.028.284a.616.616 0 0 0-.137-.016c-.054 0-.106.009-.155.027a.363.363 0 0 0-.219.213.503.503 0 0 0-.032.186v.748h-.305v-1.431h.238l.041.252h.014c.028-.051.064-.097.106-.14a.473.473 0 0 1 .326-.14zm1.378 1.05c0 .094-.023.173-.068.238s-.112.114-.2.147a.909.909 0 0 1-.32.049c-.1 0-.186-.007-.258-.022s-.139-.035-.203-.065v-.262c.068.032.144.059.229.083a.93.93 0 0 0 .242.035c.1 0 .172-.016.216-.047s.066-.074.066-.127c0-.031-.009-.059-.027-.083s-.05-.05-.098-.076a1.781 1.781 0 0 0-.209-.096c-.09-.036-.167-.072-.229-.109s-.109-.08-.141-.131a.372.372 0 0 1-.048-.198c0-.127.05-.223.15-.288s.234-.099.399-.099c.088 0 .171.009.248.027s.155.043.23.076l-.096.229c-.064-.028-.13-.052-.195-.07s-.13-.028-.198-.028c-.078 0-.138.012-.18.036s-.061.059-.061.103c0 .034.01.062.03.085s.054.047.102.07c.049.023.117.052.204.087.085.033.159.067.221.103.063.035.111.079.145.131s.05.118.05.2zM16.6 25.008c.17 0 .306.062.408.186s.155.308.155.553c0 .162-.024.298-.072.41s-.114.194-.2.251a.532.532 0 0 1-.299.084c-.072 0-.135-.009-.189-.028a.47.47 0 0 1-.233-.175h-.018l.012.115c.004.042.006.079.006.114v.583h-.305v-2.065h.248l.043.198h.014c.027-.04.059-.078.097-.112s.085-.062.14-.082a.539.539 0 0 1 .193-.031zm-.081.249c-.084 0-.151.017-.202.05s-.087.082-.11.149a.853.853 0 0 0-.036.249v.043c0 .106.011.196.032.27s.059.129.11.168a.345.345 0 0 0 .209.057c.074 0 .135-.02.183-.061s.086-.098.11-.173a.871.871 0 0 0 .036-.265c0-.154-.028-.274-.083-.359s-.138-.128-.251-.128zm1.566-.249c.128 0 .237.026.328.079s.162.127.211.224a.755.755 0 0 1 .074.346v.163h-.955c.003.139.041.246.111.32s.171.113.3.113a1.086 1.086 0 0 0 .472-.105v.247c-.072.033-.144.058-.218.074s-.163.023-.266.023c-.14 0-.264-.027-.371-.081s-.189-.137-.249-.245c-.059-.109-.089-.244-.089-.405s.027-.296.081-.408c.054-.112.131-.197.229-.256s.213-.088.344-.088zm0 .229c-.096 0-.173.031-.233.093s-.093.153-.103.273h.651c-.001-.071-.013-.135-.036-.19s-.057-.098-.103-.129a.307.307 0 0 0-.176-.046zm1.68-.229a.759.759 0 0 1 .153.014l-.028.284a.455.455 0 0 0-.137-.016c-.054 0-.106.009-.155.027s-.093.044-.131.08c-.038.035-.068.08-.089.133s-.032.116-.032.186v.748h-.305v-1.431h.238l.041.252h.014c.028-.051.064-.097.106-.14a.473.473 0 0 1 .326-.14zm1.586 1.484c-.171 0-.308-.062-.411-.186s-.154-.309-.154-.552c0-.246.052-.431.156-.557s.243-.189.415-.189c.072 0 .136.01.19.03a.482.482 0 0 1 .241.187h.014l-.016-.115a1.463 1.463 0 0 1-.008-.141v-.514h.305v2.011h-.238l-.054-.195h-.013a.452.452 0 0 1-.238.191.541.541 0 0 1-.19.03zm.085-.247c.13 0 .222-.038.275-.113s.081-.187.083-.337v-.04c0-.16-.026-.283-.078-.368s-.146-.129-.283-.129c-.109 0-.193.044-.251.133s-.085.211-.085.368.028.278.085.362a.289.289 0 0 0 .253.124zm1.644-1.237c.181 0 .317.04.41.12s.14.205.14.375v.963h-.216l-.058-.203h-.01c-.041.052-.082.094-.125.128s-.093.059-.15.075a.715.715 0 0 1-.205.026c-.085 0-.162-.015-.229-.046s-.12-.08-.159-.145a.472.472 0 0 1-.058-.246c0-.147.055-.258.164-.332s.277-.115.499-.123l.248-.009v-.075c0-.099-.023-.17-.07-.212s-.11-.063-.194-.063c-.072 0-.141.01-.208.031s-.133.046-.196.076l-.098-.215a1.117 1.117 0 0 1 .517-.125zm.248.775-.185.006c-.152.005-.258.031-.319.077s-.092.11-.092.191c0 .07.021.122.063.155s.098.048.167.048c.105 0 .192-.03.261-.089s.105-.148.105-.265v-.124zm.51-.747h.331l.293.817c.013.037.025.074.035.11s.021.07.028.105a.99.99 0 0 1 .021.103h.008a2.26 2.26 0 0 1 .09-.318l.282-.817h.327l-.614 1.627c-.035.093-.079.172-.131.238a.516.516 0 0 1-.42.202c-.043 0-.081-.003-.113-.008s-.059-.009-.081-.014v-.243l.068.012a.589.589 0 0 0 .085.005c.054 0 .101-.011.141-.032s.073-.052.101-.092a.573.573 0 0 0 .068-.133l.051-.134-.571-1.427z"/>
      <path fill="#ff6c00" style="fill:var(--color4, #ff6c00)" d="M30.119 9.062h.752v.335h-.752v.759h-.335v-.759h-.75v-.335h.75v-.767h.335v.767z"/>
    </symbol>
    <symbol id="icon-twitter-1" viewBox="0 0 32 32">
      <path d="M32 6.078c-1.1.493-2.376.857-3.713 1.028l-.068.007a6.556 6.556 0 0 0 2.873-3.579l.013-.046a12.88 12.88 0 0 1-4.076 1.573l-.084.014A6.558 6.558 0 0 0 15.6 9.557v.004c0 .52.043 1.021.152 1.496-5.454-.266-10.28-2.88-13.522-6.861a6.524 6.524 0 0 0-.902 3.313v.001a6.57 6.57 0 0 0 2.914 5.451 6.453 6.453 0 0 1-2.994-.823l.033.017v.072a6.592 6.592 0 0 0 5.213 6.44l.043.008a6.403 6.403 0 0 1-1.662.215h-.061.003c-.419 0-.843-.024-1.242-.112.85 2.598 3.261 4.509 6.13 4.57a13.093 13.093 0 0 1-8.122 2.8H1.57h.001-.062c-.531 0-1.055-.034-1.569-.099l.061.006c2.826 1.846 6.287 2.944 10.004 2.944h.063-.003c12.072 0 18.672-10 18.672-18.669 0-.288-.01-.57-.024-.848a13.203 13.203 0 0 0 3.258-3.355l.03-.047z"/>
    </symbol>
    <symbol id="icon-linkedin-1" viewBox="0 0 32 32">
      <path d="M31.992 32H32V20.262c0-5.741-1.237-10.163-7.947-10.163-3.227 0-5.392 1.77-6.277 3.45h-.093v-2.914h-6.365v21.363h6.627V21.42c0-2.786.528-5.48 3.978-5.48 3.398 0 3.448 3.179 3.448 5.658V32h6.621zM.528 10.635h6.635V32H.528V10.635zM3.843 0A3.843 3.843 0 0 0 0 3.843c0 2.12 1.722 3.878 3.843 3.878 2.12 0 3.842-1.757 3.842-3.878S5.965.002 3.844 0z"/>
    </symbol>
    <symbol id="icon-instagram-2" viewBox="0 0 32 32">
      <path d="M31.968 9.408c-.074-1.701-.349-2.869-.742-3.882a7.839 7.839 0 0 0-1.85-2.837l-.001-.001A7.906 7.906 0 0 0 26.597.861l-.054-.018C25.524.449 24.362.176 22.661.101 20.949.019 20.405 0 16.059 0c-4.344 0-4.888.019-6.595.094-1.699.074-2.869.349-3.88.742a7.847 7.847 0 0 0-2.839 1.85l-.001.001A7.9 7.9 0 0 0 .919 5.465l-.018.054C.506 6.538.232 7.7.157 9.401c-.082 1.712-.101 2.256-.101 6.602 0 4.344.019 4.888.094 6.595.075 1.701.35 2.869.744 3.882a7.915 7.915 0 0 0 1.849 2.837l.001.001c.8.813 1.77 1.443 2.832 1.843 1.019.395 2.182.67 3.882.744 1.707.075 2.251.094 6.595.094 4.346 0 4.89-.019 6.595-.094 1.701-.074 2.869-.349 3.882-.742a8.237 8.237 0 0 0 4.664-4.628l.019-.055c.394-1.019.669-2.182.744-3.882.075-1.707.093-2.251.093-6.595s-.006-4.888-.08-6.595zm-2.88 13.066c-.07 1.563-.333 2.406-.55 2.97a5.341 5.341 0 0 1-3.004 3.024l-.036.012c-.56.219-1.411.482-2.968.55-1.688.075-2.194.094-6.464.094-4.269 0-4.782-.019-6.464-.094-1.563-.069-2.406-.331-2.97-.55a4.953 4.953 0 0 1-1.836-1.192l-.001-.001a4.978 4.978 0 0 1-1.184-1.803L3.6 25.45c-.218-.563-.48-1.413-.549-2.97-.075-1.688-.094-2.195-.094-6.464 0-4.27.019-4.784.094-6.464.069-1.563.331-2.406.549-2.97a4.897 4.897 0 0 1 1.198-1.837l.002-.002a4.972 4.972 0 0 1 1.806-1.182l.034-.011c.56-.219 1.411-.48 2.968-.55 1.688-.074 2.195-.093 6.464-.093 4.275 0 4.782.019 6.464.093 1.563.069 2.406.331 2.97.55a4.91 4.91 0 0 1 1.837 1.194c.531.52.938 1.144 1.195 1.84.218.56.48 1.411.549 2.968.075 1.688.094 2.194.094 6.464 0 4.269-.019 4.768-.094 6.458z"/>
      <path d="M16.059 7.782a8.223 8.223 0 0 0-8.219 8.221 8.223 8.223 0 0 0 16.442.008v-.009a8.223 8.223 0 0 0-8.221-8.221zm0 13.552a5.333 5.333 0 0 1 .001-10.666h.001a5.334 5.334 0 1 1 0 10.668zM26.525 7.458a1.92 1.92 0 0 1-3.84 0 1.92 1.92 0 0 1 3.84 0z"/>
    </symbol>
    <symbol id="icon-envelope-hover" viewBox="0 0 43 32">
      <path d="M38.667 0H4C1.795 0 0 1.795 0 4v24c0 2.205 1.795 4 4 4h34.667c2.205 0 4-1.795 4-4V4c0-2.205-1.795-4-4-4zm0 2.667c.181 0 .355.037.512.104L21.334 18.238 3.489 2.771c.151-.065.327-.104.512-.104h34.667zm0 26.666H4A1.333 1.333 0 0 1 2.667 28V5.587l17.792 15.421c.233.203.539.327.875.327s.642-.124.876-.328l-.002.001L40 5.587V28c0 .736-.597 1.333-1.333 1.333z"/>
    </symbol>
    <symbol id="icon-facebook-1" viewBox="0 0 32 32">
      <path d="M21.328 5.312h2.923V.224A36.483 36.483 0 0 0 20.143 0h-.156.008c-4.213 0-7.099 2.65-7.099 7.52V12H8.25v5.688h4.646V32h5.699V17.69h4.459l.707-5.688h-5.168V8.08c0-1.643.443-2.768 2.734-2.768z"/>
    </symbol>
    <symbol id="icon-phone" viewBox="0 0 32 32">
      <path d="M22 20c-2 2-2 4-4 4s-4-2-6-4-4-4-4-6 2-2 4-4-4-8-6-8-6 6-6 6c0 4 4.109 12.109 8 16s12 8 16 8c0 0 6-4 6-6s-6-8-8-6z"/>
    </symbol>
  </defs>
</svg>
