<svg width="122" height="78" viewBox="0 0 122 78" fill="none" xmlns="http://www.w3.org/2000/svg">
<g id="text">
<path id="20" d="M51.0965 45H30.1375V40.5908L37.6639 32.9824C39.8924 30.6992 41.3484 29.1201 42.032 28.2451C42.7156 27.3564 43.2078 26.5361 43.5086 25.7842C43.8094 25.0322 43.9598 24.2529 43.9598 23.4463C43.9598 22.2432 43.6248 21.3477 42.9549 20.7598C42.2986 20.1719 41.4168 19.8779 40.3094 19.8779C39.1473 19.8779 38.0193 20.1445 36.9256 20.6777C35.8318 21.2109 34.6902 21.9697 33.5008 22.9541L30.0555 18.873C31.532 17.6152 32.7557 16.7266 33.7264 16.207C34.6971 15.6875 35.7566 15.291 36.9051 15.0176C38.0535 14.7305 39.3387 14.5869 40.7605 14.5869C42.6336 14.5869 44.2879 14.9287 45.7234 15.6123C47.159 16.2959 48.2732 17.2529 49.0662 18.4834C49.8592 19.7139 50.2557 21.1221 50.2557 22.708C50.2557 24.0889 50.0096 25.3877 49.5174 26.6045C49.0389 27.8076 48.2869 29.0449 47.2615 30.3164C46.2498 31.5879 44.4588 33.3994 41.8885 35.751L38.033 39.3809V39.668H51.0965V45ZM77.0266 30.0088C77.0266 35.2451 76.1652 39.1211 74.4426 41.6367C72.7336 44.1523 70.0949 45.4102 66.5266 45.4102C63.0676 45.4102 60.4563 44.1113 58.6926 41.5137C56.9426 38.916 56.0676 35.0811 56.0676 30.0088C56.0676 24.7178 56.9221 20.8213 58.6311 18.3193C60.34 15.8037 62.9719 14.5459 66.5266 14.5459C69.9855 14.5459 72.5969 15.8584 74.3605 18.4834C76.1379 21.1084 77.0266 24.9502 77.0266 30.0088ZM62.3635 30.0088C62.3635 33.6865 62.6779 36.3252 63.3068 37.9248C63.9494 39.5107 65.0227 40.3037 66.5266 40.3037C68.0031 40.3037 69.0695 39.4971 69.7258 37.8838C70.382 36.2705 70.7102 33.6455 70.7102 30.0088C70.7102 26.3311 70.3752 23.6924 69.7053 22.0928C69.049 20.4795 67.9895 19.6729 66.5266 19.6729C65.0363 19.6729 63.9699 20.4795 63.3273 22.0928C62.6848 23.6924 62.3635 26.3311 62.3635 30.0088Z" fill="#303030"/>
<path id="Kyiv&#226;&#128;&#153;s best barbers" d="M18.3965 75H16.9141L14.4702 71.4336L13.6968 72.062V75H12.4077L12.4077 67.1475H13.6968L13.6968 70.9019C13.8543 70.7085 14.0137 70.5151 14.1748 70.3218C14.3359 70.1284 14.4971 69.9351 14.6582 69.7417L16.8711 67.1475H18.3267L15.394 70.585L18.3965 75ZM18.4072 69.0542H19.7822L21.0015 72.4487C21.0552 72.6027 21.1035 72.7549 21.1465 72.9053C21.193 73.0521 21.2324 73.1971 21.2646 73.3403C21.3005 73.4836 21.3291 73.6268 21.3506 73.77H21.3828C21.4186 73.5838 21.4688 73.3761 21.5332 73.147C21.6012 72.9142 21.6764 72.6815 21.7588 72.4487L22.9297 69.0542H24.2886L21.7373 75.8164C21.5905 76.2031 21.4097 76.5326 21.1948 76.8047C20.9836 77.0804 20.7329 77.2881 20.4429 77.4277C20.1528 77.571 19.8216 77.6426 19.4492 77.6426C19.2702 77.6426 19.1144 77.6318 18.9819 77.6104C18.8494 77.5924 18.7367 77.5728 18.6436 77.5513V76.5415C18.7187 76.5594 18.8136 76.5755 18.9282 76.5898C19.0428 76.6042 19.161 76.6113 19.2827 76.6113C19.5083 76.6113 19.7035 76.5666 19.8682 76.4771C20.0329 76.3875 20.1725 76.2604 20.2871 76.0957C20.4017 75.9346 20.4966 75.7502 20.5718 75.5425L20.7812 74.9839L18.4072 69.0542ZM26.4531 69.0542L26.4531 75H25.1909L25.1909 69.0542H26.4531ZM25.8301 66.7769C26.0234 66.7769 26.1899 66.8288 26.3296 66.9326C26.4728 67.0365 26.5444 67.2155 26.5444 67.4697C26.5444 67.7204 26.4728 67.8994 26.3296 68.0068C26.1899 68.1107 26.0234 68.1626 25.8301 68.1626C25.6296 68.1626 25.4595 68.1107 25.3198 68.0068C25.1838 67.8994 25.1157 67.7204 25.1157 67.4697C25.1157 67.2155 25.1838 67.0365 25.3198 66.9326C25.4595 66.8288 25.6296 66.7769 25.8301 66.7769ZM29.6221 75L27.3608 69.0542H28.6982L29.9229 72.5454C30.0016 72.7674 30.0732 73.0073 30.1377 73.2651C30.2021 73.5229 30.2469 73.7396 30.272 73.915H30.3149C30.34 73.7324 30.3883 73.514 30.46 73.2598C30.5316 73.002 30.605 72.7638 30.6802 72.5454L31.9048 69.0542H33.2368L30.9756 75H29.6221ZM35.1489 67.1475L35.2295 67.2656C35.165 67.527 35.0809 67.8063 34.9771 68.1035C34.8768 68.4007 34.7676 68.6979 34.6494 68.9951C34.5312 69.2923 34.4113 69.5734 34.2896 69.8384H33.3765C33.4266 69.6271 33.4785 69.4051 33.5322 69.1724C33.5859 68.936 33.6379 68.6997 33.688 68.4634C33.7381 68.2235 33.7829 67.9925 33.8223 67.7705C33.8617 67.5449 33.8957 67.3372 33.9243 67.1475H35.1489ZM40.2622 73.3027C40.2622 73.693 40.1673 74.0225 39.9775 74.291C39.7878 74.5596 39.5103 74.7637 39.145 74.9033C38.7834 75.0394 38.3394 75.1074 37.813 75.1074C37.3976 75.1074 37.0396 75.077 36.7388 75.0161C36.4416 74.9588 36.1605 74.8693 35.8955 74.7476V73.6572C36.1784 73.7897 36.4953 73.9043 36.8462 74.001C37.2007 74.0977 37.5355 74.146 37.8506 74.146C38.266 74.146 38.5649 74.0815 38.7476 73.9526C38.9302 73.8201 39.0215 73.6447 39.0215 73.4263C39.0215 73.2974 38.9839 73.1828 38.9087 73.0825C38.8371 72.9787 38.701 72.873 38.5005 72.7656C38.3035 72.6546 38.0135 72.5221 37.6304 72.3682C37.2544 72.2178 36.9375 72.0674 36.6797 71.917C36.4219 71.7666 36.2267 71.5858 36.0942 71.3745C35.9618 71.1597 35.8955 70.8857 35.8955 70.5527C35.8955 70.0264 36.1032 69.6271 36.5186 69.355C36.9375 69.0793 37.4907 68.9414 38.1782 68.9414C38.5435 68.9414 38.8872 68.979 39.2095 69.0542C39.5353 69.1258 39.854 69.2314 40.1655 69.3711L39.7681 70.3218C39.4995 70.2036 39.2292 70.1069 38.957 70.0317C38.6885 69.953 38.4146 69.9136 38.1353 69.9136C37.8094 69.9136 37.5605 69.9637 37.3887 70.064C37.2204 70.1642 37.1362 70.3075 37.1362 70.4937C37.1362 70.6333 37.1774 70.7515 37.2598 70.8481C37.3421 70.9448 37.4836 71.0415 37.6841 71.1382C37.8882 71.2349 38.1711 71.3548 38.5327 71.498C38.8872 71.6341 39.1934 71.7773 39.4512 71.9277C39.7126 72.0745 39.9131 72.2554 40.0527 72.4702C40.1924 72.6851 40.2622 72.9626 40.2622 73.3027ZM45.7461 66.6426V68.6567C45.7461 68.8895 45.7389 69.1187 45.7246 69.3442C45.7139 69.5662 45.7031 69.7399 45.6924 69.8652H45.7461C45.9072 69.6074 46.131 69.3908 46.4175 69.2153C46.7075 69.0363 47.0781 68.9468 47.5293 68.9468C48.2347 68.9468 48.8022 69.2064 49.2319 69.7256C49.6616 70.2412 49.8765 71.0057 49.8765 72.019C49.8765 72.6922 49.778 73.258 49.5811 73.7163C49.3841 74.1746 49.1066 74.522 48.7485 74.7583C48.394 74.991 47.9769 75.1074 47.4971 75.1074C47.0459 75.1074 46.6807 75.0251 46.4014 74.8604C46.1257 74.6921 45.909 74.4969 45.7515 74.2749H45.6602L45.4292 75H44.4839V66.6426L45.7461 66.6426ZM47.1963 69.9727C46.8382 69.9727 46.5535 70.0443 46.3423 70.1875C46.1346 70.3307 45.9842 70.5456 45.8911 70.832C45.798 71.1149 45.7497 71.4748 45.7461 71.9116V72.0244C45.7461 72.6868 45.8499 73.1935 46.0576 73.5444C46.2689 73.8953 46.652 74.0708 47.207 74.0708C47.6475 74.0708 47.9858 73.8936 48.2222 73.5391C48.4585 73.181 48.5767 72.6689 48.5767 72.0029C48.5767 71.3298 48.4585 70.8231 48.2222 70.4829C47.9894 70.1427 47.6475 69.9727 47.1963 69.9727ZM53.7061 68.9414C54.236 68.9414 54.6908 69.0506 55.0703 69.269C55.4499 69.4875 55.7417 69.7972 55.9458 70.1982C56.1499 70.5993 56.252 71.0791 56.252 71.6377V72.3145H52.2827C52.297 72.891 52.451 73.335 52.7446 73.6465C53.0418 73.958 53.4572 74.1138 53.9907 74.1138C54.3703 74.1138 54.7104 74.078 55.0112 74.0063C55.3156 73.9312 55.6289 73.8219 55.9512 73.6787V74.7046C55.654 74.8442 55.3514 74.9463 55.0435 75.0107C54.7355 75.0752 54.3667 75.1074 53.937 75.1074C53.3534 75.1074 52.8395 74.9946 52.3955 74.769C51.9551 74.5399 51.6095 74.1997 51.3589 73.7485C51.1118 73.2974 50.9883 72.737 50.9883 72.0674C50.9883 71.4014 51.1011 70.8356 51.3267 70.3701C51.5522 69.9046 51.8691 69.5501 52.2773 69.3066C52.6855 69.0632 53.1618 68.9414 53.7061 68.9414ZM53.7061 69.8921C53.3086 69.8921 52.9863 70.021 52.7393 70.2788C52.4958 70.5366 52.3525 70.9144 52.3096 71.4121H55.0166C55.013 71.1149 54.9629 70.8517 54.8662 70.6226C54.7731 70.3934 54.6299 70.2144 54.4365 70.0854C54.2467 69.9565 54.0033 69.8921 53.7061 69.8921ZM61.6714 73.3027C61.6714 73.693 61.5765 74.0225 61.3867 74.291C61.1969 74.5596 60.9194 74.7637 60.5542 74.9033C60.1925 75.0394 59.7485 75.1074 59.2222 75.1074C58.8068 75.1074 58.4487 75.077 58.1479 75.0161C57.8507 74.9588 57.5697 74.8693 57.3047 74.7476V73.6572C57.5876 73.7897 57.9045 73.9043 58.2554 74.001C58.6099 74.0977 58.9447 74.146 59.2598 74.146C59.6751 74.146 59.9741 74.0815 60.1567 73.9526C60.3394 73.8201 60.4307 73.6447 60.4307 73.4263C60.4307 73.2974 60.3931 73.1828 60.3179 73.0825C60.2463 72.9787 60.1102 72.873 59.9097 72.7656C59.7127 72.6546 59.4227 72.5221 59.0396 72.3682C58.6636 72.2178 58.3467 72.0674 58.0889 71.917C57.8311 71.7666 57.6359 71.5858 57.5034 71.3745C57.3709 71.1597 57.3047 70.8857 57.3047 70.5527C57.3047 70.0264 57.5124 69.6271 57.9277 69.355C58.3467 69.0793 58.8999 68.9414 59.5874 68.9414C59.9526 68.9414 60.2964 68.979 60.6187 69.0542C60.9445 69.1258 61.2632 69.2314 61.5747 69.3711L61.1772 70.3218C60.9087 70.2036 60.6383 70.1069 60.3662 70.0317C60.0977 69.953 59.8237 69.9136 59.5444 69.9136C59.2186 69.9136 58.9697 69.9637 58.7979 70.064C58.6296 70.1642 58.5454 70.3075 58.5454 70.4937C58.5454 70.6333 58.5866 70.7515 58.6689 70.8481C58.7513 70.9448 58.8927 71.0415 59.0933 71.1382C59.2974 71.2349 59.5802 71.3548 59.9419 71.498C60.2964 71.6341 60.6025 71.7773 60.8604 71.9277C61.1217 72.0745 61.3223 72.2554 61.4619 72.4702C61.6016 72.6851 61.6714 72.9626 61.6714 73.3027ZM65.2485 74.0869C65.4132 74.0869 65.5762 74.0726 65.7373 74.0439C65.8984 74.0117 66.0452 73.9741 66.1777 73.9312V74.8872C66.0381 74.9481 65.8573 75 65.6353 75.043C65.4132 75.0859 65.1823 75.1074 64.9424 75.1074C64.6058 75.1074 64.3032 75.0519 64.0347 74.9409C63.7661 74.8263 63.5531 74.6312 63.3955 74.3555C63.238 74.0798 63.1592 73.6984 63.1592 73.2114V70.0156H62.3481V69.4517L63.2183 69.0059L63.6318 67.7329H64.4268V69.0542H66.1294V70.0156H64.4268V73.1953C64.4268 73.4961 64.502 73.7199 64.6523 73.8667C64.8027 74.0135 65.0015 74.0869 65.2485 74.0869ZM71.5059 66.6426V68.6567C71.5059 68.8895 71.4987 69.1187 71.4844 69.3442C71.4736 69.5662 71.4629 69.7399 71.4521 69.8652H71.5059C71.667 69.6074 71.8908 69.3908 72.1772 69.2153C72.4673 69.0363 72.8379 68.9468 73.2891 68.9468C73.9945 68.9468 74.562 69.2064 74.9917 69.7256C75.4214 70.2412 75.6362 71.0057 75.6362 72.019C75.6362 72.6922 75.5378 73.258 75.3408 73.7163C75.1439 74.1746 74.8664 74.522 74.5083 74.7583C74.1538 74.991 73.7367 75.1074 73.2568 75.1074C72.8057 75.1074 72.4404 75.0251 72.1611 74.8604C71.8854 74.6921 71.6688 74.4969 71.5112 74.2749H71.4199L71.189 75H70.2437V66.6426H71.5059ZM72.9561 69.9727C72.598 69.9727 72.3133 70.0443 72.1021 70.1875C71.8944 70.3307 71.744 70.5456 71.6509 70.832C71.5578 71.1149 71.5094 71.4748 71.5059 71.9116V72.0244C71.5059 72.6868 71.6097 73.1935 71.8174 73.5444C72.0286 73.8953 72.4118 74.0708 72.9668 74.0708C73.4072 74.0708 73.7456 73.8936 73.9819 73.5391C74.2183 73.181 74.3364 72.6689 74.3364 72.0029C74.3364 71.3298 74.2183 70.8231 73.9819 70.4829C73.7492 70.1427 73.4072 69.9727 72.9561 69.9727ZM79.4282 68.9414C80.1802 68.9414 80.7477 69.1079 81.1309 69.4409C81.5176 69.7739 81.7109 70.2931 81.7109 70.9985V75H80.814L80.5723 74.1567H80.5293C80.361 74.3716 80.1873 74.5488 80.0083 74.6885C79.8293 74.8281 79.6216 74.932 79.3853 75C79.1525 75.0716 78.8678 75.1074 78.5312 75.1074C78.1768 75.1074 77.8599 75.043 77.5806 74.9141C77.3013 74.7816 77.0811 74.5811 76.9199 74.3125C76.7588 74.0439 76.6782 73.7038 76.6782 73.292C76.6782 72.6797 76.9056 72.2196 77.3604 71.9116C77.8187 71.6037 78.5098 71.4336 79.4336 71.4014L80.4648 71.3638V71.0522C80.4648 70.6405 80.3682 70.3468 80.1748 70.1714C79.985 69.9959 79.7165 69.9082 79.3691 69.9082C79.0719 69.9082 78.7837 69.9512 78.5044 70.0371C78.2251 70.123 77.953 70.2287 77.688 70.354L77.2798 69.4624C77.5698 69.3084 77.8993 69.1831 78.2681 69.0864C78.6405 68.9897 79.0272 68.9414 79.4282 68.9414ZM80.4595 72.1587L79.6914 72.1855C79.0612 72.207 78.619 72.3145 78.3647 72.5078C78.1105 72.7012 77.9834 72.9661 77.9834 73.3027C77.9834 73.5964 78.0711 73.8112 78.2466 73.9473C78.422 74.0798 78.653 74.146 78.9395 74.146C79.3763 74.146 79.738 74.0225 80.0244 73.7754C80.3145 73.5247 80.4595 73.1577 80.4595 72.6743V72.1587ZM86.4912 68.9414C86.5915 68.9414 86.7007 68.9468 86.8188 68.9575C86.937 68.9683 87.0391 68.9826 87.125 69.0005L87.0068 70.1821C86.9316 70.1606 86.8385 70.1445 86.7275 70.1338C86.6201 70.123 86.5234 70.1177 86.4375 70.1177C86.2119 70.1177 85.9971 70.1553 85.793 70.2305C85.5889 70.3021 85.408 70.4131 85.2505 70.5635C85.0929 70.7103 84.9694 70.8947 84.8799 71.1167C84.7904 71.3387 84.7456 71.5965 84.7456 71.8901V75H83.478V69.0542H84.4663L84.6382 70.1016H84.6973C84.8154 69.8903 84.9622 69.6969 85.1377 69.5215C85.3132 69.346 85.5137 69.2064 85.7393 69.1025C85.9684 68.9951 86.2191 68.9414 86.4912 68.9414ZM89.4883 66.6426V68.6567C89.4883 68.8895 89.4811 69.1187 89.4668 69.3442C89.4561 69.5662 89.4453 69.7399 89.4346 69.8652H89.4883C89.6494 69.6074 89.8732 69.3908 90.1597 69.2153C90.4497 69.0363 90.8203 68.9468 91.2715 68.9468C91.9769 68.9468 92.5444 69.2064 92.9741 69.7256C93.4038 70.2412 93.6187 71.0057 93.6187 72.019C93.6187 72.6922 93.5202 73.258 93.3232 73.7163C93.1263 74.1746 92.8488 74.522 92.4907 74.7583C92.1362 74.991 91.7191 75.1074 91.2393 75.1074C90.7881 75.1074 90.4229 75.0251 90.1436 74.8604C89.8678 74.6921 89.6512 74.4969 89.4937 74.2749H89.4023L89.1714 75H88.2261V66.6426H89.4883ZM90.9385 69.9727C90.5804 69.9727 90.2957 70.0443 90.0845 70.1875C89.8768 70.3307 89.7264 70.5456 89.6333 70.832C89.5402 71.1149 89.4919 71.4748 89.4883 71.9116V72.0244C89.4883 72.6868 89.5921 73.1935 89.7998 73.5444C90.0111 73.8953 90.3942 74.0708 90.9492 74.0708C91.3896 74.0708 91.728 73.8936 91.9644 73.5391C92.2007 73.181 92.3188 72.6689 92.3188 72.0029C92.3188 71.3298 92.2007 70.8231 91.9644 70.4829C91.7316 70.1427 91.3896 69.9727 90.9385 69.9727ZM97.4482 68.9414C97.9782 68.9414 98.4329 69.0506 98.8125 69.269C99.1921 69.4875 99.4839 69.7972 99.688 70.1982C99.8921 70.5993 99.9941 71.0791 99.9941 71.6377V72.3145H96.0249C96.0392 72.891 96.1932 73.335 96.4868 73.6465C96.784 73.958 97.1994 74.1138 97.7329 74.1138C98.1125 74.1138 98.4526 74.078 98.7534 74.0063C99.0578 73.9312 99.3711 73.8219 99.6934 73.6787V74.7046C99.3962 74.8442 99.0936 74.9463 98.7856 75.0107C98.4777 75.0752 98.1089 75.1074 97.6792 75.1074C97.0955 75.1074 96.5817 74.9946 96.1377 74.769C95.6973 74.5399 95.3517 74.1997 95.1011 73.7485C94.854 73.2974 94.7305 72.737 94.7305 72.0674C94.7305 71.4014 94.8433 70.8356 95.0688 70.3701C95.2944 69.9046 95.6113 69.5501 96.0195 69.3066C96.4277 69.0632 96.904 68.9414 97.4482 68.9414ZM97.4482 69.8921C97.0508 69.8921 96.7285 70.021 96.4814 70.2788C96.238 70.5366 96.0947 70.9144 96.0518 71.4121H98.7588C98.7552 71.1149 98.7051 70.8517 98.6084 70.6226C98.5153 70.3934 98.3721 70.2144 98.1787 70.0854C97.9889 69.9565 97.7454 69.8921 97.4482 69.8921ZM104.431 68.9414C104.531 68.9414 104.64 68.9468 104.758 68.9575C104.876 68.9683 104.979 68.9826 105.064 69.0005L104.946 70.1821C104.871 70.1606 104.778 70.1445 104.667 70.1338C104.56 70.123 104.463 70.1177 104.377 70.1177C104.151 70.1177 103.937 70.1553 103.732 70.2305C103.528 70.3021 103.347 70.4131 103.19 70.5635C103.032 70.7103 102.909 70.8947 102.819 71.1167C102.73 71.3387 102.685 71.5965 102.685 71.8901V75H101.417V69.0542H102.406L102.578 70.1016H102.637C102.755 69.8903 102.902 69.6969 103.077 69.5215C103.253 69.346 103.453 69.2064 103.679 69.1025C103.908 68.9951 104.159 68.9414 104.431 68.9414ZM110.162 73.3027C110.162 73.693 110.067 74.0225 109.877 74.291C109.687 74.5596 109.41 74.7637 109.044 74.9033C108.683 75.0394 108.239 75.1074 107.712 75.1074C107.297 75.1074 106.939 75.077 106.638 75.0161C106.341 74.9588 106.06 74.8693 105.795 74.7476V73.6572C106.078 73.7897 106.395 73.9043 106.746 74.001C107.1 74.0977 107.435 74.146 107.75 74.146C108.165 74.146 108.464 74.0815 108.647 73.9526C108.83 73.8201 108.921 73.6447 108.921 73.4263C108.921 73.2974 108.883 73.1828 108.808 73.0825C108.736 72.9787 108.6 72.873 108.4 72.7656C108.203 72.6546 107.913 72.5221 107.53 72.3682C107.154 72.2178 106.837 72.0674 106.579 71.917C106.321 71.7666 106.126 71.5858 105.994 71.3745C105.861 71.1597 105.795 70.8857 105.795 70.5527C105.795 70.0264 106.003 69.6271 106.418 69.355C106.837 69.0793 107.39 68.9414 108.078 68.9414C108.443 68.9414 108.787 68.979 109.109 69.0542C109.435 69.1258 109.753 69.2314 110.065 69.3711L109.667 70.3218C109.399 70.2036 109.129 70.1069 108.856 70.0317C108.588 69.953 108.314 69.9136 108.035 69.9136C107.709 69.9136 107.46 69.9637 107.288 70.064C107.12 70.1642 107.036 70.3075 107.036 70.4937C107.036 70.6333 107.077 70.7515 107.159 70.8481C107.242 70.9448 107.383 71.0415 107.583 71.1382C107.788 71.2349 108.07 71.3548 108.432 71.498C108.787 71.6341 109.093 71.7773 109.351 71.9277C109.612 72.0745 109.812 72.2554 109.952 72.4702C110.092 72.6851 110.162 72.9626 110.162 73.3027Z" fill="#303030"/>
<path id="+" d="M86.7891 19.0547H83.6797V17.6641H86.7891V14.4766H88.1953V17.6641H91.3125V19.0547H88.1953V22.2266H86.7891V19.0547Z" fill="#FF6C00"/>
</g>
</svg>
