<svg width="122" height="93" viewBox="0 0 122 93" fill="none" xmlns="http://www.w3.org/2000/svg">
<g id="text">
<path id="600" d="M24.3854 32.2646C24.3854 26.3311 25.6363 21.915 28.1383 19.0166C30.6539 16.1182 34.4137 14.6689 39.4176 14.6689C41.1266 14.6689 42.4664 14.7715 43.4371 14.9766V20.042C42.2203 19.7686 41.0172 19.6318 39.8277 19.6318C37.6539 19.6318 35.8766 19.96 34.4957 20.6162C33.1285 21.2725 32.1031 22.2432 31.4195 23.5283C30.7359 24.8135 30.3326 26.6387 30.2096 29.0039H30.4762C31.8297 26.6797 33.9967 25.5176 36.9771 25.5176C39.6568 25.5176 41.7555 26.3584 43.273 28.04C44.7906 29.7217 45.5494 32.0459 45.5494 35.0127C45.5494 38.2119 44.6471 40.748 42.8424 42.6211C41.0377 44.4805 38.5357 45.4102 35.3365 45.4102C33.1217 45.4102 31.1871 44.8975 29.5328 43.8721C27.8922 42.8467 26.6207 41.3496 25.7184 39.3809C24.8297 37.4121 24.3854 35.04 24.3854 32.2646ZM35.2135 40.3447C36.567 40.3447 37.6061 39.8936 38.3307 38.9912C39.0553 38.0752 39.4176 36.7764 39.4176 35.0947C39.4176 33.6318 39.0758 32.4834 38.3922 31.6494C37.7223 30.8018 36.7037 30.3779 35.3365 30.3779C34.0514 30.3779 32.9508 30.7949 32.0348 31.6289C31.1324 32.4629 30.6813 33.4336 30.6813 34.541C30.6813 36.168 31.1051 37.542 31.9527 38.6631C32.8141 39.7842 33.901 40.3447 35.2135 40.3447ZM71.4795 30.0088C71.4795 35.2451 70.6182 39.1211 68.8955 41.6367C67.1865 44.1523 64.5479 45.4102 60.9795 45.4102C57.5205 45.4102 54.9092 44.1113 53.1455 41.5137C51.3955 38.916 50.5205 35.0811 50.5205 30.0088C50.5205 24.7178 51.375 20.8213 53.084 18.3193C54.793 15.8037 57.4248 14.5459 60.9795 14.5459C64.4385 14.5459 67.0498 15.8584 68.8135 18.4834C70.5908 21.1084 71.4795 24.9502 71.4795 30.0088ZM56.8164 30.0088C56.8164 33.6865 57.1309 36.3252 57.7598 37.9248C58.4023 39.5107 59.4756 40.3037 60.9795 40.3037C62.4561 40.3037 63.5225 39.4971 64.1787 37.8838C64.835 36.2705 65.1631 33.6455 65.1631 30.0088C65.1631 26.3311 64.8281 23.6924 64.1582 22.0928C63.502 20.4795 62.4424 19.6729 60.9795 19.6729C59.4893 19.6729 58.4229 20.4795 57.7803 22.0928C57.1377 23.6924 56.8164 26.3311 56.8164 30.0088ZM97.5736 30.0088C97.5736 35.2451 96.7123 39.1211 94.9897 41.6367C93.2807 44.1523 90.642 45.4102 87.0736 45.4102C83.6147 45.4102 81.0033 44.1113 79.2397 41.5137C77.4897 38.916 76.6147 35.0811 76.6147 30.0088C76.6147 24.7178 77.4691 20.8213 79.1781 18.3193C80.8871 15.8037 83.5189 14.5459 87.0736 14.5459C90.5326 14.5459 93.1439 15.8584 94.9076 18.4834C96.685 21.1084 97.5736 24.9502 97.5736 30.0088ZM82.9105 30.0088C82.9105 33.6865 83.225 36.3252 83.8539 37.9248C84.4965 39.5107 85.5697 40.3037 87.0736 40.3037C88.5502 40.3037 89.6166 39.4971 90.2729 37.8838C90.9291 36.2705 91.2572 33.6455 91.2572 30.0088C91.2572 26.3311 90.9223 23.6924 90.2523 22.0928C89.5961 20.4795 88.5365 19.6729 87.0736 19.6729C85.5834 19.6729 84.517 20.4795 83.8744 22.0928C83.2318 23.6924 82.9105 26.3311 82.9105 30.0088Z" fill="#303030"/>
<path id="Satisfied customers per day" d="M14.4971 72.8623C14.4971 73.3278 14.3825 73.7288 14.1533 74.0654C13.9277 74.402 13.6019 74.6598 13.1758 74.8389C12.7533 75.0179 12.2484 75.1074 11.6611 75.1074C11.3747 75.1074 11.1007 75.0913 10.8394 75.0591C10.578 75.0269 10.3309 74.9803 10.0981 74.9194C9.86898 74.855 9.65951 74.778 9.46973 74.6885V73.4746C9.78841 73.6143 10.1447 73.7414 10.5386 73.856C10.9325 73.967 11.3335 74.0225 11.7417 74.0225C12.0747 74.0225 12.3504 73.9795 12.5688 73.8936C12.7909 73.804 12.9556 73.6787 13.063 73.5176C13.1704 73.3529 13.2241 73.1613 13.2241 72.9429C13.2241 72.7101 13.1615 72.5132 13.0361 72.3521C12.9108 72.1909 12.721 72.0441 12.4668 71.9116C12.2161 71.7756 11.901 71.6305 11.5215 71.4766C11.2637 71.3727 11.0166 71.2546 10.7803 71.1221C10.5475 70.9896 10.3398 70.8338 10.1572 70.6548C9.97461 70.4757 9.82959 70.2645 9.72217 70.021C9.61833 69.7739 9.56641 69.4839 9.56641 69.1509C9.56641 68.7069 9.67204 68.3273 9.8833 68.0122C10.0981 67.6971 10.3989 67.4554 10.7856 67.2871C11.1759 67.1188 11.6307 67.0347 12.1499 67.0347C12.5617 67.0347 12.9484 67.0776 13.3101 67.1636C13.6753 67.2495 14.0334 67.3713 14.3843 67.5288L13.9761 68.5654C13.6538 68.4329 13.3405 68.3273 13.0361 68.2485C12.7354 68.1698 12.4274 68.1304 12.1123 68.1304C11.8402 68.1304 11.6092 68.1715 11.4194 68.2539C11.2297 68.3363 11.0846 68.4526 10.9844 68.603C10.8877 68.7498 10.8394 68.9253 10.8394 69.1294C10.8394 69.3586 10.8949 69.5519 11.0059 69.7095C11.1204 69.8634 11.2959 70.0049 11.5322 70.1338C11.7721 70.2627 12.0801 70.4059 12.4561 70.5635C12.8893 70.7425 13.2563 70.9305 13.5571 71.1274C13.8615 71.3244 14.0942 71.5607 14.2554 71.8364C14.4165 72.1086 14.4971 72.4505 14.4971 72.8623ZM18.2139 68.9414C18.9658 68.9414 19.5334 69.1079 19.9165 69.4409C20.3032 69.7739 20.4966 70.2931 20.4966 70.9985L20.4966 75H19.5996L19.3579 74.1567H19.3149C19.1466 74.3716 18.973 74.5488 18.7939 74.6885C18.6149 74.8281 18.4072 74.932 18.1709 75C17.9382 75.0716 17.6535 75.1074 17.3169 75.1074C16.9624 75.1074 16.6455 75.043 16.3662 74.9141C16.0869 74.7816 15.8667 74.5811 15.7056 74.3125C15.5444 74.0439 15.4639 73.7038 15.4639 73.292C15.4639 72.6797 15.6912 72.2196 16.146 71.9116C16.6043 71.6037 17.2954 71.4336 18.2192 71.4014L19.2505 71.3638V71.0522C19.2505 70.6405 19.1538 70.3468 18.9604 70.1714C18.7707 69.9959 18.5021 69.9082 18.1548 69.9082C17.8576 69.9082 17.5693 69.9512 17.29 70.0371C17.0107 70.123 16.7386 70.2287 16.4736 70.354L16.0654 69.4624C16.3555 69.3084 16.6849 69.1831 17.0537 69.0864C17.4261 68.9897 17.8128 68.9414 18.2139 68.9414ZM19.2451 72.1587L18.4771 72.1855C17.8468 72.207 17.4046 72.3145 17.1504 72.5078C16.8962 72.7012 16.769 72.9661 16.769 73.3027C16.769 73.5964 16.8568 73.8112 17.0322 73.9473C17.2077 74.0798 17.4386 74.146 17.7251 74.146C18.1619 74.146 18.5236 74.0225 18.8101 73.7754C19.1001 73.5247 19.2451 73.1577 19.2451 72.6743V72.1587ZM24.4766 74.0869C24.6413 74.0869 24.8042 74.0726 24.9653 74.0439C25.1265 74.0117 25.2733 73.9741 25.4058 73.9312L25.4058 74.8872C25.2661 74.9481 25.0853 75 24.8633 75.043C24.6413 75.0859 24.4103 75.1074 24.1704 75.1074C23.8338 75.1074 23.5312 75.0519 23.2627 74.9409C22.9941 74.8263 22.7811 74.6312 22.6235 74.3555C22.466 74.0798 22.3872 73.6984 22.3872 73.2114V70.0156H21.5762V69.4517L22.4463 69.0059L22.8599 67.7329H23.6548V69.0542H25.3574V70.0156H23.6548V73.1953C23.6548 73.4961 23.73 73.7199 23.8804 73.8667C24.0308 74.0135 24.2295 74.0869 24.4766 74.0869ZM27.8765 69.0542L27.8765 75H26.6143L26.6143 69.0542H27.8765ZM27.2534 66.7769C27.4468 66.7769 27.6133 66.8288 27.7529 66.9326C27.8962 67.0365 27.9678 67.2155 27.9678 67.4697C27.9678 67.7204 27.8962 67.8994 27.7529 68.0068C27.6133 68.1107 27.4468 68.1626 27.2534 68.1626C27.0529 68.1626 26.8828 68.1107 26.7432 68.0068C26.6071 67.8994 26.5391 67.7204 26.5391 67.4697C26.5391 67.2155 26.6071 67.0365 26.7432 66.9326C26.8828 66.8288 27.0529 66.7769 27.2534 66.7769ZM33.6826 73.3027C33.6826 73.693 33.5877 74.0225 33.3979 74.291C33.2082 74.5596 32.9307 74.7637 32.5654 74.9033C32.2038 75.0394 31.7598 75.1074 31.2334 75.1074C30.818 75.1074 30.46 75.077 30.1592 75.0161C29.862 74.9588 29.5809 74.8693 29.3159 74.7476L29.3159 73.6572C29.5988 73.7897 29.9157 73.9043 30.2666 74.001C30.6211 74.0977 30.9559 74.146 31.271 74.146C31.6864 74.146 31.9854 74.0815 32.168 73.9526C32.3506 73.8201 32.4419 73.6447 32.4419 73.4263C32.4419 73.2974 32.4043 73.1828 32.3291 73.0825C32.2575 72.9787 32.1214 72.873 31.9209 72.7656C31.724 72.6546 31.4339 72.5221 31.0508 72.3682C30.6748 72.2178 30.3579 72.0674 30.1001 71.917C29.8423 71.7666 29.6471 71.5858 29.5146 71.3745C29.3822 71.1597 29.3159 70.8857 29.3159 70.5527C29.3159 70.0264 29.5236 69.6271 29.939 69.355C30.3579 69.0793 30.9111 68.9414 31.5986 68.9414C31.9639 68.9414 32.3076 68.979 32.6299 69.0542C32.9557 69.1258 33.2744 69.2314 33.5859 69.3711L33.1885 70.3218C32.9199 70.2036 32.6496 70.1069 32.3774 70.0317C32.1089 69.953 31.835 69.9136 31.5557 69.9136C31.2298 69.9136 30.981 69.9637 30.8091 70.064C30.6408 70.1642 30.5566 70.3075 30.5566 70.4937C30.5566 70.6333 30.5978 70.7515 30.6802 70.8481C30.7625 70.9448 30.904 71.0415 31.1045 71.1382C31.3086 71.2349 31.5915 71.3548 31.9531 71.498C32.3076 71.6341 32.6138 71.7773 32.8716 71.9277C33.133 72.0745 33.3335 72.2554 33.4731 72.4702C33.6128 72.6851 33.6826 72.9626 33.6826 73.3027ZM38.0171 70.0156H36.5723V75H35.3101V70.0156H34.3379V69.4087L35.3101 69.0381V68.6245C35.3101 68.1196 35.3888 67.7186 35.5464 67.4214C35.7075 67.1242 35.9367 66.9111 36.2339 66.7822C36.5347 66.6497 36.8927 66.5835 37.3081 66.5835C37.5802 66.5835 37.8291 66.6068 38.0547 66.6533C38.2803 66.6963 38.4701 66.7464 38.624 66.8037L38.2964 67.7598C38.1746 67.7204 38.0386 67.6846 37.8882 67.6523C37.7378 67.6165 37.5767 67.5986 37.4048 67.5986C37.1183 67.5986 36.9071 67.6882 36.771 67.8672C36.6385 68.0462 36.5723 68.3076 36.5723 68.6514V69.0542H38.0171V70.0156ZM40.2891 69.0542V75H39.0269V69.0542H40.2891ZM39.666 66.7769C39.8594 66.7769 40.0259 66.8288 40.1655 66.9326C40.3088 67.0365 40.3804 67.2155 40.3804 67.4697C40.3804 67.7204 40.3088 67.8994 40.1655 68.0068C40.0259 68.1107 39.8594 68.1626 39.666 68.1626C39.4655 68.1626 39.2954 68.1107 39.1558 68.0068C39.0197 67.8994 38.9517 67.7204 38.9517 67.4697C38.9517 67.2155 39.0197 67.0365 39.1558 66.9326C39.2954 66.8288 39.4655 66.7769 39.666 66.7769ZM44.4624 68.9414C44.9924 68.9414 45.4471 69.0506 45.8267 69.269C46.2062 69.4875 46.498 69.7972 46.7021 70.1982C46.9062 70.5993 47.0083 71.0791 47.0083 71.6377V72.3145H43.0391C43.0534 72.891 43.2074 73.335 43.501 73.6465C43.7982 73.958 44.2135 74.1138 44.7471 74.1138C45.1266 74.1138 45.4668 74.078 45.7676 74.0063C46.0719 73.9312 46.3853 73.8219 46.7075 73.6787V74.7046C46.4103 74.8442 46.1077 74.9463 45.7998 75.0107C45.4919 75.0752 45.123 75.1074 44.6934 75.1074C44.1097 75.1074 43.5959 74.9946 43.1519 74.769C42.7114 74.5399 42.3659 74.1997 42.1152 73.7485C41.8682 73.2974 41.7446 72.737 41.7446 72.0674C41.7446 71.4014 41.8574 70.8356 42.083 70.3701C42.3086 69.9046 42.6255 69.5501 43.0337 69.3066C43.4419 69.0632 43.9181 68.9414 44.4624 68.9414ZM44.4624 69.8921C44.0649 69.8921 43.7427 70.021 43.4956 70.2788C43.2521 70.5366 43.1089 70.9144 43.0659 71.4121H45.7729C45.7694 71.1149 45.7192 70.8517 45.6226 70.6226C45.5295 70.3934 45.3862 70.2144 45.1929 70.0854C45.0031 69.9565 44.7596 69.8921 44.4624 69.8921ZM50.4297 75.1074C49.7207 75.1074 49.1514 74.8496 48.7217 74.334C48.2956 73.8148 48.0825 73.0503 48.0825 72.0405C48.0825 71.02 48.2992 70.2484 48.7324 69.7256C49.1693 69.2028 49.744 68.9414 50.4565 68.9414C50.7573 68.9414 51.0205 68.9826 51.2461 69.0649C51.4717 69.1437 51.665 69.2511 51.8262 69.3872C51.9909 69.5233 52.1305 69.6755 52.2451 69.8438H52.3042C52.2863 69.7327 52.2648 69.5734 52.2397 69.3657C52.2183 69.1545 52.2075 68.9593 52.2075 68.7803V66.6426H53.4751V75H52.4868L52.2612 74.189H52.2075C52.1001 74.3608 51.964 74.5166 51.7993 74.6563C51.6382 74.7923 51.4448 74.9015 51.2192 74.9839C50.9972 75.0662 50.734 75.1074 50.4297 75.1074ZM50.7842 74.0815C51.3249 74.0815 51.7062 73.9258 51.9282 73.6143C52.1502 73.3027 52.2648 72.8354 52.272 72.2124V72.0459C52.272 71.3799 52.1646 70.8696 51.9497 70.5151C51.7349 70.1571 51.3428 69.978 50.7734 69.978C50.3187 69.978 49.9714 70.1624 49.7314 70.5313C49.4951 70.8965 49.377 71.4067 49.377 72.062C49.377 72.7173 49.4951 73.2186 49.7314 73.5659C49.9714 73.9097 50.3223 74.0815 50.7842 74.0815ZM60.5381 75.1074C59.9759 75.1074 59.4889 74.9982 59.0771 74.7798C58.6654 74.5614 58.3485 74.2266 58.1265 73.7754C57.9045 73.3242 57.7935 72.7513 57.7935 72.0566C57.7935 71.3333 57.9152 70.7425 58.1587 70.2842C58.4022 69.8258 58.7388 69.4875 59.1685 69.269C59.6017 69.0506 60.0977 68.9414 60.6562 68.9414C61.0107 68.9414 61.3312 68.9772 61.6177 69.0488C61.9077 69.1169 62.153 69.201 62.3535 69.3013L61.9775 70.311C61.7591 70.2215 61.5353 70.1463 61.3062 70.0854C61.077 70.0246 60.8568 69.9941 60.6455 69.9941C60.2982 69.9941 60.0081 70.0711 59.7754 70.2251C59.5462 70.3791 59.3743 70.6082 59.2598 70.9126C59.1488 71.217 59.0933 71.5947 59.0933 72.0459C59.0933 72.4827 59.1506 72.8516 59.2651 73.1523C59.3797 73.4495 59.5498 73.6751 59.7754 73.8291C60.001 73.9795 60.2785 74.0547 60.6079 74.0547C60.9338 74.0547 61.2256 74.0153 61.4834 73.9365C61.7412 73.8577 61.9847 73.7557 62.2139 73.6304V74.7261C61.9883 74.855 61.7466 74.9499 61.4888 75.0107C61.231 75.0752 60.9141 75.1074 60.5381 75.1074ZM68.7935 69.0542V75H67.7998L67.6279 74.1997H67.5581C67.4328 74.4038 67.2734 74.5739 67.0801 74.71C66.8867 74.8424 66.6719 74.9409 66.4355 75.0054C66.1992 75.0734 65.9504 75.1074 65.689 75.1074C65.2414 75.1074 64.8582 75.0322 64.5396 74.8818C64.2244 74.7279 63.9827 74.4915 63.8145 74.1729C63.6462 73.8542 63.562 73.4424 63.562 72.9375V69.0542H64.8296V72.7012C64.8296 73.1631 64.9227 73.5086 65.1089 73.7378C65.2987 73.967 65.5923 74.0815 65.9897 74.0815C66.3729 74.0815 66.6772 74.0028 66.9028 73.8452C67.1284 73.6877 67.2878 73.4549 67.3809 73.147C67.4775 72.839 67.5259 72.4613 67.5259 72.0137V69.0542H68.7935ZM74.5996 73.3027C74.5996 73.693 74.5047 74.0225 74.3149 74.291C74.1252 74.5596 73.8477 74.7637 73.4824 74.9033C73.1208 75.0394 72.6768 75.1074 72.1504 75.1074C71.735 75.1074 71.377 75.077 71.0762 75.0161C70.779 74.9588 70.4979 74.8693 70.2329 74.7476V73.6572C70.5158 73.7897 70.8327 73.9043 71.1836 74.001C71.5381 74.0977 71.8729 74.146 72.188 74.146C72.6034 74.146 72.9023 74.0815 73.085 73.9526C73.2676 73.8201 73.3589 73.6447 73.3589 73.4263C73.3589 73.2974 73.3213 73.1828 73.2461 73.0825C73.1745 72.9787 73.0384 72.873 72.8379 72.7656C72.641 72.6546 72.3509 72.5221 71.9678 72.3682C71.5918 72.2178 71.2749 72.0674 71.0171 71.917C70.7593 71.7666 70.5641 71.5858 70.4316 71.3745C70.2992 71.1597 70.2329 70.8857 70.2329 70.5527C70.2329 70.0264 70.4406 69.6271 70.856 69.355C71.2749 69.0793 71.8281 68.9414 72.5156 68.9414C72.8809 68.9414 73.2246 68.979 73.5469 69.0542C73.8727 69.1258 74.1914 69.2314 74.5029 69.3711L74.1055 70.3218C73.8369 70.2036 73.5666 70.1069 73.2944 70.0317C73.0259 69.953 72.752 69.9136 72.4727 69.9136C72.1468 69.9136 71.8979 69.9637 71.7261 70.064C71.5578 70.1642 71.4736 70.3075 71.4736 70.4937C71.4736 70.6333 71.5148 70.7515 71.5972 70.8481C71.6795 70.9448 71.821 71.0415 72.0215 71.1382C72.2256 71.2349 72.5085 71.3548 72.8701 71.498C73.2246 71.6341 73.5308 71.7773 73.7886 71.9277C74.05 72.0745 74.2505 72.2554 74.3901 72.4702C74.5298 72.6851 74.5996 72.9626 74.5996 73.3027ZM78.1768 74.0869C78.3415 74.0869 78.5044 74.0726 78.6655 74.0439C78.8267 74.0117 78.9735 73.9741 79.106 73.9312V74.8872C78.9663 74.9481 78.7855 75 78.5635 75.043C78.3415 75.0859 78.1105 75.1074 77.8706 75.1074C77.534 75.1074 77.2314 75.0519 76.9629 74.9409C76.6943 74.8263 76.4813 74.6312 76.3237 74.3555C76.1662 74.0798 76.0874 73.6984 76.0874 73.2114V70.0156H75.2764V69.4517L76.1465 69.0059L76.5601 67.7329H77.355V69.0542H79.0576V70.0156H77.355V73.1953C77.355 73.4961 77.4302 73.7199 77.5806 73.8667C77.731 74.0135 77.9297 74.0869 78.1768 74.0869ZM85.5781 72.0137C85.5781 72.5078 85.5137 72.9465 85.3848 73.3296C85.2559 73.7127 85.0679 74.0368 84.8208 74.3018C84.5737 74.5632 84.2765 74.7637 83.9292 74.9033C83.5819 75.0394 83.1898 75.1074 82.7529 75.1074C82.3447 75.1074 81.9705 75.0394 81.6304 74.9033C81.2902 74.7637 80.9948 74.5632 80.7441 74.3018C80.4971 74.0368 80.3055 73.7127 80.1694 73.3296C80.0334 72.9465 79.9653 72.5078 79.9653 72.0137C79.9653 71.3584 80.0781 70.8034 80.3037 70.3486C80.5329 69.8903 80.8587 69.5412 81.2812 69.3013C81.7038 69.0614 82.2069 68.9414 82.7905 68.9414C83.3384 68.9414 83.8218 69.0614 84.2407 69.3013C84.6597 69.5412 84.9873 69.8903 85.2236 70.3486C85.46 70.807 85.5781 71.362 85.5781 72.0137ZM81.2651 72.0137C81.2651 72.4469 81.3171 72.8175 81.4209 73.1255C81.5283 73.4334 81.693 73.6698 81.915 73.8345C82.137 73.9956 82.4235 74.0762 82.7744 74.0762C83.1253 74.0762 83.4118 73.9956 83.6338 73.8345C83.8558 73.6698 84.0187 73.4334 84.1226 73.1255C84.2264 72.8175 84.2783 72.4469 84.2783 72.0137C84.2783 71.5804 84.2264 71.2134 84.1226 70.9126C84.0187 70.6082 83.8558 70.3773 83.6338 70.2197C83.4118 70.0586 83.1235 69.978 82.769 69.978C82.2463 69.978 81.8649 70.1535 81.625 70.5044C81.3851 70.8553 81.2651 71.3584 81.2651 72.0137ZM93.7476 68.9414C94.4136 68.9414 94.9149 69.1133 95.2515 69.457C95.5916 69.8008 95.7617 70.3522 95.7617 71.1113V75H94.4995V71.3369C94.4995 70.8857 94.4118 70.5456 94.2363 70.3164C94.0609 70.0872 93.7941 69.9727 93.436 69.9727C92.9347 69.9727 92.5731 70.1338 92.3511 70.4561C92.1326 70.7747 92.0234 71.2384 92.0234 71.8472V75H90.7612V71.3369C90.7612 71.0361 90.7218 70.7855 90.6431 70.585C90.5679 70.3809 90.4515 70.2287 90.2939 70.1284C90.1364 70.0246 89.9377 69.9727 89.6978 69.9727C89.3504 69.9727 89.0729 70.0514 88.8652 70.209C88.6611 70.3665 88.5143 70.5993 88.4248 70.9072C88.3353 71.2116 88.2905 71.5858 88.2905 72.0298V75H87.0283V69.0542H88.0112L88.1885 69.8545H88.2583C88.38 69.6468 88.5304 69.4767 88.7095 69.3442C88.8921 69.2082 89.0944 69.1079 89.3164 69.0435C89.5384 68.9754 89.7694 68.9414 90.0093 68.9414C90.4533 68.9414 90.8275 69.0202 91.1318 69.1777C91.4362 69.3317 91.6636 69.568 91.814 69.8867H91.9106C92.0968 69.5645 92.3564 69.3263 92.6895 69.1724C93.0225 69.0184 93.3752 68.9414 93.7476 68.9414ZM99.8921 68.9414C100.422 68.9414 100.877 69.0506 101.256 69.269C101.636 69.4875 101.928 69.7972 102.132 70.1982C102.336 70.5993 102.438 71.0791 102.438 71.6377V72.3145H98.4688C98.4831 72.891 98.637 73.335 98.9307 73.6465C99.2279 73.958 99.6432 74.1138 100.177 74.1138C100.556 74.1138 100.896 74.078 101.197 74.0063C101.502 73.9312 101.815 73.8219 102.137 73.6787V74.7046C101.84 74.8442 101.537 74.9463 101.229 75.0107C100.922 75.0752 100.553 75.1074 100.123 75.1074C99.5394 75.1074 99.0256 74.9946 98.5815 74.769C98.1411 74.5399 97.7956 74.1997 97.5449 73.7485C97.2979 73.2974 97.1743 72.737 97.1743 72.0674C97.1743 71.4014 97.2871 70.8356 97.5127 70.3701C97.7383 69.9046 98.0552 69.5501 98.4634 69.3066C98.8716 69.0632 99.3478 68.9414 99.8921 68.9414ZM99.8921 69.8921C99.4946 69.8921 99.1724 70.021 98.9253 70.2788C98.6818 70.5366 98.5386 70.9144 98.4956 71.4121H101.203C101.199 71.1149 101.149 70.8517 101.052 70.6226C100.959 70.3934 100.816 70.2144 100.623 70.0854C100.433 69.9565 100.189 69.8921 99.8921 69.8921ZM106.875 68.9414C106.975 68.9414 107.084 68.9468 107.202 68.9575C107.32 68.9683 107.422 68.9826 107.508 69.0005L107.39 70.1821C107.315 70.1606 107.222 70.1445 107.111 70.1338C107.003 70.123 106.907 70.1177 106.821 70.1177C106.595 70.1177 106.38 70.1553 106.176 70.2305C105.972 70.3021 105.791 70.4131 105.634 70.5635C105.476 70.7103 105.353 70.8947 105.263 71.1167C105.174 71.3387 105.129 71.5965 105.129 71.8901V75H103.861V69.0542H104.85L105.021 70.1016H105.081C105.199 69.8903 105.346 69.6969 105.521 69.5215C105.696 69.346 105.897 69.2064 106.123 69.1025C106.352 68.9951 106.602 68.9414 106.875 68.9414ZM112.605 73.3027C112.605 73.693 112.511 74.0225 112.321 74.291C112.131 74.5596 111.854 74.7637 111.488 74.9033C111.127 75.0394 110.683 75.1074 110.156 75.1074C109.741 75.1074 109.383 75.077 109.082 75.0161C108.785 74.9588 108.504 74.8693 108.239 74.7476V73.6572C108.522 73.7897 108.839 73.9043 109.189 74.001C109.544 74.0977 109.879 74.146 110.194 74.146C110.609 74.146 110.908 74.0815 111.091 73.9526C111.273 73.8201 111.365 73.6447 111.365 73.4263C111.365 73.2974 111.327 73.1828 111.252 73.0825C111.18 72.9787 111.044 72.873 110.844 72.7656C110.647 72.6546 110.357 72.5221 109.974 72.3682C109.598 72.2178 109.281 72.0674 109.023 71.917C108.765 71.7666 108.57 71.5858 108.438 71.3745C108.305 71.1597 108.239 70.8857 108.239 70.5527C108.239 70.0264 108.446 69.6271 108.862 69.355C109.281 69.0793 109.834 68.9414 110.521 68.9414C110.887 68.9414 111.23 68.979 111.553 69.0542C111.879 69.1258 112.197 69.2314 112.509 69.3711L112.111 70.3218C111.843 70.2036 111.572 70.1069 111.3 70.0317C111.032 69.953 110.758 69.9136 110.479 69.9136C110.153 69.9136 109.904 69.9637 109.732 70.064C109.564 70.1642 109.479 70.3075 109.479 70.4937C109.479 70.6333 109.521 70.7515 109.603 70.8481C109.685 70.9448 109.827 71.0415 110.027 71.1382C110.231 71.2349 110.514 71.3548 110.876 71.498C111.23 71.6341 111.537 71.7773 111.794 71.9277C112.056 72.0745 112.256 72.2554 112.396 72.4702C112.536 72.6851 112.605 72.9626 112.605 73.3027ZM44.9941 83.9414C45.6995 83.9414 46.2653 84.1992 46.6914 84.7148C47.1211 85.2305 47.3359 85.9967 47.3359 87.0137C47.3359 87.6868 47.2357 88.2544 47.0352 88.7163C46.8382 89.1746 46.5607 89.522 46.2026 89.7583C45.8481 89.991 45.4346 90.1074 44.9619 90.1074C44.6611 90.1074 44.3997 90.068 44.1777 89.9893C43.9557 89.9105 43.766 89.8084 43.6084 89.6831C43.4508 89.5542 43.3184 89.4146 43.2109 89.2642H43.1357C43.1536 89.4074 43.1698 89.5667 43.1841 89.7422C43.202 89.9141 43.2109 90.0716 43.2109 90.2148V92.6372H41.9434L41.9434 84.0542H42.9746L43.1519 84.876H43.2109C43.3219 84.7077 43.4562 84.5519 43.6138 84.4087C43.7749 84.2655 43.9683 84.1527 44.1938 84.0703C44.423 83.9844 44.6898 83.9414 44.9941 83.9414ZM44.6558 84.9727C44.3084 84.9727 44.0291 85.0425 43.8179 85.1821C43.6102 85.3182 43.458 85.5241 43.3613 85.7998C43.2682 86.0755 43.2181 86.4211 43.2109 86.8364V87.0137C43.2109 87.4541 43.2557 87.8283 43.3452 88.1362C43.4383 88.4406 43.5905 88.6733 43.8018 88.8345C44.0166 88.992 44.3066 89.0708 44.6719 89.0708C44.9798 89.0708 45.234 88.9867 45.4346 88.8184C45.6387 88.6501 45.7909 88.4102 45.8911 88.0986C45.9914 87.7871 46.0415 87.4201 46.0415 86.9976C46.0415 86.3566 45.9269 85.8589 45.6978 85.5044C45.4722 85.1499 45.1248 84.9727 44.6558 84.9727ZM51.1655 83.9414C51.6955 83.9414 52.1502 84.0506 52.5298 84.269C52.9093 84.4875 53.2012 84.7972 53.4053 85.1982C53.6094 85.5993 53.7114 86.0791 53.7114 86.6377V87.3145H49.7422C49.7565 87.891 49.9105 88.335 50.2041 88.6465C50.5013 88.958 50.9167 89.1138 51.4502 89.1138C51.8298 89.1138 52.1699 89.078 52.4707 89.0063C52.7751 88.9312 53.0884 88.8219 53.4106 88.6787V89.7046C53.1134 89.8442 52.8109 89.9463 52.5029 90.0107C52.195 90.0752 51.8262 90.1074 51.3965 90.1074C50.8128 90.1074 50.299 89.9946 49.855 89.769C49.4146 89.5399 49.069 89.1997 48.8184 88.7485C48.5713 88.2974 48.4478 87.737 48.4478 87.0674C48.4478 86.4014 48.5605 85.8356 48.7861 85.3701C49.0117 84.9046 49.3286 84.5501 49.7368 84.3066C50.145 84.0632 50.6213 83.9414 51.1655 83.9414ZM51.1655 84.8921C50.7681 84.8921 50.4458 85.021 50.1987 85.2788C49.9552 85.5366 49.812 85.9144 49.769 86.4121H52.4761C52.4725 86.1149 52.4224 85.8517 52.3257 85.6226C52.2326 85.3934 52.0894 85.2144 51.896 85.0854C51.7062 84.9565 51.4627 84.8921 51.1655 84.8921ZM58.1479 83.9414C58.2482 83.9414 58.3574 83.9468 58.4756 83.9575C58.5938 83.9683 58.6958 83.9826 58.7817 84.0005L58.6636 85.1821C58.5884 85.1606 58.4953 85.1445 58.3843 85.1338C58.2769 85.123 58.1802 85.1177 58.0942 85.1177C57.8687 85.1177 57.6538 85.1553 57.4497 85.2305C57.2456 85.3021 57.0648 85.4131 56.9072 85.5635C56.7497 85.7103 56.6261 85.8947 56.5366 86.1167C56.4471 86.3387 56.4023 86.5965 56.4023 86.8901V90L55.1348 90L55.1348 84.0542L56.123 84.0542L56.2949 85.1016H56.354C56.4722 84.8903 56.619 84.6969 56.7944 84.5215C56.9699 84.346 57.1704 84.2064 57.396 84.1025C57.6252 83.9951 57.8758 83.9414 58.1479 83.9414ZM64.7383 90.1074C64.0293 90.1074 63.46 89.8496 63.0303 89.334C62.6042 88.8148 62.3911 88.0503 62.3911 87.0405C62.3911 86.02 62.6077 85.2484 63.041 84.7256C63.4779 84.2028 64.0526 83.9414 64.7651 83.9414C65.0659 83.9414 65.3291 83.9826 65.5547 84.0649C65.7803 84.1437 65.9736 84.2511 66.1348 84.3872C66.2995 84.5233 66.4391 84.6755 66.5537 84.8438H66.6128C66.5949 84.7327 66.5734 84.5734 66.5483 84.3657C66.5269 84.1545 66.5161 83.9593 66.5161 83.7803V81.6426H67.7837V90H66.7954L66.5698 89.189H66.5161C66.4087 89.3608 66.2726 89.5166 66.1079 89.6563C65.9468 89.7923 65.7534 89.9015 65.5278 89.9839C65.3058 90.0662 65.0426 90.1074 64.7383 90.1074ZM65.0928 89.0815C65.6335 89.0815 66.0148 88.9258 66.2368 88.6143C66.4588 88.3027 66.5734 87.8354 66.5806 87.2124V87.0459C66.5806 86.3799 66.4731 85.8696 66.2583 85.5151C66.0435 85.1571 65.6514 84.978 65.082 84.978C64.6273 84.978 64.2799 85.1624 64.04 85.5313C63.8037 85.8965 63.6855 86.4067 63.6855 87.062C63.6855 87.7173 63.8037 88.2186 64.04 88.5659C64.2799 88.9097 64.6309 89.0815 65.0928 89.0815ZM71.9248 83.9414C72.6768 83.9414 73.2443 84.1079 73.6274 84.4409C74.0142 84.7739 74.2075 85.2931 74.2075 85.9985V90H73.3105L73.0688 89.1567H73.0259C72.8576 89.3716 72.6839 89.5488 72.5049 89.6885C72.3258 89.8281 72.1182 89.932 71.8818 90C71.6491 90.0716 71.3644 90.1074 71.0278 90.1074C70.6733 90.1074 70.3564 90.043 70.0771 89.9141C69.7979 89.7816 69.5776 89.5811 69.4165 89.3125C69.2554 89.0439 69.1748 88.7038 69.1748 88.292C69.1748 87.6797 69.4022 87.2196 69.8569 86.9116C70.3153 86.6037 71.0063 86.4336 71.9302 86.4014L72.9614 86.3638V86.0522C72.9614 85.6405 72.8647 85.3468 72.6714 85.1714C72.4816 84.9959 72.2131 84.9082 71.8657 84.9082C71.5685 84.9082 71.2803 84.9512 71.001 85.0371C70.7217 85.123 70.4495 85.2287 70.1846 85.354L69.7764 84.4624C70.0664 84.3084 70.3958 84.1831 70.7646 84.0864C71.137 83.9897 71.5238 83.9414 71.9248 83.9414ZM72.9561 87.1587L72.188 87.1855C71.5578 87.207 71.1156 87.3145 70.8613 87.5078C70.6071 87.7012 70.48 87.9661 70.48 88.3027C70.48 88.5964 70.5677 88.8112 70.7432 88.9473C70.9186 89.0798 71.1496 89.146 71.436 89.146C71.8729 89.146 72.2345 89.0225 72.521 88.7754C72.811 88.5247 72.9561 88.1577 72.9561 87.6743V87.1587ZM75.0776 84.0542H76.4526L77.6719 87.4487C77.7256 87.6027 77.7739 87.7549 77.8169 87.9053C77.8634 88.0521 77.9028 88.1971 77.9351 88.3403C77.9709 88.4836 77.9995 88.6268 78.021 88.77H78.0532C78.089 88.5838 78.1392 88.3761 78.2036 88.147C78.2716 87.9142 78.3468 87.6815 78.4292 87.4487L79.6001 84.0542H80.959L78.4077 90.8164C78.2609 91.2031 78.0801 91.5326 77.8652 91.8047C77.654 92.0804 77.4033 92.2881 77.1133 92.4277C76.8232 92.571 76.492 92.6426 76.1196 92.6426C75.9406 92.6426 75.7848 92.6318 75.6523 92.6104C75.5199 92.5924 75.4071 92.5728 75.314 92.5513V91.5415C75.3892 91.5594 75.484 91.5755 75.5986 91.5898C75.7132 91.6042 75.8314 91.6113 75.9531 91.6113C76.1787 91.6113 76.3739 91.5666 76.5386 91.4771C76.7033 91.3875 76.8429 91.2604 76.9575 91.0957C77.0721 90.9346 77.167 90.7502 77.2422 90.5425L77.4517 89.9839L75.0776 84.0542Z" fill="#303030"/>
<path id="+" d="M108.789 19.0547H105.68V17.6641H108.789V14.4766H110.195V17.6641H113.312V19.0547H110.195V22.2266H108.789V19.0547Z" fill="#FF6C00"/>
</g>
</svg>
