<svg width="122" height="93" viewBox="0 0 122 93" fill="none" xmlns="http://www.w3.org/2000/svg">
<g id="text">
<path id="50" d="M41.0477 25.8457C43.9461 25.8457 46.2498 26.6592 47.9588 28.2861C49.6814 29.9131 50.5428 32.1416 50.5428 34.9717C50.5428 38.3213 49.5105 40.8984 47.4461 42.7031C45.3816 44.5078 42.4285 45.4102 38.5867 45.4102C35.2508 45.4102 32.5574 44.8701 30.5066 43.79V38.3145C31.5867 38.8887 32.8445 39.3604 34.2801 39.7295C35.7156 40.085 37.076 40.2627 38.3611 40.2627C42.2303 40.2627 44.1648 38.6768 44.1648 35.5049C44.1648 32.4834 42.1619 30.9727 38.1561 30.9727C37.4314 30.9727 36.6316 31.0479 35.7566 31.1982C34.8816 31.335 34.1707 31.4854 33.6238 31.6494L31.1014 30.2959L32.2293 15.0176H48.492V20.3906H37.7869L37.2332 26.2764L37.951 26.1328C38.785 25.9414 39.8172 25.8457 41.0477 25.8457ZM77.0266 30.0088C77.0266 35.2451 76.1652 39.1211 74.4426 41.6367C72.7336 44.1523 70.0949 45.4102 66.5266 45.4102C63.0676 45.4102 60.4563 44.1113 58.6926 41.5137C56.9426 38.916 56.0676 35.0811 56.0676 30.0088C56.0676 24.7178 56.9221 20.8213 58.6311 18.3193C60.34 15.8037 62.9719 14.5459 66.5266 14.5459C69.9855 14.5459 72.5969 15.8584 74.3605 18.4834C76.1379 21.1084 77.0266 24.9502 77.0266 30.0088ZM62.3635 30.0088C62.3635 33.6865 62.6779 36.3252 63.3068 37.9248C63.9494 39.5107 65.0227 40.3037 66.5266 40.3037C68.0031 40.3037 69.0695 39.4971 69.7258 37.8838C70.382 36.2705 70.7102 33.6455 70.7102 30.0088C70.7102 26.3311 70.3752 23.6924 69.7053 22.0928C69.049 20.4795 67.9895 19.6729 66.5266 19.6729C65.0363 19.6729 63.9699 20.4795 63.3273 22.0928C62.6848 23.6924 62.3635 26.3311 62.3635 30.0088Z" fill="#303030"/>
<path id="Awards for excellent service" d="M12.5098 75L11.7417 72.8193H8.73926L7.97119 75H6.6123L9.53418 67.1152H10.9629L13.8794 75H12.5098ZM11.4087 71.7129L10.6621 69.5645C10.6335 69.4714 10.5923 69.3407 10.5386 69.1724C10.4849 69.0005 10.4312 68.8268 10.3774 68.6514C10.3237 68.4723 10.279 68.3219 10.2432 68.2002C10.2074 68.347 10.1626 68.5117 10.1089 68.6943C10.0588 68.8734 10.0086 69.0417 9.9585 69.1992C9.91195 69.3568 9.87614 69.4785 9.85107 69.5645L9.09912 71.7129H11.4087ZM19.6479 74.9946L18.896 72.2285C18.8602 72.0924 18.8172 71.9277 18.7671 71.7344C18.717 71.541 18.6668 71.3423 18.6167 71.1382C18.5666 70.9305 18.52 70.7389 18.4771 70.5635C18.4377 70.388 18.4072 70.252 18.3857 70.1553H18.3428C18.3249 70.252 18.2962 70.388 18.2568 70.5635C18.2174 70.7389 18.1727 70.9305 18.1226 71.1382C18.0724 71.3459 18.0223 71.5482 17.9722 71.7451C17.9256 71.9421 17.8826 72.1104 17.8433 72.25L17.0537 74.9946H15.668L14.0029 69.0488H15.2812L16.0547 72.0029C16.1048 72.2035 16.1532 72.4201 16.1997 72.6528C16.2498 72.8856 16.2928 73.1076 16.3286 73.3188C16.3644 73.5301 16.3913 73.7038 16.4092 73.8398H16.4521C16.4665 73.7432 16.4862 73.6214 16.5112 73.4746C16.5363 73.3242 16.5649 73.1685 16.5972 73.0073C16.6294 72.8426 16.6616 72.6886 16.6938 72.5454C16.7261 72.3986 16.7565 72.2804 16.7852 72.1909L17.6982 69.0488H19.0786L19.9541 72.1909C19.9935 72.327 20.0365 72.4989 20.083 72.7065C20.1296 72.9106 20.1707 73.1165 20.2065 73.3242C20.2459 73.5283 20.271 73.6984 20.2817 73.8345H20.3247C20.339 73.7127 20.3641 73.548 20.3999 73.3403C20.4393 73.1291 20.484 72.9053 20.5342 72.6689C20.5843 72.429 20.6362 72.207 20.6899 72.0029L21.4795 69.0488H22.7363L21.0605 74.9946H19.6479ZM26.0879 68.9414C26.8398 68.9414 27.4074 69.1079 27.7905 69.4409C28.1772 69.7739 28.3706 70.2931 28.3706 70.9985L28.3706 75H27.4736L27.2319 74.1567H27.189C27.0207 74.3716 26.847 74.5488 26.668 74.6885C26.4889 74.8281 26.2812 74.932 26.0449 75C25.8122 75.0716 25.5275 75.1074 25.1909 75.1074C24.8364 75.1074 24.5195 75.043 24.2402 74.9141C23.9609 74.7816 23.7407 74.5811 23.5796 74.3125C23.4185 74.0439 23.3379 73.7038 23.3379 73.292C23.3379 72.6797 23.5653 72.2196 24.02 71.9116C24.4784 71.6037 25.1694 71.4336 26.0933 71.4014L27.1245 71.3638V71.0522C27.1245 70.6405 27.0278 70.3468 26.8345 70.1714C26.6447 69.9959 26.3761 69.9082 26.0288 69.9082C25.7316 69.9082 25.4434 69.9512 25.1641 70.0371C24.8848 70.123 24.6126 70.2287 24.3477 70.354L23.9395 69.4624C24.2295 69.3084 24.5589 69.1831 24.9277 69.0864C25.3001 68.9897 25.6868 68.9414 26.0879 68.9414ZM27.1191 72.1587L26.3511 72.1855C25.7209 72.207 25.2786 72.3145 25.0244 72.5078C24.7702 72.7012 24.6431 72.9661 24.6431 73.3027C24.6431 73.5964 24.7308 73.8112 24.9062 73.9473C25.0817 74.0798 25.3127 74.146 25.5991 74.146C26.036 74.146 26.3976 74.0225 26.6841 73.7754C26.9741 73.5247 27.1191 73.1577 27.1191 72.6743V72.1587ZM33.1509 68.9414C33.2511 68.9414 33.3604 68.9468 33.4785 68.9575C33.5967 68.9683 33.6987 68.9826 33.7847 69.0005L33.6665 70.1821C33.5913 70.1606 33.4982 70.1445 33.3872 70.1338C33.2798 70.123 33.1831 70.1177 33.0972 70.1177C32.8716 70.1177 32.6567 70.1553 32.4526 70.2305C32.2485 70.3021 32.0677 70.4131 31.9102 70.5635C31.7526 70.7103 31.6291 70.8947 31.5396 71.1167C31.45 71.3387 31.4053 71.5965 31.4053 71.8901L31.4053 75H30.1377L30.1377 69.0542H31.126L31.2979 70.1016H31.3569C31.4751 69.8903 31.6219 69.6969 31.7974 69.5215C31.9728 69.346 32.1733 69.2064 32.3989 69.1025C32.6281 68.9951 32.8787 68.9414 33.1509 68.9414ZM36.8838 75.1074C36.1748 75.1074 35.6055 74.8496 35.1758 74.334C34.7497 73.8148 34.5366 73.0503 34.5366 72.0405C34.5366 71.02 34.7533 70.2484 35.1865 69.7256C35.6234 69.2028 36.1981 68.9414 36.9106 68.9414C37.2114 68.9414 37.4746 68.9826 37.7002 69.0649C37.9258 69.1437 38.1191 69.2511 38.2803 69.3872C38.445 69.5233 38.5846 69.6755 38.6992 69.8438H38.7583C38.7404 69.7327 38.7189 69.5734 38.6938 69.3657C38.6724 69.1545 38.6616 68.9593 38.6616 68.7803V66.6426H39.9292V75H38.9409L38.7153 74.189H38.6616C38.5542 74.3608 38.4181 74.5166 38.2534 74.6562C38.0923 74.7923 37.8989 74.9015 37.6733 74.9839C37.4513 75.0662 37.1882 75.1074 36.8838 75.1074ZM37.2383 74.0815C37.779 74.0815 38.1603 73.9258 38.3823 73.6143C38.6043 73.3027 38.7189 72.8354 38.7261 72.2124V72.0459C38.7261 71.3799 38.6187 70.8696 38.4038 70.5151C38.189 70.1571 37.7969 69.978 37.2275 69.978C36.7728 69.978 36.4255 70.1624 36.1855 70.5312C35.9492 70.8965 35.8311 71.4067 35.8311 72.062C35.8311 72.7173 35.9492 73.2186 36.1855 73.5659C36.4255 73.9097 36.7764 74.0815 37.2383 74.0815ZM45.7354 73.3027C45.7354 73.693 45.6405 74.0225 45.4507 74.291C45.2609 74.5596 44.9834 74.7637 44.6182 74.9033C44.2565 75.0394 43.8125 75.1074 43.2861 75.1074C42.8708 75.1074 42.5127 75.077 42.2119 75.0161C41.9147 74.9588 41.6336 74.8693 41.3687 74.7476V73.6572C41.6515 73.7897 41.9684 73.9043 42.3193 74.001C42.6738 74.0977 43.0086 74.146 43.3237 74.146C43.7391 74.146 44.0381 74.0815 44.2207 73.9526C44.4033 73.8201 44.4946 73.6447 44.4946 73.4263C44.4946 73.2974 44.457 73.1828 44.3818 73.0825C44.3102 72.9787 44.1742 72.873 43.9736 72.7656C43.7767 72.6546 43.4867 72.5221 43.1035 72.3682C42.7275 72.2178 42.4106 72.0674 42.1528 71.917C41.895 71.7666 41.6999 71.5858 41.5674 71.3745C41.4349 71.1597 41.3687 70.8857 41.3687 70.5527C41.3687 70.0264 41.5763 69.6271 41.9917 69.355C42.4106 69.0793 42.9639 68.9414 43.6514 68.9414C44.0166 68.9414 44.3604 68.979 44.6826 69.0542C45.0085 69.1258 45.3271 69.2314 45.6387 69.3711L45.2412 70.3218C44.9727 70.2036 44.7023 70.1069 44.4302 70.0317C44.1616 69.953 43.8877 69.9136 43.6084 69.9136C43.2826 69.9136 43.0337 69.9637 42.8618 70.064C42.6935 70.1642 42.6094 70.3075 42.6094 70.4937C42.6094 70.6333 42.6506 70.7515 42.7329 70.8481C42.8153 70.9448 42.9567 71.0415 43.1572 71.1382C43.3613 71.2349 43.6442 71.3548 44.0059 71.498C44.3604 71.6341 44.6665 71.7773 44.9243 71.9277C45.1857 72.0745 45.3862 72.2554 45.5259 72.4702C45.6655 72.6851 45.7354 72.9626 45.7354 73.3027ZM52.9272 70.0156H51.4824V75H50.2202V70.0156H49.248V69.4087L50.2202 69.0381V68.6245C50.2202 68.1196 50.299 67.7186 50.4565 67.4214C50.6177 67.1242 50.8468 66.9111 51.144 66.7822C51.4448 66.6497 51.8029 66.5835 52.2183 66.5835C52.4904 66.5835 52.7393 66.6068 52.9648 66.6533C53.1904 66.6963 53.3802 66.7464 53.5342 66.8037L53.2065 67.7598C53.0848 67.7204 52.9487 67.6846 52.7983 67.6523C52.6479 67.6165 52.4868 67.5986 52.3149 67.5986C52.0285 67.5986 51.8172 67.6882 51.6812 67.8672C51.5487 68.0462 51.4824 68.3076 51.4824 68.6514V69.0542H52.9272V70.0156ZM59.2061 72.0137C59.2061 72.5078 59.1416 72.9465 59.0127 73.3296C58.8838 73.7127 58.6958 74.0368 58.4487 74.3018C58.2017 74.5632 57.9045 74.7637 57.5571 74.9033C57.2098 75.0394 56.8177 75.1074 56.3809 75.1074C55.9727 75.1074 55.5985 75.0394 55.2583 74.9033C54.9181 74.7637 54.6227 74.5632 54.3721 74.3018C54.125 74.0368 53.9334 73.7127 53.7974 73.3296C53.6613 72.9465 53.5933 72.5078 53.5933 72.0137C53.5933 71.3584 53.7061 70.8034 53.9316 70.3486C54.1608 69.8903 54.4867 69.5412 54.9092 69.3013C55.3317 69.0614 55.8348 68.9414 56.4185 68.9414C56.9663 68.9414 57.4497 69.0614 57.8687 69.3013C58.2876 69.5412 58.6152 69.8903 58.8516 70.3486C59.0879 70.807 59.2061 71.362 59.2061 72.0137ZM54.8931 72.0137C54.8931 72.4469 54.945 72.8175 55.0488 73.1255C55.1562 73.4334 55.321 73.6698 55.543 73.8345C55.765 73.9956 56.0514 74.0762 56.4023 74.0762C56.7533 74.0762 57.0397 73.9956 57.2617 73.8345C57.4837 73.6698 57.6466 73.4334 57.7505 73.1255C57.8543 72.8175 57.9062 72.4469 57.9062 72.0137C57.9062 71.5804 57.8543 71.2134 57.7505 70.9126C57.6466 70.6082 57.4837 70.3773 57.2617 70.2197C57.0397 70.0586 56.7515 69.978 56.397 69.978C55.8742 69.978 55.4928 70.1535 55.2529 70.5044C55.013 70.8553 54.8931 71.3584 54.8931 72.0137ZM63.6694 68.9414C63.7697 68.9414 63.8789 68.9468 63.9971 68.9575C64.1152 68.9683 64.2173 68.9826 64.3032 69.0005L64.1851 70.1821C64.1099 70.1606 64.0168 70.1445 63.9058 70.1338C63.7983 70.123 63.7017 70.1177 63.6157 70.1177C63.3901 70.1177 63.1753 70.1553 62.9712 70.2305C62.7671 70.3021 62.5863 70.4131 62.4287 70.5635C62.2712 70.7103 62.1476 70.8947 62.0581 71.1167C61.9686 71.3387 61.9238 71.5965 61.9238 71.8901V75H60.6562V69.0542H61.6445L61.8164 70.1016H61.8755C61.9937 69.8903 62.1405 69.6969 62.3159 69.5215C62.4914 69.346 62.6919 69.2064 62.9175 69.1025C63.1466 68.9951 63.3973 68.9414 63.6694 68.9414ZM70.6304 68.9414C71.1603 68.9414 71.6151 69.0506 71.9946 69.269C72.3742 69.4875 72.666 69.7972 72.8701 70.1982C73.0742 70.5993 73.1763 71.0791 73.1763 71.6377V72.3145H69.207C69.2214 72.891 69.3753 73.335 69.6689 73.6465C69.9661 73.958 70.3815 74.1138 70.915 74.1138C71.2946 74.1138 71.6348 74.078 71.9355 74.0063C72.2399 73.9312 72.5532 73.8219 72.8755 73.6787V74.7046C72.5783 74.8442 72.2757 74.9463 71.9678 75.0107C71.6598 75.0752 71.291 75.1074 70.8613 75.1074C70.2777 75.1074 69.7638 74.9946 69.3198 74.769C68.8794 74.5399 68.5339 74.1997 68.2832 73.7485C68.0361 73.2974 67.9126 72.737 67.9126 72.0674C67.9126 71.4014 68.0254 70.8356 68.251 70.3701C68.4766 69.9046 68.7935 69.5501 69.2017 69.3066C69.6099 69.0632 70.0861 68.9414 70.6304 68.9414ZM70.6304 69.8921C70.2329 69.8921 69.9106 70.021 69.6636 70.2788C69.4201 70.5366 69.2769 70.9144 69.2339 71.4121H71.9409C71.9373 71.1149 71.8872 70.8517 71.7905 70.6226C71.6974 70.3934 71.5542 70.2144 71.3608 70.0854C71.1711 69.9565 70.9276 69.8921 70.6304 69.8921ZM75.9155 71.96L73.9282 69.0542H75.3677L76.7266 71.1436L78.0908 69.0542H79.5249L77.5269 71.96L79.627 75H78.1821L76.7266 72.771L75.2656 75H73.8315L75.9155 71.96ZM83.0537 75.1074C82.4915 75.1074 82.0046 74.9982 81.5928 74.7798C81.181 74.5614 80.8641 74.2266 80.6421 73.7754C80.4201 73.3242 80.3091 72.7513 80.3091 72.0566C80.3091 71.3333 80.4308 70.7425 80.6743 70.2842C80.9178 69.8258 81.2544 69.4875 81.6841 69.269C82.1174 69.0506 82.6133 68.9414 83.1719 68.9414C83.5264 68.9414 83.8468 68.9772 84.1333 69.0488C84.4233 69.1169 84.6686 69.201 84.8691 69.3013L84.4932 70.311C84.2747 70.2215 84.0509 70.1463 83.8218 70.0854C83.5926 70.0246 83.3724 69.9941 83.1611 69.9941C82.8138 69.9941 82.5238 70.0711 82.291 70.2251C82.0618 70.3791 81.89 70.6082 81.7754 70.9126C81.6644 71.217 81.6089 71.5947 81.6089 72.0459C81.6089 72.4827 81.6662 72.8516 81.7808 73.1523C81.8953 73.4495 82.0654 73.6751 82.291 73.8291C82.5166 73.9795 82.7941 74.0547 83.1235 74.0547C83.4494 74.0547 83.7412 74.0153 83.999 73.9365C84.2568 73.8577 84.5003 73.7557 84.7295 73.6304V74.7261C84.5039 74.855 84.2622 74.9499 84.0044 75.0107C83.7466 75.0752 83.4297 75.1074 83.0537 75.1074ZM88.4946 68.9414C89.0246 68.9414 89.4793 69.0506 89.8589 69.269C90.2384 69.4875 90.5303 69.7972 90.7344 70.1982C90.9385 70.5993 91.0405 71.0791 91.0405 71.6377V72.3145H87.0713C87.0856 72.891 87.2396 73.335 87.5332 73.6465C87.8304 73.958 88.2458 74.1138 88.7793 74.1138C89.1589 74.1138 89.499 74.078 89.7998 74.0063C90.1042 73.9312 90.4175 73.8219 90.7397 73.6787V74.7046C90.4425 74.8442 90.14 74.9463 89.832 75.0107C89.5241 75.0752 89.1553 75.1074 88.7256 75.1074C88.1419 75.1074 87.6281 74.9946 87.1841 74.769C86.7437 74.5399 86.3981 74.1997 86.1475 73.7485C85.9004 73.2974 85.7769 72.737 85.7769 72.0674C85.7769 71.4014 85.8896 70.8356 86.1152 70.3701C86.3408 69.9046 86.6577 69.5501 87.0659 69.3066C87.4741 69.0632 87.9504 68.9414 88.4946 68.9414ZM88.4946 69.8921C88.0972 69.8921 87.7749 70.021 87.5278 70.2788C87.2843 70.5366 87.1411 70.9144 87.0981 71.4121H89.8052C89.8016 71.1149 89.7515 70.8517 89.6548 70.6226C89.5617 70.3934 89.4185 70.2144 89.2251 70.0854C89.0353 69.9565 88.7918 69.8921 88.4946 69.8921ZM93.7314 75H92.4639V66.6426H93.7314V75ZM96.8037 75H95.5361V66.6426H96.8037V75ZM100.977 68.9414C101.507 68.9414 101.962 69.0506 102.341 69.269C102.721 69.4875 103.013 69.7972 103.217 70.1982C103.421 70.5993 103.523 71.0791 103.523 71.6377V72.3145H99.5537C99.568 72.891 99.722 73.335 100.016 73.6465C100.313 73.958 100.728 74.1138 101.262 74.1138C101.641 74.1138 101.981 74.078 102.282 74.0063C102.587 73.9312 102.9 73.8219 103.222 73.6787V74.7046C102.925 74.8442 102.622 74.9463 102.314 75.0107C102.007 75.0752 101.638 75.1074 101.208 75.1074C100.624 75.1074 100.111 74.9946 99.6665 74.769C99.2261 74.5399 98.8805 74.1997 98.6299 73.7485C98.3828 73.2974 98.2593 72.737 98.2593 72.0674C98.2593 71.4014 98.3721 70.8356 98.5977 70.3701C98.8232 69.9046 99.1401 69.5501 99.5483 69.3066C99.9565 69.0632 100.433 68.9414 100.977 68.9414ZM100.977 69.8921C100.58 69.8921 100.257 70.021 100.01 70.2788C99.7668 70.5366 99.6235 70.9144 99.5806 71.4121H102.288C102.284 71.1149 102.234 70.8517 102.137 70.6226C102.044 70.3934 101.901 70.2144 101.708 70.0854C101.518 69.9565 101.274 69.8921 100.977 69.8921ZM108.045 68.9414C108.715 68.9414 109.236 69.1151 109.608 69.4624C109.984 69.8062 110.172 70.3594 110.172 71.1221V75H108.91V71.3584C108.91 70.8965 108.815 70.5509 108.625 70.3218C108.436 70.089 108.142 69.9727 107.745 69.9727C107.168 69.9727 106.767 70.1499 106.542 70.5044C106.319 70.8589 106.208 71.3727 106.208 72.0459V75H104.946V69.0542H105.929L106.106 69.8599H106.176C106.305 69.6522 106.465 69.4821 106.654 69.3496C106.848 69.2135 107.062 69.1115 107.299 69.0435C107.539 68.9754 107.788 68.9414 108.045 68.9414ZM114.152 74.0869C114.317 74.0869 114.48 74.0726 114.641 74.0439C114.802 74.0117 114.949 73.9741 115.082 73.9312V74.8872C114.942 74.9481 114.761 75 114.539 75.043C114.317 75.0859 114.086 75.1074 113.846 75.1074C113.51 75.1074 113.207 75.0519 112.938 74.9409C112.67 74.8263 112.457 74.6312 112.299 74.3555C112.142 74.0798 112.063 73.6984 112.063 73.2114V70.0156H111.252V69.4517L112.122 69.0059L112.536 67.7329H113.331V69.0542H115.033V70.0156H113.331V73.1953C113.331 73.4961 113.406 73.7199 113.556 73.8667C113.707 74.0135 113.905 74.0869 114.152 74.0869ZM47.2983 88.3027C47.2983 88.693 47.2035 89.0225 47.0137 89.291C46.8239 89.5596 46.5464 89.7637 46.1812 89.9033C45.8195 90.0394 45.3755 90.1074 44.8491 90.1074C44.4338 90.1074 44.0757 90.077 43.7749 90.0161C43.4777 89.9588 43.1966 89.8693 42.9316 89.7476V88.6572C43.2145 88.7897 43.5314 88.9043 43.8823 89.001C44.2368 89.0977 44.5716 89.146 44.8867 89.146C45.3021 89.146 45.6011 89.0815 45.7837 88.9526C45.9663 88.8201 46.0576 88.6447 46.0576 88.4263C46.0576 88.2974 46.02 88.1828 45.9448 88.0825C45.8732 87.9787 45.7371 87.873 45.5366 87.7656C45.3397 87.6546 45.0496 87.5221 44.6665 87.3682C44.2905 87.2178 43.9736 87.0674 43.7158 86.917C43.458 86.7666 43.2629 86.5858 43.1304 86.3745C42.9979 86.1597 42.9316 85.8857 42.9316 85.5527C42.9316 85.0264 43.1393 84.6271 43.5547 84.355C43.9736 84.0793 44.5269 83.9414 45.2144 83.9414C45.5796 83.9414 45.9233 83.979 46.2456 84.0542C46.5715 84.1258 46.8901 84.2314 47.2017 84.3711L46.8042 85.3218C46.5356 85.2036 46.2653 85.1069 45.9932 85.0317C45.7246 84.953 45.4507 84.9136 45.1714 84.9136C44.8455 84.9136 44.5967 84.9637 44.4248 85.064C44.2565 85.1642 44.1724 85.3075 44.1724 85.4937C44.1724 85.6333 44.2135 85.7515 44.2959 85.8481C44.3783 85.9448 44.5197 86.0415 44.7202 86.1382C44.9243 86.2349 45.2072 86.3548 45.5688 86.498C45.9233 86.6341 46.2295 86.7773 46.4873 86.9277C46.7487 87.0745 46.9492 87.2554 47.0889 87.4702C47.2285 87.6851 47.2983 87.9626 47.2983 88.3027ZM51.0312 83.9414C51.5612 83.9414 52.016 84.0506 52.3955 84.269C52.7751 84.4875 53.0669 84.7972 53.271 85.1982C53.4751 85.5993 53.5771 86.0791 53.5771 86.6377V87.3145H49.6079C49.6222 87.891 49.7762 88.335 50.0698 88.6465C50.367 88.958 50.7824 89.1138 51.3159 89.1138C51.6955 89.1138 52.0356 89.078 52.3364 89.0063C52.6408 88.9312 52.9541 88.8219 53.2764 88.6787V89.7046C52.9792 89.8442 52.6766 89.9463 52.3687 90.0107C52.0607 90.0752 51.6919 90.1074 51.2622 90.1074C50.6785 90.1074 50.1647 89.9946 49.7207 89.769C49.2803 89.5399 48.9347 89.1997 48.6841 88.7485C48.437 88.2974 48.3135 87.737 48.3135 87.0674C48.3135 86.4014 48.4263 85.8356 48.6519 85.3701C48.8774 84.9046 49.1943 84.5501 49.6025 84.3066C50.0107 84.0632 50.487 83.9414 51.0312 83.9414ZM51.0312 84.8921C50.6338 84.8921 50.3115 85.021 50.0645 85.2788C49.821 85.5366 49.6777 85.9144 49.6348 86.4121H52.3418C52.3382 86.1149 52.2881 85.8517 52.1914 85.6226C52.0983 85.3934 51.9551 85.2144 51.7617 85.0854C51.5719 84.9565 51.3285 84.8921 51.0312 84.8921ZM58.0137 83.9414C58.1139 83.9414 58.2231 83.9468 58.3413 83.9575C58.4595 83.9683 58.5615 83.9826 58.6475 84.0005L58.5293 85.1821C58.4541 85.1606 58.361 85.1445 58.25 85.1338C58.1426 85.123 58.0459 85.1177 57.96 85.1177C57.7344 85.1177 57.5195 85.1553 57.3154 85.2305C57.1113 85.3021 56.9305 85.4131 56.7729 85.5635C56.6154 85.7103 56.4919 85.8947 56.4023 86.1167C56.3128 86.3387 56.2681 86.5965 56.2681 86.8901V90L55.0005 90L55.0005 84.0542L55.9888 84.0542L56.1606 85.1016H56.2197C56.3379 84.8903 56.4847 84.6969 56.6602 84.5215C56.8356 84.346 57.0361 84.2064 57.2617 84.1025C57.4909 83.9951 57.7415 83.9414 58.0137 83.9414ZM61.1074 90L58.8462 84.0542H60.1836L61.4082 87.5454C61.487 87.7674 61.5586 88.0073 61.623 88.2651C61.6875 88.5229 61.7323 88.7396 61.7573 88.915H61.8003C61.8254 88.7324 61.8737 88.514 61.9453 88.2598C62.0169 88.002 62.0903 87.7638 62.1655 87.5454L63.3901 84.0542H64.7222L62.4609 90H61.1074ZM66.8867 84.0542V90H65.6245V84.0542H66.8867ZM66.2637 81.7769C66.457 81.7769 66.6235 81.8288 66.7632 81.9326C66.9064 82.0365 66.978 82.2155 66.978 82.4697C66.978 82.7204 66.9064 82.8994 66.7632 83.0068C66.6235 83.1107 66.457 83.1626 66.2637 83.1626C66.0632 83.1626 65.8931 83.1107 65.7534 83.0068C65.6174 82.8994 65.5493 82.7204 65.5493 82.4697C65.5493 82.2155 65.6174 82.0365 65.7534 81.9326C65.8931 81.8288 66.0632 81.7769 66.2637 81.7769ZM71.0923 90.1074C70.5301 90.1074 70.0431 89.9982 69.6313 89.7798C69.2196 89.5614 68.9027 89.2266 68.6807 88.7754C68.4587 88.3242 68.3477 87.7513 68.3477 87.0566C68.3477 86.3333 68.4694 85.7425 68.7129 85.2842C68.9564 84.8258 69.293 84.4875 69.7227 84.269C70.1559 84.0506 70.6519 83.9414 71.2104 83.9414C71.5649 83.9414 71.8854 83.9772 72.1719 84.0488C72.4619 84.1169 72.7072 84.201 72.9077 84.3013L72.5317 85.311C72.3133 85.2215 72.0895 85.1463 71.8604 85.0854C71.6312 85.0246 71.411 84.9941 71.1997 84.9941C70.8524 84.9941 70.5623 85.0711 70.3296 85.2251C70.1004 85.3791 69.9285 85.6082 69.814 85.9126C69.703 86.217 69.6475 86.5947 69.6475 87.0459C69.6475 87.4827 69.7048 87.8516 69.8193 88.1523C69.9339 88.4495 70.104 88.6751 70.3296 88.8291C70.5552 88.9795 70.8327 89.0547 71.1621 89.0547C71.488 89.0547 71.7798 89.0153 72.0376 88.9365C72.2954 88.8577 72.5389 88.7557 72.7681 88.6304V89.7261C72.5425 89.855 72.3008 89.9499 72.043 90.0107C71.7852 90.0752 71.4683 90.1074 71.0923 90.1074ZM76.5332 83.9414C77.0632 83.9414 77.5179 84.0506 77.8975 84.269C78.277 84.4875 78.5688 84.7972 78.7729 85.1982C78.9771 85.5993 79.0791 86.0791 79.0791 86.6377V87.3145H75.1099C75.1242 87.891 75.2782 88.335 75.5718 88.6465C75.869 88.958 76.2843 89.1138 76.8179 89.1138C77.1974 89.1138 77.5376 89.078 77.8384 89.0063C78.1427 88.9312 78.4561 88.8219 78.7783 88.6787V89.7046C78.4811 89.8442 78.1785 89.9463 77.8706 90.0107C77.5627 90.0752 77.1938 90.1074 76.7642 90.1074C76.1805 90.1074 75.6667 89.9946 75.2227 89.769C74.7822 89.5399 74.4367 89.1997 74.186 88.7485C73.939 88.2974 73.8154 87.737 73.8154 87.0674C73.8154 86.4014 73.9282 85.8356 74.1538 85.3701C74.3794 84.9046 74.6963 84.5501 75.1045 84.3066C75.5127 84.0632 75.9889 83.9414 76.5332 83.9414ZM76.5332 84.8921C76.1357 84.8921 75.8135 85.021 75.5664 85.2788C75.3229 85.5366 75.1797 85.9144 75.1367 86.4121H77.8438C77.8402 86.1149 77.79 85.8517 77.6934 85.6226C77.6003 85.3934 77.457 85.2144 77.2637 85.0854C77.0739 84.9565 76.8304 84.8921 76.5332 84.8921Z" fill="#303030"/>
<path id="+" d="M86.7891 19.0547H83.6797V17.6641H86.7891V14.4766H88.1953V17.6641H91.3125V19.0547H88.1953V22.2266H86.7891V19.0547Z" fill="#FF6C00"/>
</g>
</svg>
