<svg width="130" height="93" viewBox="0 0 130 93" fill="none" xmlns="http://www.w3.org/2000/svg">
<g id="text">
<path id="100" d="M36.7584 45H30.4215V27.6504L30.483 24.7998L30.5855 21.6826C29.5328 22.7354 28.8014 23.4258 28.3912 23.7539L24.9459 26.5225L21.8902 22.708L31.5494 15.0176H36.7584V45ZM67.9795 30.0088C67.9795 35.2451 67.1182 39.1211 65.3955 41.6367C63.6865 44.1523 61.0479 45.4102 57.4795 45.4102C54.0205 45.4102 51.4092 44.1113 49.6455 41.5137C47.8955 38.916 47.0205 35.0811 47.0205 30.0088C47.0205 24.7178 47.875 20.8213 49.584 18.3193C51.293 15.8037 53.9248 14.5459 57.4795 14.5459C60.9385 14.5459 63.5498 15.8584 65.3135 18.4834C67.0908 21.1084 67.9795 24.9502 67.9795 30.0088ZM53.3164 30.0088C53.3164 33.6865 53.6309 36.3252 54.2598 37.9248C54.9023 39.5107 55.9756 40.3037 57.4795 40.3037C58.9561 40.3037 60.0225 39.4971 60.6787 37.8838C61.335 36.2705 61.6631 33.6455 61.6631 30.0088C61.6631 26.3311 61.3281 23.6924 60.6582 22.0928C60.002 20.4795 58.9424 19.6729 57.4795 19.6729C55.9893 19.6729 54.9229 20.4795 54.2803 22.0928C53.6377 23.6924 53.3164 26.3311 53.3164 30.0088ZM94.0736 30.0088C94.0736 35.2451 93.2123 39.1211 91.4897 41.6367C89.7807 44.1523 87.142 45.4102 83.5736 45.4102C80.1147 45.4102 77.5033 44.1113 75.7397 41.5137C73.9897 38.916 73.1147 35.0811 73.1147 30.0088C73.1147 24.7178 73.9691 20.8213 75.6781 18.3193C77.3871 15.8037 80.0189 14.5459 83.5736 14.5459C87.0326 14.5459 89.6439 15.8584 91.4076 18.4834C93.185 21.1084 94.0736 24.9502 94.0736 30.0088ZM79.4105 30.0088C79.4105 33.6865 79.725 36.3252 80.3539 37.9248C80.9965 39.5107 82.0697 40.3037 83.5736 40.3037C85.0502 40.3037 86.1166 39.4971 86.7729 37.8838C87.4291 36.2705 87.7572 33.6455 87.7572 30.0088C87.7572 26.3311 87.4223 23.6924 86.7523 22.0928C86.0961 20.4795 85.0365 19.6729 83.5736 19.6729C82.0834 19.6729 81.017 20.4795 80.3744 22.0928C79.7318 23.6924 79.4105 26.3311 79.4105 30.0088Z" fill="#303030"/>
<path id="+" d="M104.789 19.0547H101.68V17.6641H104.789V14.4766H106.195V17.6641H109.312V19.0547H106.195V22.2266H104.789V19.0547Z" fill="#FF6C00"/>
<path id="Gifts for regular customers" d="M27.0532 70.7354H29.9858L29.9858 74.6777C29.5741 74.8138 29.1479 74.9194 28.7075 74.9946C28.2671 75.0698 27.7729 75.1074 27.2251 75.1074C26.4266 75.1074 25.7498 74.9499 25.1948 74.6348C24.6434 74.3161 24.2244 73.856 23.938 73.2544C23.6515 72.6493 23.5083 71.9206 23.5083 71.0684C23.5083 70.2484 23.6676 69.5376 23.9863 68.936C24.305 68.3309 24.7687 67.8636 25.3774 67.5342C25.9862 67.2012 26.7238 67.0347 27.5903 67.0347C28.0164 67.0347 28.4282 67.0776 28.8257 67.1636C29.2267 67.2459 29.5938 67.3605 29.9268 67.5073L29.4756 68.5708C29.2106 68.4455 28.9134 68.3398 28.584 68.2539C28.2546 68.168 27.9126 68.125 27.5581 68.125C26.9959 68.125 26.5107 68.2467 26.1025 68.4902C25.6979 68.7337 25.3864 69.0775 25.168 69.5215C24.9495 69.9619 24.8403 70.4829 24.8403 71.0845C24.8403 71.6681 24.9281 72.1802 25.1035 72.6206C25.279 73.061 25.5529 73.4048 25.9253 73.6519C26.3013 73.8953 26.7865 74.0171 27.3809 74.0171C27.6781 74.0171 27.9305 74.001 28.1382 73.9688C28.3459 73.9365 28.5374 73.9007 28.7129 73.8613V71.8364H27.0532V70.7354ZM32.999 69.0542V75H31.7368L31.7368 69.0542H32.999ZM32.376 66.7769C32.5693 66.7769 32.7358 66.8288 32.8755 66.9326C33.0187 67.0365 33.0903 67.2155 33.0903 67.4697C33.0903 67.7204 33.0187 67.8994 32.8755 68.0068C32.7358 68.1107 32.5693 68.1626 32.376 68.1626C32.1755 68.1626 32.0054 68.1107 31.8657 68.0068C31.7297 67.8994 31.6616 67.7204 31.6616 67.4697C31.6616 67.2155 31.7297 67.0365 31.8657 66.9326C32.0054 66.8288 32.1755 66.7769 32.376 66.7769ZM37.7793 70.0156H36.3345V75H35.0723V70.0156H34.1001V69.4087L35.0723 69.0381V68.6245C35.0723 68.1196 35.151 67.7186 35.3086 67.4214C35.4697 67.1242 35.6989 66.9111 35.9961 66.7822C36.2969 66.6497 36.6549 66.5835 37.0703 66.5835C37.3424 66.5835 37.5913 66.6068 37.8169 66.6533C38.0425 66.6963 38.2323 66.7464 38.3862 66.8037L38.0586 67.7598C37.9368 67.7204 37.8008 67.6846 37.6504 67.6523C37.5 67.6165 37.3389 67.5986 37.167 67.5986C36.8805 67.5986 36.6693 67.6882 36.5332 67.8672C36.4007 68.0462 36.3345 68.3076 36.3345 68.6514V69.0542H37.7793V70.0156ZM41.0073 74.0869C41.172 74.0869 41.335 74.0726 41.4961 74.0439C41.6572 74.0117 41.804 73.9741 41.9365 73.9312V74.8872C41.7969 74.9481 41.616 75 41.394 75.043C41.172 75.0859 40.9411 75.1074 40.7012 75.1074C40.3646 75.1074 40.062 75.0519 39.7935 74.9409C39.5249 74.8263 39.3118 74.6312 39.1543 74.3555C38.9967 74.0798 38.918 73.6984 38.918 73.2114V70.0156H38.1069V69.4517L38.9771 69.0059L39.3906 67.7329H40.1855V69.0542H41.8882V70.0156H40.1855V73.1953C40.1855 73.4961 40.2607 73.7199 40.4111 73.8667C40.5615 74.0135 40.7603 74.0869 41.0073 74.0869ZM47.1411 73.3027C47.1411 73.693 47.0462 74.0225 46.8564 74.291C46.6667 74.5596 46.3892 74.7637 46.0239 74.9033C45.6623 75.0394 45.2183 75.1074 44.6919 75.1074C44.2765 75.1074 43.9185 75.077 43.6177 75.0161C43.3205 74.9588 43.0394 74.8693 42.7744 74.7476V73.6572C43.0573 73.7897 43.3742 73.9043 43.7251 74.001C44.0796 74.0977 44.4144 74.146 44.7295 74.146C45.1449 74.146 45.4438 74.0815 45.6265 73.9526C45.8091 73.8201 45.9004 73.6447 45.9004 73.4263C45.9004 73.2974 45.8628 73.1828 45.7876 73.0825C45.716 72.9787 45.5799 72.873 45.3794 72.7656C45.1825 72.6546 44.8924 72.5221 44.5093 72.3682C44.1333 72.2178 43.8164 72.0674 43.5586 71.917C43.3008 71.7666 43.1056 71.5858 42.9731 71.3745C42.8407 71.1597 42.7744 70.8857 42.7744 70.5527C42.7744 70.0264 42.9821 69.6271 43.3975 69.355C43.8164 69.0793 44.3696 68.9414 45.0571 68.9414C45.4224 68.9414 45.7661 68.979 46.0884 69.0542C46.4142 69.1258 46.7329 69.2314 47.0444 69.3711L46.647 70.3218C46.3784 70.2036 46.1081 70.1069 45.8359 70.0317C45.5674 69.953 45.2935 69.9136 45.0142 69.9136C44.6883 69.9136 44.4395 69.9637 44.2676 70.064C44.0993 70.1642 44.0151 70.3075 44.0151 70.4937C44.0151 70.6333 44.0563 70.7515 44.1387 70.8481C44.221 70.9448 44.3625 71.0415 44.563 71.1382C44.7671 71.2349 45.05 71.3548 45.4116 71.498C45.7661 71.6341 46.0723 71.7773 46.3301 71.9277C46.5915 72.0745 46.792 72.2554 46.9316 72.4702C47.0713 72.6851 47.1411 72.9626 47.1411 73.3027ZM54.333 70.0156H52.8882V75H51.626V70.0156H50.6538V69.4087L51.626 69.0381V68.6245C51.626 68.1196 51.7048 67.7186 51.8623 67.4214C52.0234 67.1242 52.2526 66.9111 52.5498 66.7822C52.8506 66.6497 53.2087 66.5835 53.624 66.5835C53.8962 66.5835 54.145 66.6068 54.3706 66.6533C54.5962 66.6963 54.786 66.7464 54.9399 66.8037L54.6123 67.7598C54.4906 67.7204 54.3545 67.6846 54.2041 67.6523C54.0537 67.6165 53.8926 67.5986 53.7207 67.5986C53.4342 67.5986 53.223 67.6882 53.0869 67.8672C52.9544 68.0462 52.8882 68.3076 52.8882 68.6514V69.0542H54.333V70.0156ZM60.6118 72.0137C60.6118 72.5078 60.5474 72.9465 60.4185 73.3296C60.2896 73.7127 60.1016 74.0368 59.8545 74.3018C59.6074 74.5632 59.3102 74.7637 58.9629 74.9033C58.6156 75.0394 58.2235 75.1074 57.7866 75.1074C57.3784 75.1074 57.0042 75.0394 56.6641 74.9033C56.3239 74.7637 56.0285 74.5632 55.7778 74.3018C55.5308 74.0368 55.3392 73.7127 55.2031 73.3296C55.0671 72.9465 54.999 72.5078 54.999 72.0137C54.999 71.3584 55.1118 70.8034 55.3374 70.3486C55.5666 69.8903 55.8924 69.5412 56.3149 69.3013C56.7375 69.0614 57.2406 68.9414 57.8242 68.9414C58.3721 68.9414 58.8555 69.0614 59.2744 69.3013C59.6934 69.5412 60.021 69.8903 60.2573 70.3486C60.4937 70.807 60.6118 71.362 60.6118 72.0137ZM56.2988 72.0137C56.2988 72.4469 56.3507 72.8175 56.4546 73.1255C56.562 73.4334 56.7267 73.6698 56.9487 73.8345C57.1707 73.9956 57.4572 74.0762 57.8081 74.0762C58.159 74.0762 58.4455 73.9956 58.6675 73.8345C58.8895 73.6698 59.0524 73.4334 59.1562 73.1255C59.2601 72.8175 59.312 72.4469 59.312 72.0137C59.312 71.5804 59.2601 71.2134 59.1562 70.9126C59.0524 70.6082 58.8895 70.3773 58.6675 70.2197C58.4455 70.0586 58.1572 69.978 57.8027 69.978C57.2799 69.978 56.8986 70.1535 56.6587 70.5044C56.4188 70.8553 56.2988 71.3584 56.2988 72.0137ZM65.0752 68.9414C65.1755 68.9414 65.2847 68.9468 65.4028 68.9575C65.521 68.9683 65.623 68.9826 65.709 69.0005L65.5908 70.1821C65.5156 70.1606 65.4225 70.1445 65.3115 70.1338C65.2041 70.123 65.1074 70.1177 65.0215 70.1177C64.7959 70.1177 64.5811 70.1553 64.377 70.2305C64.1729 70.3021 63.992 70.4131 63.8345 70.5635C63.6769 70.7103 63.5534 70.8947 63.4639 71.1167C63.3743 71.3387 63.3296 71.5965 63.3296 71.8901V75H62.062V69.0542H63.0503L63.2222 70.1016H63.2812C63.3994 69.8903 63.5462 69.6969 63.7217 69.5215C63.8971 69.346 64.0977 69.2064 64.3232 69.1025C64.5524 68.9951 64.8031 68.9414 65.0752 68.9414ZM72.6807 68.9414C72.7809 68.9414 72.8901 68.9468 73.0083 68.9575C73.1265 68.9683 73.2285 68.9826 73.3145 69.0005L73.1963 70.1821C73.1211 70.1606 73.028 70.1445 72.917 70.1338C72.8096 70.123 72.7129 70.1177 72.627 70.1177C72.4014 70.1177 72.1865 70.1553 71.9824 70.2305C71.7783 70.3021 71.5975 70.4131 71.4399 70.5635C71.2824 70.7103 71.1589 70.8947 71.0693 71.1167C70.9798 71.3387 70.9351 71.5965 70.9351 71.8901V75H69.6675V69.0542H70.6558L70.8276 70.1016H70.8867C71.0049 69.8903 71.1517 69.6969 71.3271 69.5215C71.5026 69.346 71.7031 69.2064 71.9287 69.1025C72.1579 68.9951 72.4085 68.9414 72.6807 68.9414ZM76.7842 68.9414C77.3141 68.9414 77.7689 69.0506 78.1484 69.269C78.528 69.4875 78.8198 69.7972 79.0239 70.1982C79.228 70.5993 79.3301 71.0791 79.3301 71.6377V72.3145H75.3608C75.3752 72.891 75.5291 73.335 75.8228 73.6465C76.12 73.958 76.5353 74.1138 77.0688 74.1138C77.4484 74.1138 77.7886 74.078 78.0894 74.0063C78.3937 73.9312 78.707 73.8219 79.0293 73.6787V74.7046C78.7321 74.8442 78.4295 74.9463 78.1216 75.0107C77.8136 75.0752 77.4448 75.1074 77.0151 75.1074C76.4315 75.1074 75.9176 74.9946 75.4736 74.769C75.0332 74.5399 74.6877 74.1997 74.437 73.7485C74.1899 73.2974 74.0664 72.737 74.0664 72.0674C74.0664 71.4014 74.1792 70.8356 74.4048 70.3701C74.6304 69.9046 74.9473 69.5501 75.3555 69.3066C75.7637 69.0632 76.2399 68.9414 76.7842 68.9414ZM76.7842 69.8921C76.3867 69.8921 76.0645 70.021 75.8174 70.2788C75.5739 70.5366 75.4307 70.9144 75.3877 71.4121H78.0947C78.0911 71.1149 78.041 70.8517 77.9443 70.6226C77.8512 70.3934 77.708 70.2144 77.5146 70.0854C77.3249 69.9565 77.0814 69.8921 76.7842 69.8921ZM82.4507 77.6426C81.645 77.6426 81.0273 77.4976 80.5977 77.2075C80.168 76.9175 79.9531 76.5111 79.9531 75.9883C79.9531 75.623 80.0677 75.3133 80.2969 75.0591C80.526 74.8084 80.8537 74.6348 81.2798 74.5381C81.1187 74.4665 80.979 74.3555 80.8608 74.2051C80.7463 74.0511 80.689 73.881 80.689 73.6948C80.689 73.4728 80.7516 73.283 80.877 73.1255C81.0023 72.9679 81.1903 72.8158 81.4409 72.6689C81.1294 72.5365 80.8787 72.3216 80.689 72.0244C80.5028 71.7236 80.4097 71.3709 80.4097 70.9663C80.4097 70.5366 80.501 70.1714 80.6836 69.8706C80.8662 69.5662 81.133 69.3353 81.4839 69.1777C81.8348 69.0166 82.2591 68.936 82.7568 68.936C82.8643 68.936 82.9806 68.9432 83.106 68.9575C83.2349 68.9683 83.353 68.9826 83.4604 69.0005C83.5715 69.0148 83.6556 69.0309 83.7129 69.0488H85.77V69.7524L84.7603 69.9404C84.8569 70.0765 84.9339 70.2323 84.9912 70.4077C85.0485 70.5796 85.0771 70.7676 85.0771 70.9717C85.0771 71.5876 84.8641 72.0728 84.438 72.4272C84.0155 72.7782 83.4318 72.9536 82.687 72.9536C82.508 72.9465 82.3343 72.9321 82.166 72.9106C82.0371 72.9894 81.9386 73.0771 81.8706 73.1738C81.8026 73.2669 81.7686 73.3726 81.7686 73.4907C81.7686 73.5874 81.8026 73.6662 81.8706 73.7271C81.9386 73.7843 82.0389 73.8273 82.1714 73.856C82.3075 73.8846 82.4722 73.8989 82.6655 73.8989H83.6914C84.3431 73.8989 84.8408 74.0368 85.1846 74.3125C85.5283 74.5882 85.7002 74.9928 85.7002 75.5264C85.7002 76.2031 85.4209 76.7241 84.8623 77.0894C84.3037 77.4582 83.4998 77.6426 82.4507 77.6426ZM82.499 76.7563C82.9395 76.7563 83.3101 76.7134 83.6108 76.6274C83.9116 76.5415 84.139 76.418 84.293 76.2568C84.4469 76.0993 84.5239 75.9113 84.5239 75.6929C84.5239 75.4995 84.4756 75.3509 84.3789 75.2471C84.2822 75.1432 84.1372 75.0716 83.9438 75.0322C83.7505 74.9928 83.5106 74.9731 83.2241 74.9731H82.2896C82.0568 74.9731 81.8509 75.009 81.6719 75.0806C81.4928 75.1558 81.3532 75.2632 81.2529 75.4028C81.1562 75.5425 81.1079 75.7108 81.1079 75.9077C81.1079 76.1799 81.2279 76.3893 81.4678 76.5361C81.7113 76.6829 82.055 76.7563 82.499 76.7563ZM82.7461 72.1265C83.1149 72.1265 83.3888 72.0262 83.5679 71.8257C83.7469 71.6216 83.8364 71.3351 83.8364 70.9663C83.8364 70.5653 83.7433 70.2645 83.5571 70.064C83.3745 69.8634 83.1024 69.7632 82.7407 69.7632C82.3862 69.7632 82.1159 69.8652 81.9297 70.0693C81.7471 70.2734 81.6558 70.576 81.6558 70.9771C81.6558 71.3387 81.7471 71.6216 81.9297 71.8257C82.1159 72.0262 82.388 72.1265 82.7461 72.1265ZM92.0381 69.0542V75H91.0444L90.8726 74.1997H90.8027C90.6774 74.4038 90.5181 74.5739 90.3247 74.71C90.1313 74.8424 89.9165 74.9409 89.6802 75.0054C89.4438 75.0734 89.195 75.1074 88.9336 75.1074C88.486 75.1074 88.1029 75.0322 87.7842 74.8818C87.4691 74.7279 87.2274 74.4915 87.0591 74.1729C86.8908 73.8542 86.8066 73.4424 86.8066 72.9375V69.0542H88.0742V72.7012C88.0742 73.1631 88.1673 73.5086 88.3535 73.7378C88.5433 73.967 88.8369 74.0815 89.2344 74.0815C89.6175 74.0815 89.9219 74.0028 90.1475 73.8452C90.373 73.6877 90.5324 73.4549 90.6255 73.147C90.7222 72.839 90.7705 72.4613 90.7705 72.0137V69.0542H92.0381ZM95.1157 75H93.8481V66.6426H95.1157V75ZM99.2515 68.9414C100.003 68.9414 100.571 69.1079 100.954 69.4409C101.341 69.7739 101.534 70.2931 101.534 70.9985V75H100.637L100.396 74.1567H100.353C100.184 74.3716 100.011 74.5488 99.8315 74.6885C99.6525 74.8281 99.4448 74.932 99.2085 75C98.9757 75.0716 98.6911 75.1074 98.3545 75.1074C98 75.1074 97.6831 75.043 97.4038 74.9141C97.1245 74.7816 96.9043 74.5811 96.7432 74.3125C96.582 74.0439 96.5015 73.7038 96.5015 73.292C96.5015 72.6797 96.7288 72.2196 97.1836 71.9116C97.6419 71.6037 98.333 71.4336 99.2568 71.4014L100.288 71.3638V71.0522C100.288 70.6405 100.191 70.3468 99.998 70.1714C99.8083 69.9959 99.5397 69.9082 99.1924 69.9082C98.8952 69.9082 98.6069 69.9512 98.3276 70.0371C98.0483 70.123 97.7762 70.2287 97.5112 70.354L97.103 69.4624C97.3931 69.3084 97.7225 69.1831 98.0913 69.0864C98.4637 68.9897 98.8504 68.9414 99.2515 68.9414ZM100.283 72.1587L99.5146 72.1855C98.8844 72.207 98.4422 72.3145 98.188 72.5078C97.9338 72.7012 97.8066 72.9661 97.8066 73.3027C97.8066 73.5964 97.8944 73.8112 98.0698 73.9473C98.2453 74.0798 98.4762 74.146 98.7627 74.146C99.1995 74.146 99.5612 74.0225 99.8477 73.7754C100.138 73.5247 100.283 73.1577 100.283 72.6743V72.1587ZM106.314 68.9414C106.415 68.9414 106.524 68.9468 106.642 68.9575C106.76 68.9683 106.862 68.9826 106.948 69.0005L106.83 70.1821C106.755 70.1606 106.662 70.1445 106.551 70.1338C106.443 70.123 106.347 70.1177 106.261 70.1177C106.035 70.1177 105.82 70.1553 105.616 70.2305C105.412 70.3021 105.231 70.4131 105.074 70.5635C104.916 70.7103 104.793 70.8947 104.703 71.1167C104.614 71.3387 104.569 71.5965 104.569 71.8901V75H103.301V69.0542H104.29L104.461 70.1016H104.521C104.639 69.8903 104.785 69.6969 104.961 69.5215C105.136 69.346 105.337 69.2064 105.562 69.1025C105.792 68.9951 106.042 68.9414 106.314 68.9414ZM40.3843 90.1074C39.8221 90.1074 39.3351 89.9982 38.9233 89.7798C38.5116 89.5614 38.1947 89.2266 37.9727 88.7754C37.7507 88.3242 37.6396 87.7513 37.6396 87.0566C37.6396 86.3333 37.7614 85.7425 38.0049 85.2842C38.2484 84.8258 38.585 84.4875 39.0146 84.269C39.4479 84.0506 39.9438 83.9414 40.5024 83.9414C40.8569 83.9414 41.1774 83.9772 41.4639 84.0488C41.7539 84.1169 41.9992 84.201 42.1997 84.3013L41.8237 85.311C41.6053 85.2215 41.3815 85.1463 41.1523 85.0854C40.9232 85.0246 40.703 84.9941 40.4917 84.9941C40.1444 84.9941 39.8543 85.0711 39.6216 85.2251C39.3924 85.3791 39.2205 85.6082 39.106 85.9126C38.995 86.217 38.9395 86.5947 38.9395 87.0459C38.9395 87.4827 38.9967 87.8516 39.1113 88.1523C39.2259 88.4495 39.396 88.6751 39.6216 88.8291C39.8472 88.9795 40.1247 89.0547 40.4541 89.0547C40.7799 89.0547 41.0718 89.0153 41.3296 88.9365C41.5874 88.8577 41.8309 88.7557 42.0601 88.6304V89.7261C41.8345 89.855 41.5928 89.9499 41.335 90.0107C41.0771 90.0752 40.7603 90.1074 40.3843 90.1074ZM48.6396 84.0542L48.6396 90H47.646L47.4741 89.1997H47.4043C47.279 89.4038 47.1196 89.5739 46.9263 89.71C46.7329 89.8424 46.5181 89.9409 46.2817 90.0054C46.0454 90.0734 45.7965 90.1074 45.5352 90.1074C45.0876 90.1074 44.7044 90.0322 44.3857 89.8818C44.0706 89.7279 43.8289 89.4915 43.6606 89.1729C43.4924 88.8542 43.4082 88.4424 43.4082 87.9375L43.4082 84.0542H44.6758L44.6758 87.7012C44.6758 88.1631 44.7689 88.5086 44.9551 88.7378C45.1449 88.967 45.4385 89.0815 45.8359 89.0815C46.2191 89.0815 46.5234 89.0028 46.749 88.8452C46.9746 88.6877 47.134 88.4549 47.2271 88.147C47.3237 87.839 47.3721 87.4613 47.3721 87.0137L47.3721 84.0542H48.6396ZM54.4458 88.3027C54.4458 88.693 54.3509 89.0225 54.1611 89.291C53.9714 89.5596 53.6938 89.7637 53.3286 89.9033C52.967 90.0394 52.5229 90.1074 51.9966 90.1074C51.5812 90.1074 51.2231 90.077 50.9224 90.0161C50.6252 89.9588 50.3441 89.8693 50.0791 89.7476V88.6572C50.362 88.7897 50.6789 88.9043 51.0298 89.001C51.3843 89.0977 51.7191 89.146 52.0342 89.146C52.4495 89.146 52.7485 89.0815 52.9312 88.9526C53.1138 88.8201 53.2051 88.6447 53.2051 88.4263C53.2051 88.2974 53.1675 88.1828 53.0923 88.0825C53.0207 87.9787 52.8846 87.873 52.6841 87.7656C52.4871 87.6546 52.1971 87.5221 51.814 87.3682C51.438 87.2178 51.1211 87.0674 50.8633 86.917C50.6055 86.7666 50.4103 86.5858 50.2778 86.3745C50.1453 86.1597 50.0791 85.8857 50.0791 85.5527C50.0791 85.0264 50.2868 84.6271 50.7021 84.355C51.1211 84.0793 51.6743 83.9414 52.3618 83.9414C52.7271 83.9414 53.0708 83.979 53.3931 84.0542C53.7189 84.1258 54.0376 84.2314 54.3491 84.3711L53.9517 85.3218C53.6831 85.2036 53.4128 85.1069 53.1406 85.0317C52.8721 84.953 52.5981 84.9136 52.3188 84.9136C51.993 84.9136 51.7441 84.9637 51.5723 85.064C51.404 85.1642 51.3198 85.3075 51.3198 85.4937C51.3198 85.6333 51.361 85.7515 51.4434 85.8481C51.5257 85.9448 51.6672 86.0415 51.8677 86.1382C52.0718 86.2349 52.3547 86.3548 52.7163 86.498C53.0708 86.6341 53.377 86.7773 53.6348 86.9277C53.8962 87.0745 54.0967 87.2554 54.2363 87.4702C54.376 87.6851 54.4458 87.9626 54.4458 88.3027ZM58.0229 89.0869C58.1877 89.0869 58.3506 89.0726 58.5117 89.0439C58.6729 89.0117 58.8197 88.9741 58.9521 88.9312V89.8872C58.8125 89.9481 58.6317 90 58.4097 90.043C58.1877 90.0859 57.9567 90.1074 57.7168 90.1074C57.3802 90.1074 57.0776 90.0519 56.8091 89.9409C56.5405 89.8263 56.3275 89.6312 56.1699 89.3555C56.0124 89.0798 55.9336 88.6984 55.9336 88.2114L55.9336 85.0156L55.1226 85.0156V84.4517L55.9927 84.0059L56.4062 82.7329H57.2012V84.0542H58.9038V85.0156H57.2012L57.2012 88.1953C57.2012 88.4961 57.2764 88.7199 57.4268 88.8667C57.5771 89.0135 57.7759 89.0869 58.0229 89.0869ZM65.4243 87.0137C65.4243 87.5078 65.3599 87.9465 65.231 88.3296C65.1021 88.7127 64.9141 89.0368 64.667 89.3018C64.4199 89.5632 64.1227 89.7637 63.7754 89.9033C63.4281 90.0394 63.036 90.1074 62.5991 90.1074C62.1909 90.1074 61.8167 90.0394 61.4766 89.9033C61.1364 89.7637 60.841 89.5632 60.5903 89.3018C60.3433 89.0368 60.1517 88.7127 60.0156 88.3296C59.8796 87.9465 59.8115 87.5078 59.8115 87.0137C59.8115 86.3584 59.9243 85.8034 60.1499 85.3486C60.3791 84.8903 60.7049 84.5412 61.1274 84.3013C61.55 84.0614 62.0531 83.9414 62.6367 83.9414C63.1846 83.9414 63.668 84.0614 64.0869 84.3013C64.5059 84.5412 64.8335 84.8903 65.0698 85.3486C65.3062 85.807 65.4243 86.362 65.4243 87.0137ZM61.1113 87.0137C61.1113 87.4469 61.1632 87.8175 61.2671 88.1255C61.3745 88.4334 61.5392 88.6698 61.7612 88.8345C61.9832 88.9956 62.2697 89.0762 62.6206 89.0762C62.9715 89.0762 63.258 88.9956 63.48 88.8345C63.702 88.6698 63.8649 88.4334 63.9687 88.1255C64.0726 87.8175 64.1245 87.4469 64.1245 87.0137C64.1245 86.5804 64.0726 86.2134 63.9687 85.9126C63.8649 85.6082 63.702 85.3773 63.48 85.2197C63.258 85.0586 62.9697 84.978 62.6152 84.978C62.0924 84.978 61.7111 85.1535 61.4712 85.5044C61.2313 85.8553 61.1113 86.3584 61.1113 87.0137ZM73.5938 83.9414C74.2598 83.9414 74.7611 84.1133 75.0977 84.457C75.4378 84.8008 75.6079 85.3522 75.6079 86.1113V90H74.3457V86.3369C74.3457 85.8857 74.258 85.5456 74.0825 85.3164C73.9071 85.0872 73.6403 84.9727 73.2822 84.9727C72.7809 84.9727 72.4193 85.1338 72.1973 85.4561C71.9788 85.7747 71.8696 86.2384 71.8696 86.8472V90H70.6074V86.3369C70.6074 86.0361 70.568 85.7855 70.4893 85.585C70.4141 85.3809 70.2977 85.2287 70.1401 85.1284C69.9826 85.0246 69.7839 84.9727 69.5439 84.9727C69.1966 84.9727 68.9191 85.0514 68.7114 85.209C68.5073 85.3665 68.3605 85.5993 68.271 85.9072C68.1815 86.2116 68.1367 86.5858 68.1367 87.0298V90H66.8745V84.0542H67.8574L68.0347 84.8545H68.1045C68.2262 84.6468 68.3766 84.4767 68.5557 84.3442C68.7383 84.2082 68.9406 84.1079 69.1626 84.0435C69.3846 83.9754 69.6156 83.9414 69.8555 83.9414C70.2995 83.9414 70.6737 84.0202 70.978 84.1777C71.2824 84.3317 71.5098 84.568 71.6602 84.8867H71.7568C71.943 84.5645 72.2026 84.3263 72.5356 84.1724C72.8687 84.0184 73.2214 83.9414 73.5938 83.9414ZM79.7383 83.9414C80.2682 83.9414 80.723 84.0506 81.1025 84.269C81.4821 84.4875 81.7739 84.7972 81.978 85.1982C82.1821 85.5993 82.2842 86.0791 82.2842 86.6377V87.3145H78.3149C78.3293 87.891 78.4832 88.335 78.7769 88.6465C79.0741 88.958 79.4894 89.1138 80.0229 89.1138C80.4025 89.1138 80.7427 89.078 81.0435 89.0063C81.3478 88.9312 81.6611 88.8219 81.9834 88.6787V89.7046C81.6862 89.8442 81.3836 89.9463 81.0757 90.0107C80.7677 90.0752 80.3989 90.1074 79.9692 90.1074C79.3856 90.1074 78.8717 89.9946 78.4277 89.769C77.9873 89.5399 77.6418 89.1997 77.3911 88.7485C77.144 88.2974 77.0205 87.737 77.0205 87.0674C77.0205 86.4014 77.1333 85.8356 77.3589 85.3701C77.5845 84.9046 77.9014 84.5501 78.3096 84.3066C78.7178 84.0632 79.194 83.9414 79.7383 83.9414ZM79.7383 84.8921C79.3408 84.8921 79.0186 85.021 78.7715 85.2788C78.528 85.5366 78.3848 85.9144 78.3418 86.4121H81.0488C81.0452 86.1149 80.9951 85.8517 80.8984 85.6226C80.8053 85.3934 80.6621 85.2144 80.4688 85.0854C80.279 84.9565 80.0355 84.8921 79.7383 84.8921ZM86.7207 83.9414C86.821 83.9414 86.9302 83.9468 87.0483 83.9575C87.1665 83.9683 87.2686 83.9826 87.3545 84.0005L87.2363 85.1821C87.1611 85.1606 87.068 85.1445 86.957 85.1338C86.8496 85.123 86.7529 85.1177 86.667 85.1177C86.4414 85.1177 86.2266 85.1553 86.0225 85.2305C85.8184 85.3021 85.6375 85.4131 85.48 85.5635C85.3224 85.7103 85.1989 85.8947 85.1094 86.1167C85.0199 86.3387 84.9751 86.5965 84.9751 86.8901V90H83.7075V84.0542H84.6958L84.8677 85.1016H84.9268C85.0449 84.8903 85.1917 84.6969 85.3672 84.5215C85.5426 84.346 85.7432 84.2064 85.9688 84.1025C86.1979 83.9951 86.4486 83.9414 86.7207 83.9414ZM92.4517 88.3027C92.4517 88.693 92.3568 89.0225 92.167 89.291C91.9772 89.5596 91.6997 89.7637 91.3345 89.9033C90.9728 90.0394 90.5288 90.1074 90.0024 90.1074C89.5871 90.1074 89.229 90.077 88.9282 90.0161C88.631 89.9588 88.3499 89.8693 88.085 89.7476V88.6572C88.3678 88.7897 88.6847 88.9043 89.0356 89.001C89.3901 89.0977 89.7249 89.146 90.04 89.146C90.4554 89.146 90.7544 89.0815 90.937 88.9526C91.1196 88.8201 91.2109 88.6447 91.2109 88.4263C91.2109 88.2974 91.1733 88.1828 91.0981 88.0825C91.0265 87.9787 90.8905 87.873 90.6899 87.7656C90.493 87.6546 90.203 87.5221 89.8198 87.3682C89.4438 87.2178 89.127 87.0674 88.8691 86.917C88.6113 86.7666 88.4162 86.5858 88.2837 86.3745C88.1512 86.1597 88.085 85.8857 88.085 85.5527C88.085 85.0264 88.2926 84.6271 88.708 84.355C89.127 84.0793 89.6802 83.9414 90.3677 83.9414C90.7329 83.9414 91.0767 83.979 91.3989 84.0542C91.7248 84.1258 92.0435 84.2314 92.355 84.3711L91.9575 85.3218C91.689 85.2036 91.4186 85.1069 91.1465 85.0317C90.8779 84.953 90.604 84.9136 90.3247 84.9136C89.9989 84.9136 89.75 84.9637 89.5781 85.064C89.4098 85.1642 89.3257 85.3075 89.3257 85.4937C89.3257 85.6333 89.3669 85.7515 89.4492 85.8481C89.5316 85.9448 89.673 86.0415 89.8735 86.1382C90.0776 86.2349 90.3605 86.3548 90.7222 86.498C91.0767 86.6341 91.3828 86.7773 91.6406 86.9277C91.902 87.0745 92.1025 87.2554 92.2422 87.4702C92.3818 87.6851 92.4517 87.9626 92.4517 88.3027Z" fill="#303030"/>
</g>
</svg>
